<svg xmlns="http://www.w3.org/2000/svg" width="181" height="133.503" viewBox="0 0 181 133.503">
  <g id="Grupo_2050" data-name="Grupo 2050" transform="translate(-121 -183)">
    <g id="Grupo_2045" data-name="Grupo 2045" transform="translate(121 183)">
      <path id="Shape" d="M145.765,9.4v77.5a8.451,8.451,0,0,1-8.5,8.5H9.1a8.451,8.451,0,0,1-8.5-8.5V9.4A8.451,8.451,0,0,1,9.1.9H137.261A8.608,8.608,0,0,1,145.765,9.4Z" transform="translate(-0.6 -0.9)" fill="#ebecef"/>
      <path id="Shape-2" data-name="Shape" d="M140.61,30.8V80.605a8.451,8.451,0,0,1-8.5,8.5H24.6V39.3a8.451,8.451,0,0,1,8.5-8.5Z" transform="translate(4.554 5.522)" fill="#e0e2e6"/>
      <path id="Trazado_357" data-name="Trazado 357" d="M136.761,94.509H8.6a8.451,8.451,0,0,1-8.5-8.5V8.5A8.451,8.451,0,0,1,8.6,0H136.761a8.451,8.451,0,0,1,8.5,8.5v77.5A8.451,8.451,0,0,1,136.761,94.509Z" transform="translate(35.736 38.994)" fill="#f0f1f3"/>
      <path id="Trazado_358" data-name="Trazado 358" d="M34.387,31.031H15.315a2.915,2.915,0,0,1,0-5.831H34.387A2.956,2.956,0,0,1,37.3,28.115,2.878,2.878,0,0,1,34.387,31.031Z" transform="translate(38.377 44.406)" fill="#dadce1"/>
      <path id="Trazado_359" data-name="Trazado 359" d="M59.687,31.031H40.615a2.915,2.915,0,0,1,0-5.831H59.687a2.915,2.915,0,0,1,0,5.831Z" transform="translate(43.811 44.406)" fill="#dadce1"/>
      <path id="Trazado_360" data-name="Trazado 360" d="M84.887,31.031H65.815a2.915,2.915,0,0,1,0-5.831H84.887a2.915,2.915,0,0,1,0,5.831Z" transform="translate(49.223 44.406)" fill="#dadce1"/>
      <path id="Trazado_361" data-name="Trazado 361" d="M110.087,31.031H91.015a2.915,2.915,0,0,1,0-5.831h19.072A2.956,2.956,0,0,1,113,28.115,2.878,2.878,0,0,1,110.087,31.031Z" transform="translate(54.635 44.406)" fill="#dadce1"/>
      <circle id="Oval" cx="11.176" cy="11.176" r="11.176" transform="translate(146.744 100.582)" fill="#caccd2"/>
      <circle id="Oval-2" data-name="Oval" cx="11.176" cy="11.176" r="11.176" transform="translate(131.924 100.582)" fill="#dadce1"/>
      <rect id="Rectangle-path" width="145.165" height="18.1" transform="translate(0 15.792)" fill="#dadce1"/>
    </g>
  </g>
</svg>
