<svg xmlns="http://www.w3.org/2000/svg" width="201.935" height="130.133" viewBox="0 0 201.935 130.133">
  <g id="Grupo_2055" data-name="Grupo 2055" transform="translate(-87 -261.533)">
    <path id="Trazado_6947" data-name="Trazado 6947" d="M123.516,131.033H6.369a6.22,6.22,0,0,1-6.151-7.108c1.094-7.655,2.734-9.3,14.216-13.943l2.734-1.094c5.194-2.05,12.166-4.784,21.461-8.612a8.372,8.372,0,0,0,4.648-4.511,8.563,8.563,0,0,0,.82-3.691v-17.5c-.273-.41-.547-.683-.82-1.094a16.134,16.134,0,0,1-2.734-7.518l-1.5-.683c-4.511,1.094-4.1-3.691-5.331-12.849-.41-3.827.137-4.648,1.777-5.194l1.367-1.914C28.24,25.778,32.614,13.613,41.09,9.238,38.219,3.087,38.082.9,38.082.9s18.18,3.007,24.332,1.777c7.928-1.5,20.094.273,24.6,10.8,7.518,3.007,10.389,7.792,11.072,12.849,1.094,8.2-3.554,17.223-4.511,20.778.137.137.137.273.273.41,1.23.547,1.64,1.64,1.23,4.921-1.094,8.748-.82,14.079-5.331,12.849l-3.964,6.971a10.094,10.094,0,0,0-.273,1.64c-.137,1.367-.137,3.827-.137,18.18a9.32,9.32,0,0,0,1.367,4.784,10.361,10.361,0,0,0,4.1,3.554.134.134,0,0,1,.137.137h0c10.252,4.238,17.77,7.108,23.1,9.3,12.166,4.784,14.079,6.288,15.173,14.353C130.351,127.752,127.344,131.033,123.516,131.033Z" transform="translate(117.85 260.633)" fill="#e7eaee"/>
    <path id="Trazado_378" data-name="Trazado 378" d="M123.516,131.033H6.369a6.22,6.22,0,0,1-6.151-7.108c1.094-7.655,2.734-9.3,14.216-13.943l2.734-1.094c5.194-2.05,12.166-4.784,21.461-8.612a8.372,8.372,0,0,0,4.648-4.511,8.563,8.563,0,0,0,.82-3.691v-17.5c-.273-.41-.547-.683-.82-1.094a16.134,16.134,0,0,1-2.734-7.518l-1.5-.683c-4.511,1.094-4.1-3.691-5.331-12.849-.41-3.827.137-4.648,1.777-5.194l1.367-1.914C28.24,25.778,32.614,13.613,41.09,9.238,38.219,3.087,38.082.9,38.082.9s18.18,3.007,24.332,1.777c7.928-1.5,20.094.273,24.6,10.8,7.518,3.007,10.389,7.792,11.072,12.849,1.094,8.2-3.554,17.223-4.511,20.778.137.137.137.273.273.41,1.23.547,1.64,1.64,1.23,4.921-1.094,8.748-.82,14.079-5.331,12.849l-3.964,6.971a10.094,10.094,0,0,0-.273,1.64c-.137,1.367-.137,3.827-.137,18.18a9.32,9.32,0,0,0,1.367,4.784,10.361,10.361,0,0,0,4.1,3.554.134.134,0,0,1,.137.137h0c10.252,4.238,17.77,7.108,23.1,9.3,12.166,4.784,14.079,6.288,15.173,14.353C130.351,127.752,127.344,131.033,123.516,131.033Z" transform="translate(117.849 260.633)" fill="#e7eaee"/>
    <path id="Trazado_379" data-name="Trazado 379" d="M85.321,46.966c.41-2.187-.683-4.921-1.367-6.835-.137-.273-.273-.683-.41-.957-3.417-6.971-11.209-9.842-18.59-10.252-18.864-.957-20.641,2.6-26.519-2.734,1.777,2.734,2.05,7.108-.82,12.576-1.914,3.827-5.741,5.468-9.159,6.561-8.612-19.547-4.238-31.713,4.238-36.087C29.823,3.087,29.686.9,29.686.9s18.18,3.007,24.332,1.777c7.928-1.5,20.094.273,24.6,10.8,7.518,3.007,10.389,7.792,11.072,12.849C90.925,34.39,86.141,43.412,85.321,46.966Z" transform="translate(126.519 260.633)" fill="#dadce1"/>
    <path id="Trazado_380" data-name="Trazado 380" d="M11,80.994c.82-.41,1.777-.683,2.734-1.094" transform="translate(121.83 289.622)" fill="#fff"/>
    <path id="Trazado_382" data-name="Trazado 382" d="M57.549,75.664C50.218,72.592,31.17,54.065,32.537,55.3L49.023,67.106a8.664,8.664,0,0,0,11.072.137L72.945,55.76c.41-.41.538-.829.948-1.239-.137,1.367-.137,3.827-.137,18.18C73.893,74.615,67.9,80,57.549,75.664Z" transform="translate(129.463 279.861)" fill="#dadce1" opacity="0.6"/>
    <path id="Trazado_383" data-name="Trazado 383" d="M67.75,82.406H32.756s-1.046-.942-1.87-1.565c-2.92-2.22-7.163-4.008-12.483-6.09-1.5-.683-3.281-1.23-5.194-2.05C10.065,71.471,6.238,69.967,2,68.19c3.144-1.23,7.245-2.871,12.713-5.058a6.143,6.143,0,0,0,3.007-2.871,6.44,6.44,0,0,0,.547-2.324V47c-.137-.273-.41-.41-.547-.683a11.224,11.224,0,0,1-1.777-4.784l-.957-.41c-2.734.683-2.6-2.324-3.281-8.065-.273-2.46,0-2.871,1.094-3.281l.957-1.23A30.316,30.316,0,0,1,10.748,16.52c0-5.331,2.324-8.885,5.6-10.525C14.576,2.167,14.439.8,14.439.8s11.346,1.914,15.31,1.094C34.67.937,42.325,2.03,45.2,8.592c4.648,1.914,6.561,4.921,6.971,8.065.683,5.058-2.187,10.8-2.734,12.986,0,.137.137.137.137.273.683.41.957.957.683,3.144-.683,5.468-.547,8.748-3.281,8.065L44.512,45.5a3.4,3.4,0,0,0-.137,1.094c-.137.82,0,2.46,0,11.346a5.854,5.854,0,0,0,.82,3.007,5.759,5.759,0,0,0,2.6,2.187h.137c6.425,2.734,11.072,4.374,14.49,5.741,7.518,3.007,8.748,3.964,9.569,9.022A4.323,4.323,0,0,1,67.75,82.406Z" transform="translate(216.948 287.935)" fill="#e7eaee"/>
    <path id="Trazado_6948" data-name="Trazado 6948" d="M50.874,69.331C45.74,67.179,35.235,55.45,36.192,56.311L44.9,63.338a6.068,6.068,0,0,0,7.754.1l9-8.041c.287-.287.28-.324.567-.612-.1.957-.1,2.68-.1,12.732C62.223,68.853,58.125,72.371,50.874,69.331Z" transform="translate(199.121 278.689)" fill="#dadce1" opacity="0.6"/>
    <path id="Trazado_384" data-name="Trazado 384" d="M46.963,29.742a7.473,7.473,0,0,0-.957-4.238c-.137-.137-.137-.41-.273-.547-2.187-4.374-6.971-6.151-11.619-6.425-11.756-.683-12.849,1.64-16.54-1.777,1.094,1.777,1.23,4.374-.547,7.792-1.23,2.324-3.554,3.417-5.741,4.1C5.955,16.483,8.552,8.828,13.883,6.094,12.106,2.267,11.97.9,11.97.9S23.315,2.814,27.143,1.994c4.921-.957,12.576.137,15.446,6.7,4.648,1.914,6.561,4.784,6.971,8.065C50.381,21.951,47.51,27.555,46.963,29.742Z" transform="translate(219.281 287.972)" fill="#dadce1"/>
    <path id="Trazado_385" data-name="Trazado 385" d="M.5,51.083c.547-.273,1.094-.41,1.777-.683" transform="translate(216.397 306.136)" fill="#fff"/>
    <path id="Trazado_388" data-name="Trazado 388" d="M18.691,42.812a15.625,15.625,0,0,0,2.05,2.324,13.439,13.439,0,0,0,2.05,1.64c.41.273.957.683,1.367.957l.273.273c.137.137.273.137.41.273v4.374l-.273-.273a7.512,7.512,0,0,0-1.23-.957c-.683-.41-1.23-.82-1.914-1.23-.273-.137-.41-.273-.683-.41-2.05-1.23-3.964-2.6-3.964-3.964C16.777,44.862,17.324,43.905,18.691,42.812Zm41.555,32.26h0ZM53.274,56.755a15.206,15.206,0,0,0-7.108-1.777h-2.05c-4.374-.137-4.784-.82-4.784-.82V46.913c4.648-3.827,8.475-8.2,9.569-13.943a5.677,5.677,0,0,0,4.374-6.151c-.137-1.23-.957-2.46-.957-3.691V19.847a5.128,5.128,0,0,0-.137-1.367,19.4,19.4,0,0,0-2.187-6.971A21.2,21.2,0,0,0,31.266.3a18.351,18.351,0,0,0-4.784.547,20.5,20.5,0,0,0-7.792,3.691c-.41.41-.957.683-1.367,1.094-.137.137-.273.137-.273.273a20.08,20.08,0,0,0-5.6,8.612,23.69,23.69,0,0,0-.957,10.252v.547c.137.547.273.547-.137,1.094-.137.137-.273.41-.41.547a4.741,4.741,0,0,0-.41,3.964c1.094,3.007,3.281,2.6,5.194,4.374a.477.477,0,0,0-.273.137h-.137l-2.187.683c-13.4,4.238-14.9,18.454-1.094,21.188a7.449,7.449,0,0,0-2.6,1.094A22.04,22.04,0,0,0,.51,72.2a2.62,2.62,0,0,0,2.6,3.007H32.087c2.734-1.914,6.288-3.417,10.8-5.194L48.9,67.69c2.46-.957,5.331-2.05,8.612-3.417.957-.41,2.05-.82,3.007-1.23A21.185,21.185,0,0,0,53.274,56.755Z" transform="translate(86.528 293.22)" fill="#e7eaee"/>
    <path id="Trazado_391" data-name="Trazado 391" d="M47.273,53.6c-.137.273-.137.41-.273.683A2.309,2.309,0,0,1,47.273,53.6Z" transform="translate(103.601 312.778)" fill="#3973f4"/>
    <path id="Trazado_392" data-name="Trazado 392" d="M49.614,19.847a28.208,28.208,0,0,1-12.166,1.5,31.313,31.313,0,0,1-17.634-7.381c-1.64,4.648-5.741,8.2-10.252,10.252-.547.273-1.23.547-1.914.82v-.273a23.884,23.884,0,0,1,.957-10.252A20.08,20.08,0,0,1,14.21,5.9c.137-.137.273-.137.273-.273A9.577,9.577,0,0,1,15.85,4.538,21.506,21.506,0,0,1,23.642.847,19.047,19.047,0,0,1,28.426.3,21.36,21.36,0,0,1,47.153,11.509,19.4,19.4,0,0,1,49.34,18.48,2.7,2.7,0,0,1,49.614,19.847Z" transform="translate(89.095 293.22)" fill="#dadce1"/>
    <path id="Trazado_393" data-name="Trazado 393" d="M14,31.6a11.8,11.8,0,0,0,1.777,1.914h0A11.8,11.8,0,0,1,14,31.6Z" transform="translate(91.492 304.705)" fill="#3973f4"/>
    <path id="Trazado_394" data-name="Trazado 394" d="M27.238,56.383c-1.777,2.187-4.921,2.187-7.655,2.187,2.871-2.734,1.23-11.892-8.748-10.8H10.7c-13.806-2.6-12.3-16.95,1.094-21.188l2.187-.683c.137.137.273.273.41.273a25.534,25.534,0,0,0,4.1,7.108c-5.468,4.648,2.187,6.015,5.878,9.569C27.511,44.764,30.245,52.692,27.238,56.383Z" transform="translate(86.729 302.613)" fill="#dadce1"/>
    <path id="Trazado_395" data-name="Trazado 395" d="M14.073,31.673,13.8,31.4C13.937,31.4,13.937,31.537,14.073,31.673Z" transform="translate(91.418 304.632)" fill="#3973f4"/>
    <path id="Shape" d="M45.8,79h0Z" transform="translate(102.61 289.291)" fill="#4988fd"/>
    <path id="Shape-2" data-name="Shape" d="M46.9,78.283a1.044,1.044,0,0,0,.273-.683A1.044,1.044,0,0,1,46.9,78.283Z" transform="translate(103.564 288.778)" fill="#4988fd"/>
    <path id="Trazado_6949" data-name="Trazado 6949" d="M41.292,61.96c-2.579-1.081-8.712-6.527-8.231-6.094l5.231,3.083a3.048,3.048,0,0,0,3.9.048l4.5-3.693c.144-.144.685-.814.829-.959-.048.481-.048,1.347-.048,6.4C47.515,61.414,44.935,63.487,41.292,61.96Z" transform="translate(78.314 285.634)" fill="#dadce1" opacity="0.45"/>
  </g>
</svg>
