<svg xmlns="http://www.w3.org/2000/svg" width="147.7" height="123" viewBox="0 0 147.7 123">
  <g id="Grupo_2049" data-name="Grupo 2049" transform="translate(-360 -170.001)">
    <g id="Grupo_2046" data-name="Grupo 2046" transform="translate(-106 39)">
      <path id="Shape" d="M74.3,53.7a2.476,2.476,0,0,1-2.5-2.5V2.6a2.5,2.5,0,0,1,5,0V51.2A2.54,2.54,0,0,1,74.3,53.7Z" transform="translate(465.6 195.301)" fill="#f0f1f3"/>
      <path id="Shape-2" data-name="Shape" d="M145.6,55.7H2.9a2.5,2.5,0,1,1,0-5H145.6a2.5,2.5,0,0,1,0,5Z" transform="translate(465.6 195.301)" fill="#f0f1f3"/>
      <path id="Shape-3" data-name="Shape" d="M85.2,50.1v5.2a3.372,3.372,0,0,1-3.4,3.4H66.7a3.372,3.372,0,0,1-3.4-3.4V50.1a3.372,3.372,0,0,1,3.4-3.4H81.8A3.5,3.5,0,0,1,85.2,50.1Z" transform="translate(465.6 195.301)" fill="#caccd2"/>
      <path id="Shape-4" data-name="Shape" d="M85.2,50.1v2.8a3.372,3.372,0,0,1-3.4,3.4H66.7a3.372,3.372,0,0,1-3.4-3.4V50.1a3.372,3.372,0,0,1,3.4-3.4H81.8A3.5,3.5,0,0,1,85.2,50.1Z" transform="translate(465.6 195.301)" fill="#dadce1"/>
      <path id="Shape-5" data-name="Shape" d="M146.9,57.1a23.282,23.282,0,0,1-23.2,23.3H24.9A23.372,23.372,0,0,1,7,72,22.873,22.873,0,0,1,1.6,57.1a25.7,25.7,0,0,1,.8-6.2A23.305,23.305,0,0,1,24.8,33.8h.1A29.429,29.429,0,0,1,69.3,15.9,32.363,32.363,0,0,1,129.1,33v1.4a23.342,23.342,0,0,1,17,16.4A26.526,26.526,0,0,1,146.9,57.1Z" transform="translate(465.6 130.301)" fill="#dadce1"/>
      <path id="Shape-6" data-name="Shape" d="M146.1,50.9a23.554,23.554,0,0,1-14,15.5,23.246,23.246,0,0,1-8.4,1.6H24.9A23.372,23.372,0,0,1,7,59.6a21.939,21.939,0,0,1-4.5-8.7A23.305,23.305,0,0,1,24.9,33.8H25A29.429,29.429,0,0,1,69.4,15.9,32.363,32.363,0,0,1,129.2,33v1.4A23.5,23.5,0,0,1,146.1,50.9Z" transform="translate(465.6 130.301)" fill="#f0f1f3"/>
      <path id="Shape-7" data-name="Shape" d="M132.783,88.095l9.042-9.042a5.295,5.295,0,1,0-7.488-7.488l-9.042,9.042-9.042-9.042a5.295,5.295,0,0,0-7.488,7.488l9.042,9.042-9.042,9.042a5.2,5.2,0,0,0,0,7.488,5.118,5.118,0,0,0,7.347,0l9.042-9.042,9.042,9.042a5.383,5.383,0,0,0,3.673,1.554,5.13,5.13,0,0,0,3.673-1.554,5.2,5.2,0,0,0,0-7.488Z" transform="translate(414.492 116.025)" fill="#caccd2"/>
    </g>
  </g>
</svg>
