<svg xmlns="http://www.w3.org/2000/svg" width="147.825" height="147.115" viewBox="0 0 147.825 147.115">
  <g id="Grupo_2058" data-name="Grupo 2058" transform="translate(-114.001 -330.001)">
    <circle id="Oval" cx="11.7" cy="11.7" r="11.7" transform="translate(136.029 442.23) rotate(-45)" fill="#fff"/>
    <circle id="Oval-2" data-name="Oval" cx="11.7" cy="11.7" r="11.7" transform="translate(136.029 442.23) rotate(-45)" fill="#dadce1"/>
    <path id="Shape" d="M71.9,119.3A8.487,8.487,0,0,1,60,119L3.2,62.2a8.38,8.38,0,1,1,12-11.7,3.652,3.652,0,0,0,5.2,0l28-28C62.6,8.3,85.9,8,100.1,22.2a36.334,36.334,0,0,1-.1,51.4L71.7,101.9a3.744,3.744,0,0,0,0,5.2l.1.1a8.468,8.468,0,0,1,2.4,6A7.085,7.085,0,0,1,71.9,119.3Z" transform="translate(121.863 350.658)" fill="#e7eaee"/>
    <circle id="Oval-3" data-name="Oval" cx="8.7" cy="8.7" r="8.7" transform="translate(218.771 363.73) rotate(-45)" fill="#e7eaee"/>
    <path id="Shape-2" data-name="Shape" d="M71.5,119.7a8,8,0,0,1-11.2-.3L40.5,100c1.1-.3,5-1.3,6.2-2.1,8-5.3.6-14.5-4.6-19.8C62.9,92.7,95,74.9,107.8,56.3A33.787,33.787,0,0,1,98,76.8L71.4,103.4a3.47,3.47,0,0,0,0,4.9l.1.1a8.039,8.039,0,0,1,2.3,5.6A7.469,7.469,0,0,1,71.5,119.7Z" transform="translate(121.863 350.658)" fill="#dadce1"/>
    <path id="Shape-3" data-name="Shape" d="M18.6,52.8a1.268,1.268,0,0,1-.6-.1,2.556,2.556,0,0,1-1.9-3.1A44.125,44.125,0,0,1,50.7,16.4a2.55,2.55,0,1,1,1,5A38.952,38.952,0,0,0,21.1,50.8,2.56,2.56,0,0,1,18.6,52.8Z" transform="translate(113.863 329.658)" fill="#f0f1f3"/>
    <path id="Shape-4" data-name="Shape" d="M2.7,48.8a1.268,1.268,0,0,1-.6-.1A2.556,2.556,0,0,1,.2,45.6,60.622,60.622,0,0,1,47,.4a2.52,2.52,0,0,1,3,2,2.52,2.52,0,0,1-2,3A55.734,55.734,0,0,0,5.2,46.8,2.646,2.646,0,0,1,2.7,48.8Z" transform="translate(113.863 329.658)" fill="#f0f1f3"/>
    <path id="Shape-5" data-name="Shape" d="M129.5,95a1.268,1.268,0,0,1,.6.1,2.556,2.556,0,0,1,1.9,3.1,44.125,44.125,0,0,1-34.6,33.2,2.55,2.55,0,1,1-1-5A38.952,38.952,0,0,0,127,97,2.56,2.56,0,0,1,129.5,95Z" transform="translate(113.863 329.658)" fill="#f0f1f3"/>
    <path id="Shape-6" data-name="Shape" d="M145.4,99a1.268,1.268,0,0,1,.6.1,2.556,2.556,0,0,1,1.9,3.1,60.622,60.622,0,0,1-46.8,45.2,2.55,2.55,0,1,1-1-5A55.734,55.734,0,0,0,142.9,101,2.646,2.646,0,0,1,145.4,99Z" transform="translate(113.863 329.658)" fill="#f0f1f3"/>
  </g>
</svg>
