<svg xmlns="http://www.w3.org/2000/svg" width="143.888" height="132.058" viewBox="0 0 143.888 132.058">
  <g id="Page-1" transform="translate(-7.3 -0.8)">
    <g id="Stocks" transform="translate(7.3 0.8)">
      <path id="Shape" d="M101.9,47.386a4.346,4.346,0,0,1-3.764-2.258,4.116,4.116,0,0,1,1.828-5.592l16.884-8.6a4.16,4.16,0,0,1,3.764,7.42l-16.884,8.6A3.535,3.535,0,0,1,101.9,47.386Z" transform="translate(-0.487 1.437)" fill="#e7eaee"/>
      <path id="Shape-2" data-name="Shape" d="M85.66,45.593a4.354,4.354,0,0,1-2.9-1.183l-19.465-18.6A4.183,4.183,0,1,1,69.1,19.784l19.465,18.6a4.123,4.123,0,0,1,.108,5.915A4.069,4.069,0,0,1,85.66,45.593Z" transform="translate(-3.177 0.541)" fill="#e7eaee"/>
      <path id="Shape-3" data-name="Shape" d="M29.492,49.062a4.155,4.155,0,0,1-2.9-1.183,4.221,4.221,0,0,1-.108-5.915L48.527,19.489A4.183,4.183,0,0,1,54.549,25.3L32.5,47.772A4.246,4.246,0,0,1,29.492,49.062Z" transform="translate(-5.941 0.514)" fill="#e7eaee"/>
      <path id="Shape-4" data-name="Shape" d="M22.786,67.071A15.486,15.486,0,1,1,38.271,51.586,15.49,15.49,0,0,1,22.786,67.071Zm0-22.691a7.1,7.1,0,1,0,7.1,7.1A7.091,7.091,0,0,0,22.786,44.381Z" transform="translate(-7.3 1.861)" fill="#f0f1f3"/>
      <path id="Shape-5" data-name="Shape" d="M58.586,31.771A15.486,15.486,0,1,1,74.071,16.286,15.49,15.49,0,0,1,58.586,31.771Zm0-22.691a7.1,7.1,0,1,0,7.1,7.1A7.091,7.091,0,0,0,58.586,9.081Z" transform="translate(-4.601 -0.8)" fill="#f0f1f3"/>
      <path id="Shape-6" data-name="Shape" d="M93.086,63.271a15.486,15.486,0,1,1,15.486-15.486A15.49,15.49,0,0,1,93.086,63.271Zm0-22.691a7.1,7.1,0,1,0,7.1,7.1A7.091,7.091,0,0,0,93.086,40.581Z" transform="translate(-2 1.575)" fill="#f0f1f3"/>
      <path id="Shape-7" data-name="Shape" d="M127.786,45.971a15.486,15.486,0,1,1,15.486-15.486A15.49,15.49,0,0,1,127.786,45.971Zm0-22.583a7.1,7.1,0,1,0,7.1,7.1A7.091,7.091,0,0,0,127.786,23.388Z" transform="translate(0.616 0.271)" fill="#f0f1f3"/>
      <path id="Shape-8" data-name="Shape" d="M32.625,86.528v40H12.3v-40A1.813,1.813,0,0,1,14.128,84.7H30.689A1.78,1.78,0,0,1,32.625,86.528Z" transform="translate(-6.923 5.525)" fill="#f0f1f3"/>
      <path id="Shape-9" data-name="Shape" d="M67.625,51.573v77.643H47.3V51.573A2.5,2.5,0,0,1,49.773,49.1H65.259A2.559,2.559,0,0,1,67.625,51.573Z" transform="translate(-4.284 2.841)" fill="#e7eaee"/>
      <path id="Shape-10" data-name="Shape" d="M102.625,80.536v46.457H82.3V80.536A1.928,1.928,0,0,1,84.236,78.6h16.346A1.954,1.954,0,0,1,102.625,80.536Z" transform="translate(-1.646 5.066)" fill="#f0f1f3"/>
      <path id="Shape-11" data-name="Shape" d="M137.625,66.451v61.62H117.3V66.451a2.157,2.157,0,0,1,2.151-2.151h15.916A2.183,2.183,0,0,1,137.625,66.451Z" transform="translate(0.993 3.987)" fill="#e7eaee"/>
    </g>
  </g>
</svg>
