<svg xmlns="http://www.w3.org/2000/svg" width="806.732" height="514.581" viewBox="0 0 806.732 514.581">
  <g id="Grupo_1686" data-name="Grupo 1686" transform="translate(-3542.931 -55.337)">
    <g id="Grupo_1676" data-name="Grupo 1676" transform="translate(3542.931 569.918) rotate(-90)">
      <rect id="Rectángulo_813" data-name="Rectángulo 813" width="806.732" height="514.581" rx="50" transform="translate(514.581 0) rotate(90)" fill="#1c2632"/>
      <rect id="Rectángulo_2001" data-name="Rectángulo 2001" width="110.951" height="806.732" transform="translate(342.417 0)" fill="#555b6b" opacity="0.5"/>
      <path id="Rectángulo_2002" data-name="Rectángulo 2002" d="M10,0H68.431a10,10,0,0,1,10,10V263.986a0,0,0,0,1,0,0H10a10,10,0,0,1-10-10V10A10,10,0,0,1,10,0Z" transform="translate(239.118 512.139)" fill="#555b6b"/>
      <text id="_4268_663" data-name="4268 663" transform="translate(268.506 611.612) rotate(90)" fill="#fff" font-size="29" font-family="Montserrat-Medium, Montserrat" font-weight="500"><tspan x="0" y="0">4268 663</tspan></text>
      <text id="_5648" data-name="5648" transform="matrix(0, 1, 1, 0, 209.811, 372.403)" fill="#2f3845" font-size="41" font-family="Montserrat-SemiBold, Montserrat" font-weight="600"><tspan x="-52.316" y="0">5648</tspan></text>
      <text id="_3500" data-name="3500" transform="matrix(0, 1, 1, 0, 209.811, 496.121)" fill="#2f3845" font-size="41" font-family="Montserrat-SemiBold, Montserrat" font-weight="600"><tspan x="-51.291" y="0">3500</tspan></text>
      <text id="_9208" data-name="9208" transform="matrix(0, 1, 1, 0, 209.811, 618.078)" fill="#2f3845" font-size="41" font-family="Montserrat-SemiBold, Montserrat" font-weight="600"><tspan x="-51.783" y="0">9208</tspan></text>
      <text id="_6180" data-name="6180" transform="matrix(0, 1, 1, 0, 205.132, 731.129)" fill="#2f3845" font-size="37" font-family="Montserrat-SemiBold, Montserrat" font-weight="600"><tspan x="-43.16" y="0">6180</tspan></text>
    </g>
  </g>
</svg>
