<svg xmlns="http://www.w3.org/2000/svg" xmlns:xlink="http://www.w3.org/1999/xlink" width="804.97" height="511.03" viewBox="0 0 804.97 511.03">
  <defs>
    <clipPath id="clip-path">
      <rect id="CARD" width="804.97" height="511.03" rx="50" transform="translate(6465.16 6039)" fill="#ee9c72"/>
    </clipPath>
  </defs>
  <g id="Grupo_1678" data-name="Grupo 1678" transform="translate(-952 -55)">
    <g id="Grupo_1666" data-name="Grupo 1666">
      <g id="_75_-_DESIGN_CARD" data-name="75 - DESIGN CARD" transform="translate(-5513.16 -5984)">
        <g id="CARD-2" data-name="CARD">
          <path id="CARD-3" data-name="CARD" d="M50,0H754.97a50,50,0,0,1,50,50V461.03a50,50,0,0,1-50,50H50a50,50,0,0,1-50-50V50A50,50,0,0,1,50,0Z" transform="translate(6465.16 6039)" fill="#ff9d70"/>
          <g id="Clip" clip-path="url(#clip-path)">
            <path id="SHAPE" d="M6367.664,5721.665q17.574-131.325,35.146-262.649c1.572-11.744,3.307-23.912,10.493-33.989,20.961-29.392,71.959-24.538,109.78-13.089,83.772,25.356,256.569,91.826,360.83,256.953,88.381,139.979,81.827,266.292,76.524,368.478-4.667,89.968-26.106,141.89-65.1,182.23a249.838,249.838,0,0,1-72.922,52.146c-100.5,48.171-225.561,56.668-333.61,22.665-22.943-7.219-45.976-16.814-61.054-33.345-13.864-15.2-19.525-34.6-24.842-53.364-22.561-79.656-45.214-159.819-51.108-241.646C6345.924,5884.507,6356.8,5802.832,6367.664,5721.665Z" fill="#ffd600"/>
            <path id="SHAPE-2" data-name="SHAPE" d="M6950.364,6546.371,6833.933,6508.8c-28.122-9.074-58.2-19.538-75.331-43.624-22.3-31.359-14.988-74.487-3.344-111.17,29.9-94.23,86.153-184.685,173.006-231.838,129.922-70.532,300.938-32.307,427.609-105.242-.617-.3-1.208-.645-1.838-.929l16.306-7.959c-4.747,3.155-9.584,6.078-14.468,8.889,27.3,13.389,42.685,44.065,47.71,74.22,5.141,30.837,1.689,62.4,2.968,93.632,3.646,88.9,45.314,178.948,18.792,263.876-26.979,86.389-119.7,138.63-209.852,146.131q-15.08,1.255-30.117,1.23C7105.543,6596.014,7026.857,6571.055,6950.364,6546.371Z" fill="#f2dac1"/>
            <path id="SHAPE-3" data-name="SHAPE" d="M6385.226,6218.263c16.68-53.055,44.4-109.479,96.581-128.627,39.78-14.6,84.9-3.392,122.105,16.9s69.021,49.04,104.107,72.81c58.579,39.684,125.449,64.991,188.729,96.63a1031.918,1031.918,0,0,1,244.548,170.5c35.942,33.757,71.024,73.139,79.134,121.794,8.854,53.142-17.653,107.867-58.142,143.379s-93.1,54.248-145.815,65.2a611.909,611.909,0,0,1-135.041,12.594c-16.882,7-37.824,7.042-56.705,6.186l-192.548-8.722c-71.247-3.229-148.787-8.935-201.552-56.951-41.84-38.075-59.565-95.765-69.265-151.518A767.821,767.821,0,0,1,6385.226,6218.263Z" fill="#007a6e"/>
            <path id="SHAPE-4" data-name="SHAPE" d="M6796.7,6571.521c33.737-11.008,71.712-16.283,96.767-41.4,21.059-21.112,28.639-52.336,47.487-75.444,24.073-29.516,62.835-41.883,99.342-52.794,46.727-13.964,93.586-27.959,141.637-36.306,50-8.682,105.166-10.142,147.421,17.943,52.688,35.019,60.416,101.672,64.208,130.841,1.953,15.021,15.629,120.221-47.806,176.862-16.98,15.163-35.756,31.338-177.171,30.819-111.032-.407-222.2-.82-332.863-9.914-23.376-1.921-47.333-4.4-68.311-14.884s-38.628-30.782-39.281-54.211C6727.138,6607.582,6762.962,6582.53,6796.7,6571.521Z" fill="#eb6927"/>
          </g>
        </g>
      </g>
      <g id="Grupo_1660" data-name="Grupo 1660" transform="translate(1 -570)">
        <text id="S_._83402_83" data-name="S/. 83402,83" transform="translate(1200 1064)" fill="#fff" font-size="61" font-family="Montserrat-SemiBold, Montserrat" font-weight="600"><tspan x="-185.623" y="0">S/. 83402,83</tspan></text>
        <text id="_4498" data-name="4498" transform="translate(1068 958)" fill="#fff" font-size="41" font-family="Poppins-Medium, Poppins" font-weight="500"><tspan x="-51.394" y="0">4498</tspan></text>
        <text id="_2900" data-name="2900" transform="translate(1258 957)" fill="#fff" font-size="40" font-family="Poppins-Medium, Poppins" font-weight="500"><tspan x="-48.38" y="0">2900</tspan></text>
        <text id="_8080" data-name="8080" transform="translate(1447 958)" fill="#fff" font-size="41" font-family="Poppins-Medium, Poppins" font-weight="500"><tspan x="-51.414" y="0">8080</tspan></text>
        <text id="_5566" data-name="5566" transform="translate(1640 958)" fill="#fff" font-size="41" font-family="Poppins-Medium, Poppins" font-weight="500"><tspan x="-51.127" y="0">5566</tspan></text>
        <g id="Grupo_1514" data-name="Grupo 1514" transform="translate(1016.514 677.611)">
          <rect id="Rectángulo_814" data-name="Rectángulo 814" width="108" height="82" rx="20" transform="translate(0.486 0.389)" fill="rgba(255,255,255,0.2)"/>
          <g id="Grupo_1513" data-name="Grupo 1513" transform="translate(23.225 18.064)">
            <line id="Línea_19" data-name="Línea 19" y2="34.175" transform="translate(18.403 13.144)" fill="none" stroke="#fff" stroke-linecap="round" stroke-width="4"/>
            <line id="Línea_20" data-name="Línea 20" y2="47.319" transform="translate(34.051)" fill="none" stroke="#fff" stroke-linecap="round" stroke-width="4"/>
            <line id="Línea_23" data-name="Línea 23" x1="18.402" transform="translate(0 13.144)" fill="none" stroke="#fff" stroke-linecap="round" stroke-width="4"/>
            <line id="Línea_21" data-name="Línea 21" x1="15.773" transform="translate(0 34.175)" fill="none" stroke="#fff" stroke-linecap="round" stroke-width="4"/>
            <line id="Línea_24" data-name="Línea 24" x2="27.192" transform="translate(35.777 13.144)" fill="none" stroke="#fff" stroke-linecap="round" stroke-width="4"/>
            <line id="Línea_22" data-name="Línea 22" x2="27.192" transform="translate(35.777 34.175)" fill="none" stroke="#fff" stroke-linecap="round" stroke-width="4"/>
          </g>
        </g>
        <path id="Icon_awesome-wifi" data-name="Icon awesome-wifi" d="M73.753,14.274a54.011,54.011,0,0,0-73.162,0,1.846,1.846,0,0,0-.041,2.669L4.528,20.89a1.886,1.886,0,0,0,2.6.044,44.568,44.568,0,0,1,60.085,0,1.887,1.887,0,0,0,2.6-.044L73.8,16.944a1.847,1.847,0,0,0-.042-2.669Zm-36.581,22.9a7.434,7.434,0,1,0,7.434,7.434A7.434,7.434,0,0,0,37.172,37.172Zm23.543-9.71a35.662,35.662,0,0,0-47.086,0,1.836,1.836,0,0,0-.066,2.689l4,3.948a1.9,1.9,0,0,0,2.561.093,26.163,26.163,0,0,1,34.093,0,1.9,1.9,0,0,0,2.561-.093l4-3.948A1.836,1.836,0,0,0,60.715,27.462Z" transform="translate(1690.466 1007.923) rotate(90)" fill="#fff"/>
        <path id="Icon_simple-visa" data-name="Icon simple-visa" d="M119.782,2.067A34.271,34.271,0,0,0,107.835,0C94.651,0,85.348,6.647,85.279,16.17c-.082,7,6.619,10.945,11.68,13.293,5.2,2.4,6.935,3.914,6.921,6.077-.034,3.275-4.154,4.758-7.979,4.758a28.225,28.225,0,0,1-12.572-2.575l-1.641-.762L79.827,47.933c3.2,1.339,8.967,2.486,14.934,2.575,14.014,0,23.174-6.6,23.283-16.747.11-5.582-3.5-9.819-11.13-13.307-4.628-2.266-7.512-3.783-7.512-6.084,0-2.032,2.465-4.2,7.615-4.2a24.445,24.445,0,0,1,9.99,1.875l1.236.556L120.1,2l-.323.069ZM154,.9H143.7c-3.207,0-5.6.872-7.01,4.058L116.877,49.822h14.014l2.8-7.347,17.1.014c.419,1.717,1.648,7.333,1.648,7.333H164.79ZM66.328.488H79.669l-8.343,48.95H57.979L66.328.474ZM32.416,27.465l1.387,6.8L46.855.9H60.993L39.975,49.753h-14.1L14.337,8.377A2.732,2.732,0,0,0,13.1,6.75,56.381,56.381,0,0,0,0,1.9L.172.865h21.5c2.911.11,5.26,1.03,6.063,4.147l4.683,22.473v-.021Zm105.109,4.992,5.321-13.691c-.069.137,1.1-2.829,1.771-4.669l.913,4.223,3.083,14.124H137.524v.014Z" transform="translate(1525.213 694)" fill="#fff"/>
      </g>
    </g>
  </g>
</svg>
