<svg xmlns="http://www.w3.org/2000/svg" xmlns:xlink="http://www.w3.org/1999/xlink" width="393.958" height="407.765" viewBox="0 0 393.958 407.765">
  <defs>
    <linearGradient id="linear-gradient" x1="0.5" x2="0.5" y2="1" gradientUnits="objectBoundingBox">
      <stop offset="0" stop-color="#824eff"/>
      <stop offset="1" stop-color="#3a00ff"/>
    </linearGradient>
  </defs>
  <g id="Grupo_2037" data-name="Grupo 2037" transform="translate(9.52 -199.235)">
    <g id="Grupo_1792" data-name="Grupo 1792" transform="translate(-2981.719 489.409) rotate(-17)" opacity="0.2">
      <g id="Grupo_1776" data-name="Grupo 1776" transform="translate(2896.827 690.728)" opacity="0.18">
        <g id="Grupo_1775" data-name="Grupo 1775" transform="translate(0 0)">
          <g id="Grupo_1774" data-name="Grupo 1774">
            <g id="Grupo_1773" data-name="Grupo 1773">
              <path id="Trazado_6423" data-name="Trazado 6423" d="M3192.373,957.241c14-16.784,23.685-40.035,23.4-62.161-.292-22.953-8.555-44.214-4.615-67.76,2.252-13.463,7.488-26.424,8.267-40.052,3.684-64.394-98.578-120.27-140.093-60.042-2.845,4.129-5.208,8.7-8.961,12.024A20.482,20.482,0,0,1,3052.9,743.9c-9.863-2.052-18.138-9.785-27.7-13.143a92.838,92.838,0,0,0-26.9-5.114,104.174,104.174,0,0,0-52.66,12.152c-32.108,17-52.959,50.516-48.111,87.339,2.87,21.791,14.921,41.3,28.583,58.514,26.129,32.932,59.137,60.184,95.644,81.029,29.5,16.842,62.469,29.794,96.419,28.683A100.579,100.579,0,0,0,3192.373,957.241Z" transform="translate(-2896.827 -701.463)" fill="#8191fb"/>
            </g>
          </g>
        </g>
      </g>
      <g id="Grupo_1780" data-name="Grupo 1780" transform="translate(2899.69 693.405)" opacity="0.47">
        <g id="Grupo_1779" data-name="Grupo 1779" transform="translate(0 0)">
          <g id="Grupo_1778" data-name="Grupo 1778">
            <g id="Grupo_1777" data-name="Grupo 1777">
              <path id="Trazado_6424" data-name="Trazado 6424" d="M3215.638,893.736c3.684-20.025.911-43.328-9.439-61.157-10.736-18.5-27.168-31.972-34.741-52.884-4.33-11.957-6.01-24.871-11.61-36.289-26.465-53.948-135.022-52.521-141.166,15.351-.421,4.653-.249,9.443-1.774,13.858a19.082,19.082,0,0,1-12.053,11.762c-8.944,2.846-19.2.355-28.5,2a86.483,86.483,0,0,0-24.175,8.156A97.049,97.049,0,0,0,2915,828.49c-18.283,28.486-19.876,65.224.9,92.892,12.3,16.374,31,26.691,49.964,34.417,36.271,14.777,75.526,21.8,114.691,22.015,31.645.176,64.33-4.393,91.375-20.825A93.7,93.7,0,0,0,3215.638,893.736Z" transform="translate(-2900.804 -705.183)" fill="#8191fb"/>
            </g>
          </g>
        </g>
      </g>
      <g id="Grupo_1781" data-name="Grupo 1781" transform="translate(2902.648 944.467)" opacity="0.22">
        <path id="Trazado_6425" data-name="Trazado 6425" d="M2905.023,1072.775c-1.28,11.844,8.909,22.659,22.76,24.156s35.739-5.85,37.019-17.694-20.349-14.828-31.858-21.86C2916.893,1047.569,2906.3,1060.931,2905.023,1072.775Z" transform="translate(-2904.915 -1053.977)" fill="#8191fb"/>
      </g>
      <g id="Grupo_1785" data-name="Grupo 1785" transform="translate(2972.05 747.112)" opacity="0.47">
        <g id="Grupo_1784" data-name="Grupo 1784">
          <g id="Grupo_1783" data-name="Grupo 1783">
            <g id="Grupo_1782" data-name="Grupo 1782">
              <path id="Trazado_6426" data-name="Trazado 6426" d="M3207.853,903.481c2.417-13.136.6-28.422-6.191-40.117-7.043-12.133-17.822-20.973-22.789-34.69-2.841-7.844-3.943-16.315-7.616-23.8-17.361-35.388-88.571-34.453-92.6,10.069-.276,3.052-.163,6.194-1.164,9.091a12.517,12.517,0,0,1-7.907,7.716c-5.867,1.866-12.592.232-18.692,1.314a56.765,56.765,0,0,0-15.859,5.35,63.668,63.668,0,0,0-24.389,22.271c-11.993,18.686-13.037,42.785.593,60.935,8.066,10.74,20.335,17.508,32.775,22.576,23.792,9.693,49.542,14.3,75.233,14.441,20.758.116,42.2-2.882,59.939-13.66A61.465,61.465,0,0,0,3207.853,903.481Z" transform="translate(-3001.332 -779.795)" fill="#8191fb"/>
            </g>
          </g>
        </g>
      </g>
      <g id="Grupo_1786" data-name="Grupo 1786" transform="translate(3192.717 755.692)" opacity="0.31">
        <path id="Trazado_6427" data-name="Trazado 6427" d="M3316.8,797.442a4.529,4.529,0,1,1-3.171-5.564A4.529,4.529,0,0,1,3316.8,797.442Z" transform="translate(-3307.901 -791.716)" fill="#8191fb"/>
      </g>
      <g id="Grupo_1787" data-name="Grupo 1787" transform="translate(2992.761 663.152)" opacity="0.31">
        <circle id="Elipse_169" data-name="Elipse 169" cx="16.013" cy="16.013" r="16.013" transform="matrix(0.438, -0.899, 0.899, 0.438, 0, 28.782)" fill="#8191fb"/>
      </g>
      <g id="Grupo_1788" data-name="Grupo 1788" transform="translate(3215.598 819.205)" opacity="0.31">
        <path id="Trazado_6428" data-name="Trazado 6428" d="M3349.562,885.785a4.974,4.974,0,1,1-4.043-5.756A4.974,4.974,0,0,1,3349.562,885.785Z" transform="translate(-3339.688 -879.954)" fill="#8191fb"/>
      </g>
      <g id="Grupo_1789" data-name="Grupo 1789" transform="translate(3205.371 679.589)" opacity="0.31">
        <path id="Trazado_6429" data-name="Trazado 6429" d="M3335.354,691.82a4.974,4.974,0,1,1-4.043-5.756A4.975,4.975,0,0,1,3335.354,691.82Z" transform="translate(-3325.48 -685.989)" fill="#8191fb"/>
      </g>
      <g id="Grupo_1790" data-name="Grupo 1790" transform="translate(2917.245 779.676)" opacity="0.31">
        <path id="Trazado_6430" data-name="Trazado 6430" d="M2931.066,828.5a2.959,2.959,0,1,1-2.4-3.424A2.958,2.958,0,0,1,2931.066,828.5Z" transform="translate(-2925.193 -825.036)" fill="#8191fb"/>
      </g>
    </g>
    <path id="Trazado_6447" data-name="Trazado 6447" d="M685.519,379.126s-11.99,4.692-19.638,11.468a43.935,43.935,0,0,0-10.952,15.639L649.642,417.7v5.213s94.976,10.542,136.983,6.371,31.043-23.052,31.043-23.052c0-8.877-9.43-24.761-31.043-35.795s-35.649-12.453-55.411-8.341C718.827,364.675,685.519,379.126,685.519,379.126Z" transform="translate(-548.667 -38.091)" fill="#977eff" fill-rule="evenodd" opacity="0.5"/>
    <rect id="Rectángulo_2122" data-name="Rectángulo 2122" width="176" height="127" rx="34" transform="translate(100 402)" fill="#ffab31" opacity="0.5"/>
    <path id="Unión_2" data-name="Unión 2" d="M-4341.667-12002.133c-4.541-9.9-8.9-18.576-8.9-18.576-.9-3.24-1.638-6.478-2.2-9.707l-47.472,10.3-42.862-7.795q-.729,3.6-1.731,7.206s-4.359,8.672-8.9,18.576H-4485c5.452-18.094,14.87-47.773,19.287-58.759,5.357-13.327,14.555-16.673,15.333-16.936l-.026-.212s18.027-9.54,34.716-13.978a40.314,40.314,0,0,1,14.014-1.454c1.032.055,1.991.106,2.938.1,4.013-.04,7.768-1.394,15.25,0,15.277,2.84,37.957,15.089,39.942,16.172,2.974,1.462,9.622,5.758,13.863,16.307,4.414,10.985,13.833,40.665,19.284,58.759Z" transform="translate(4585.239 12424.122)" stroke="rgba(0,0,0,0)" stroke-miterlimit="10" stroke-width="1" fill="url(#linear-gradient)"/>
    <rect id="Rectángulo_2110" data-name="Rectángulo 2110" width="220" height="127" rx="16" transform="translate(78 375)" fill="#ffab31"/>
    <g id="Grupo_1762" data-name="Grupo 1762" transform="translate(90.123 364.242)">
      <g id="Grupo_1759" data-name="Grupo 1759" transform="translate(162.64)">
        <path id="Trazado_6396" data-name="Trazado 6396" d="M723.217,413.483a3.154,3.154,0,0,0,1.912.366c.891-.2,1.436-1.784,1.71-3.4s.433-5.231.561-5.77-.4-1.955-4.093-2.491c0,0-4.962-3.813-5.734-4.255a5.839,5.839,0,0,0-5.173.586s-4.042-.83-5.3-.538a5.705,5.705,0,0,0-2.466,1.856,22.238,22.238,0,0,0-4.733.195c-1.865.359-4.679,8.615-4.679,8.615h8.937c.761,0,3.009,4.664,6.512,2.193,1.546,1.724,4.365,4.488,6.925,1.613C718.168,416.053,722.8,414.468,723.217,413.483Z" transform="translate(-695.223 -397.577)" fill="#ffc59a" fill-rule="evenodd"/>
        <g id="Grupo_1758" data-name="Grupo 1758" transform="translate(5.637 0.942)">
          <path id="Trazado_6397" data-name="Trazado 6397" stroke="#ffaa74" d="M710.743,411.428a2.532,2.532,0,0,0,.341-1.1c-.016-.491.743-6.506.783-7.19a3.851,3.851,0,0,0-1.033-3" fill="#ffc59a" transform="translate(-688.386 -396.464)" stroke-linecap="round" stroke-linejoin="round" stroke-width="0.709" fill-rule="evenodd"/>
          <path id="Trazado_6398" data-name="Trazado 6398" stroke="#ffaa74" d="M709.943,412.033a3.41,3.41,0,0,0,.438-1.784c-.3-2.318.3-4.785-.979-6.759s-3.947-5.227-4.656-5.391" fill="#ffc59a" transform="translate(-693.206 -398.099)" stroke-linecap="round" stroke-linejoin="round" stroke-width="0.709" fill-rule="evenodd"/>
          <path id="Trazado_6399" data-name="Trazado 6399" stroke="#ffaa74" d="M706.478,409.833a1.565,1.565,0,0,0,.123-1.91c-.691-1.025-1-3.618-1.627-4.742s-2.164-4.051-4.533-4.351" fill="#ffc59a" transform="translate(-696.666 -397.511)" stroke-linecap="round" stroke-linejoin="round" stroke-width="0.709" fill-rule="evenodd"/>
          <path id="Trazado_6400" data-name="Trazado 6400" stroke="#ffaa74" d="M700.549,405.026a4.381,4.381,0,0,1-.792-2.944" fill="#ffc59a" transform="translate(-697.249 -394.898)" stroke-linecap="round" stroke-linejoin="round" stroke-width="0.709" fill-rule="evenodd"/>
          <path id="Trazado_6401" data-name="Trazado 6401" stroke="#ffaa74" d="M700.877,403.092a10.166,10.166,0,0,0-2.529-.853" fill="#ffc59a" transform="translate(-698.348 -394.771)" stroke-linecap="round" stroke-linejoin="round" stroke-width="0.709" fill-rule="evenodd"/>
        </g>
      </g>
      <g id="Grupo_1761" data-name="Grupo 1761">
        <path id="Trazado_6402" data-name="Trazado 6402" d="M609.253,413.483a3.148,3.148,0,0,1-1.908.366c-.895-.2-1.438-1.784-1.712-3.4s-.435-5.231-.561-5.77.4-1.955,4.091-2.491c0,0,4.964-3.813,5.734-4.255a5.842,5.842,0,0,1,5.175.586s4.042-.83,5.3-.538a5.7,5.7,0,0,1,2.466,1.856,22.222,22.222,0,0,1,4.731.195c1.867.359,4.679,8.615,4.679,8.615h-8.937c-.761,0-3.007,4.664-6.512,2.193-1.546,1.724-4.365,4.488-6.925,1.613C614.3,416.053,609.669,414.468,609.253,413.483Z" transform="translate(-605.055 -397.577)" fill="#ffc59a" fill-rule="evenodd"/>
        <g id="Grupo_1760" data-name="Grupo 1760" transform="translate(3.071 0.942)">
          <path id="Trazado_6403" data-name="Trazado 6403" stroke="#ffaa74" d="M607.884,411.428a2.559,2.559,0,0,1-.341-1.1c.018-.491-.743-6.506-.781-7.19a3.862,3.862,0,0,1,1.032-3" fill="#ffc59a" transform="translate(-606.757 -396.464)" stroke-linecap="round" stroke-linejoin="round" stroke-width="0.709" fill-rule="evenodd"/>
          <path id="Trazado_6404" data-name="Trazado 6404" stroke="#ffaa74" d="M610.7,412.033a3.41,3.41,0,0,1-.438-1.784c.3-2.318-.294-4.785.979-6.759s3.947-5.227,4.657-5.391" fill="#ffc59a" transform="translate(-603.952 -398.099)" stroke-linecap="round" stroke-linejoin="round" stroke-width="0.709" fill-rule="evenodd"/>
          <path id="Trazado_6405" data-name="Trazado 6405" stroke="#ffaa74" d="M614.516,409.833a1.565,1.565,0,0,1-.123-1.91c.694-1.025,1.008-3.618,1.627-4.742s2.166-4.051,4.535-4.351" fill="#ffc59a" transform="translate(-600.844 -397.511)" stroke-linecap="round" stroke-linejoin="round" stroke-width="0.709" fill-rule="evenodd"/>
          <path id="Trazado_6406" data-name="Trazado 6406" stroke="#ffaa74" d="M617.947,405.026a4.381,4.381,0,0,0,.792-2.944" fill="#ffc59a" transform="translate(-597.763 -394.898)" stroke-linecap="round" stroke-linejoin="round" stroke-width="0.709" fill-rule="evenodd"/>
          <path id="Trazado_6407" data-name="Trazado 6407" stroke="#ffaa74" d="M618.375,403.092a10.162,10.162,0,0,1,2.531-.853" fill="#ffc59a" transform="translate(-597.42 -394.771)" stroke-linecap="round" stroke-linejoin="round" stroke-width="0.709" fill-rule="evenodd"/>
        </g>
      </g>
    </g>
    <path id="Trazado_6306" data-name="Trazado 6306" d="M23.3,19.9A12.746,12.746,0,1,1,19.9,2.2,12.745,12.745,0,0,1,23.3,19.9Z" transform="translate(236.743 398.735) rotate(-34)" fill="#fff" opacity="0.33"/>
    <path id="Trazado_6307" data-name="Trazado 6307" d="M23.3,19.9A12.746,12.746,0,1,1,19.9,2.2,12.745,12.745,0,0,1,23.3,19.9Z" transform="translate(252.742 399.536) rotate(-34)" fill="#fff" opacity="0.16"/>
    <path id="Trazado_6318" data-name="Trazado 6318" d="M63.191,35.993,12.067,1.332A7.729,7.729,0,1,0,3.393,14.126L54.517,48.788a7.729,7.729,0,0,0,8.674-12.794Z" transform="translate(92.167 476.146) rotate(-34)" fill="#fff" opacity="0.16"/>
    <rect id="Rectángulo_2103" data-name="Rectángulo 2103" width="37.037" height="11.213" rx="5.607" transform="translate(95 444.247) rotate(-0.193)" fill="#fff" opacity="0.33"/>
    <rect id="Rectángulo_2113" data-name="Rectángulo 2113" width="37.037" height="11.213" rx="5.607" transform="translate(144 444.247) rotate(-0.193)" fill="#fff" opacity="0.16"/>
    <rect id="Rectángulo_2114" data-name="Rectángulo 2114" width="37.037" height="11.213" rx="5.607" transform="translate(194 444.247) rotate(-0.193)" fill="#fff" opacity="0.33"/>
    <rect id="Rectángulo_2115" data-name="Rectángulo 2115" width="37.037" height="11.213" rx="5.607" transform="translate(243 444.247) rotate(-0.193)" fill="#fff" opacity="0.16"/>
    <rect id="Rectángulo_2112" data-name="Rectángulo 2112" width="23.037" height="19.213" rx="5" transform="translate(95 392.247) rotate(-0.193)" fill="#fff" opacity="0.33"/>
    <path id="Trazado_6372" data-name="Trazado 6372" d="M666.365,356.8h0a16.771,16.771,0,0,1,16.722,16.721v13.584a16.771,16.771,0,0,1-16.722,16.721h0a16.77,16.77,0,0,1-16.723-16.721V373.523A16.77,16.77,0,0,1,666.365,356.8Z" transform="translate(-479.094 -53.107)" fill="#f8b583" fill-rule="evenodd"/>
    <path id="Trazado_6373" data-name="Trazado 6373" d="M682.228,363.645c.556,1.659.859-1.107.859.733V382.5a14.121,14.121,0,0,1-.18,3.625,19.552,19.552,0,0,1-1.25,3.5,54.71,54.71,0,0,1-15.562-4.125,97.46,97.46,0,0,1-16.453-9.874v-6.71a16.524,16.524,0,0,1,1.279-6.389C656.677,362.512,671.718,362.97,682.228,363.645Z" transform="translate(-479.094 -48.503)" fill="#f49b63" fill-rule="evenodd"/>
    <g id="Grupo_1754" data-name="Grupo 1754" transform="translate(147.394 280.814)">
      <path id="Trazado_6382" data-name="Trazado 6382" d="M641.208,348.424c-.209.06-.415.123-.619.2l-.005,0,0,0a8.6,8.6,0,0,0-5.709,9.138,8.736,8.736,0,0,0,9.768,7.495,8.565,8.565,0,0,0,3.429-15.931c.582,2.486.628,5.655-2.6,6.425l-.617-4.928A3.015,3.015,0,0,0,641.208,348.424Z" transform="translate(-635.127 -339.694)" fill="#f49b63" fill-rule="evenodd"/>
      <path id="Trazado_6383" data-name="Trazado 6383" d="M676.194,343.562c.215,0,.426,0,.639.016l.007,0-.007.152a8.473,8.473,0,0,1,7.933,7.063,8.608,8.608,0,1,1-14.8-4.495c.141,2.549.983,5.606,4.239,5.46l-.79-4.9A2.955,2.955,0,0,1,676.194,343.562Z" transform="translate(-615.604 -342.562)" fill="#f49b63" fill-rule="evenodd"/>
    </g>
    <path id="Trazado_6384" data-name="Trazado 6384" d="M663.278,322.514h0a29.554,29.554,0,0,0-25.032,33.317l3.768,26.533a29.551,29.551,0,0,0,33.315,25.03h0a29.55,29.55,0,0,0,25.031-33.313l-3.768-26.535A29.551,29.551,0,0,0,663.278,322.514Z" transform="translate(-488.49 -77.9)" fill="#f8b583" fill-rule="evenodd"/>
    <g id="Grupo_1756" data-name="Grupo 1756" transform="translate(160.248 279.736)">
      <path id="Trazado_6387" data-name="Trazado 6387" d="M645.571,347.8a1.045,1.045,0,1,1-1.19-1.717,9.783,9.783,0,0,1,9.114-1.257,1.046,1.046,0,1,1-.81,1.928A7.674,7.674,0,0,0,645.571,347.8Z" transform="translate(-643.932 -339.971)" fill="#2e2450" fill-rule="evenodd"/>
      <path id="Trazado_6388" data-name="Trazado 6388" d="M669.425,344.4a7.666,7.666,0,0,0-7.127.972,1.046,1.046,0,0,1-1.317-1.627,9.794,9.794,0,0,1,9.1-1.331,1.046,1.046,0,0,1-.658,1.986Z" transform="translate(-630.539 -341.855)" fill="#2e2450" fill-rule="evenodd"/>
    </g>
    <g id="Grupo_1757" data-name="Grupo 1757" transform="translate(162.629 288.268)">
      <path id="Trazado_6389" data-name="Trazado 6389" d="M668.864,351.027a2.727,2.727,0,0,0-5.4.768,1.048,1.048,0,1,1-2.076.294,4.825,4.825,0,1,1,9.554-1.356,1.049,1.049,0,1,1-2.078.294Z" transform="translate(-632.322 -346.586)" fill="#2e2450" fill-rule="evenodd"/>
      <path id="Trazado_6390" data-name="Trazado 6390" d="M652.776,353.311a2.727,2.727,0,0,0-5.4.768,1.048,1.048,0,1,1-2.074.3,4.825,4.825,0,1,1,9.554-1.358,1.05,1.05,0,0,1-2.08.294Z" transform="translate(-645.252 -344.75)" fill="#2e2450" fill-rule="evenodd"/>
    </g>
    <path id="Trazado_6391" data-name="Trazado 6391" d="M642.239,377.963s4.107-2.4,3.048-9.859-.8-5.622-1.351-9.518,1.185-11.089,9.078-12.211l14.214-2.018s6.324-.9,14.219-2.017,11.566,5.307,12.119,9.2.292,2.056,1.351,9.52,5.673,8.618,5.673,8.618c-.841-5.918.631-8.5.631-8.5s-1.124-7.92-2.107-14.841-4.248-15.947-14.239-21.037-20.839-3.442-20.839-3.442-10.877,1.434-19.058,9.105-8.8,17.249-7.823,24.168,2.107,14.843,2.107,14.843S641.4,372.043,642.239,377.963Z" transform="translate(-489.412 -78.398)" fill="#202431" fill-rule="evenodd"/>
    <path id="Trazado_6392" data-name="Trazado 6392" d="M655.472,352.418s-1.209,3.721-.958,4.729,2.215.884,2.873-.124-.909-4.4-1.243-4.652S655.64,352.155,655.472,352.418Z" transform="translate(-475.206 -53.805)" fill="#ffd8bb" fill-rule="evenodd"/>
    <path id="Trazado_6395" data-name="Trazado 6395" d="M652.754,362.136a.981.981,0,1,1,1.106-1.622c1.575,1.079,4.556,1.308,7.484.893s5.725-1.465,6.935-2.938a.981.981,0,1,1,1.515,1.246c-1.54,1.874-4.822,3.167-8.176,3.644S654.755,363.5,652.754,362.136Z" transform="translate(-476.938 -49.055)" fill="#2e2450" fill-rule="evenodd"/>
    <path id="Trazado_6408" data-name="Trazado 6408" d="M634.265,340.338c6.97,12.072,30,27.118,51.862,9.016,0,0,11.845-8.4,16.165-5.134,0,0-2.39-20.484-19.122-20.446,0,0,3.03-2.659,2.175-4.766s-7.893-7.108-22.8.635c0,0-1.095-5.491-6.656-5.592-3.631-.067-12.006-.383-17.38,6.224-2.312,2.839,2.78-14.449,1.063-17.957a6.287,6.287,0,0,0-1.923-.37S627.3,328.266,634.265,340.338Z" transform="matrix(-0.966, 0.259, -0.259, -0.966, 905.882, 409.438)" fill="#202431" fill-rule="evenodd"/>
  </g>
</svg>
