<svg xmlns="http://www.w3.org/2000/svg" xmlns:xlink="http://www.w3.org/1999/xlink" width="784.051" height="810.827" viewBox="0 0 784.051 810.827">
  <defs>
    <linearGradient id="linear-gradient" x1="0.572" y1="-0.057" x2="0.07" y2="2.227" gradientUnits="objectBoundingBox">
      <stop offset="0" stop-color="#824eff"/>
      <stop offset="1" stop-color="#3a00ff"/>
    </linearGradient>
    <linearGradient id="linear-gradient-3" x1="0.212" y1="-0.128" x2="1.536" y2="1.849" xlink:href="#linear-gradient"/>
    <linearGradient id="linear-gradient-4" x1="0.568" y1="-0.326" x2="0.858" y2="1.131" gradientUnits="objectBoundingBox">
      <stop offset="0" stop-color="#8ba2ff"/>
      <stop offset="1" stop-color="#ffb300"/>
    </linearGradient>
    <linearGradient id="linear-gradient-6" x1="1.527" y1="2.819" x2="0.285" y2="0.24" gradientUnits="objectBoundingBox">
      <stop offset="0" stop-color="#f0d"/>
      <stop offset="1" stop-color="#ffda48"/>
    </linearGradient>
    <linearGradient id="linear-gradient-7" x1="1.463" y1="2.245" x2="0.5" y2="0.176" xlink:href="#linear-gradient-6"/>
  </defs>
  <g id="Grupo_2035" data-name="Grupo 2035" transform="translate(197.563 -81.509)">
    <g id="Grupo_1792" data-name="Grupo 1792" transform="translate(-2981.719 489.409) rotate(-17)" opacity="0.2">
      <g id="Grupo_1776" data-name="Grupo 1776" transform="translate(2896.827 690.728)" opacity="0.18">
        <g id="Grupo_1775" data-name="Grupo 1775" transform="translate(0 0)">
          <g id="Grupo_1774" data-name="Grupo 1774">
            <g id="Grupo_1773" data-name="Grupo 1773">
              <path id="Trazado_6423" data-name="Trazado 6423" d="M3192.373,957.241c14-16.784,23.685-40.035,23.4-62.161-.292-22.953-8.555-44.214-4.615-67.76,2.252-13.463,7.488-26.424,8.267-40.052,3.684-64.394-98.578-120.27-140.093-60.042-2.845,4.129-5.208,8.7-8.961,12.024A20.482,20.482,0,0,1,3052.9,743.9c-9.863-2.052-18.138-9.785-27.7-13.143a92.838,92.838,0,0,0-26.9-5.114,104.174,104.174,0,0,0-52.66,12.152c-32.108,17-52.959,50.516-48.111,87.339,2.87,21.791,14.921,41.3,28.583,58.514,26.129,32.932,59.137,60.184,95.644,81.029,29.5,16.842,62.469,29.794,96.419,28.683A100.579,100.579,0,0,0,3192.373,957.241Z" transform="translate(-2896.827 -701.463)" fill="#8191fb"/>
            </g>
          </g>
        </g>
      </g>
      <g id="Grupo_1780" data-name="Grupo 1780" transform="translate(2899.69 693.405)" opacity="0.47">
        <g id="Grupo_1779" data-name="Grupo 1779" transform="translate(0 0)">
          <g id="Grupo_1778" data-name="Grupo 1778">
            <g id="Grupo_1777" data-name="Grupo 1777">
              <path id="Trazado_6424" data-name="Trazado 6424" d="M3215.638,893.736c3.684-20.025.911-43.328-9.439-61.157-10.736-18.5-27.168-31.972-34.741-52.884-4.33-11.957-6.01-24.871-11.61-36.289-26.465-53.948-135.022-52.521-141.166,15.351-.421,4.653-.249,9.443-1.774,13.858a19.082,19.082,0,0,1-12.053,11.762c-8.944,2.846-19.2.355-28.5,2a86.483,86.483,0,0,0-24.175,8.156A97.049,97.049,0,0,0,2915,828.49c-18.283,28.486-19.876,65.224.9,92.892,12.3,16.374,31,26.691,49.964,34.417,36.271,14.777,75.526,21.8,114.691,22.015,31.645.176,64.33-4.393,91.375-20.825A93.7,93.7,0,0,0,3215.638,893.736Z" transform="translate(-2900.804 -705.183)" fill="#8191fb"/>
            </g>
          </g>
        </g>
      </g>
      <g id="Grupo_1781" data-name="Grupo 1781" transform="translate(2902.648 944.467)" opacity="0.22">
        <path id="Trazado_6425" data-name="Trazado 6425" d="M2905.023,1072.775c-1.28,11.844,8.909,22.659,22.76,24.156s35.739-5.85,37.019-17.694-20.349-14.828-31.858-21.86C2916.893,1047.569,2906.3,1060.931,2905.023,1072.775Z" transform="translate(-2904.915 -1053.977)" fill="#8191fb"/>
      </g>
      <g id="Grupo_1785" data-name="Grupo 1785" transform="translate(2972.05 747.112)" opacity="0.47">
        <g id="Grupo_1784" data-name="Grupo 1784">
          <g id="Grupo_1783" data-name="Grupo 1783">
            <g id="Grupo_1782" data-name="Grupo 1782">
              <path id="Trazado_6426" data-name="Trazado 6426" d="M3207.853,903.481c2.417-13.136.6-28.422-6.191-40.117-7.043-12.133-17.822-20.973-22.789-34.69-2.841-7.844-3.943-16.315-7.616-23.8-17.361-35.388-88.571-34.453-92.6,10.069-.276,3.052-.163,6.194-1.164,9.091a12.517,12.517,0,0,1-7.907,7.716c-5.867,1.866-12.592.232-18.692,1.314a56.765,56.765,0,0,0-15.859,5.35,63.668,63.668,0,0,0-24.389,22.271c-11.993,18.686-13.037,42.785.593,60.935,8.066,10.74,20.335,17.508,32.775,22.576,23.792,9.693,49.542,14.3,75.233,14.441,20.758.116,42.2-2.882,59.939-13.66A61.465,61.465,0,0,0,3207.853,903.481Z" transform="translate(-3001.332 -779.795)" fill="#8191fb"/>
            </g>
          </g>
        </g>
      </g>
      <g id="Grupo_1786" data-name="Grupo 1786" transform="translate(3192.717 755.692)" opacity="0.31">
        <path id="Trazado_6427" data-name="Trazado 6427" d="M3316.8,797.442a4.529,4.529,0,1,1-3.171-5.564A4.529,4.529,0,0,1,3316.8,797.442Z" transform="translate(-3307.901 -791.716)" fill="#8191fb"/>
      </g>
      <g id="Grupo_1787" data-name="Grupo 1787" transform="translate(2992.761 663.152)" opacity="0.31">
        <circle id="Elipse_169" data-name="Elipse 169" cx="16.013" cy="16.013" r="16.013" transform="matrix(0.438, -0.899, 0.899, 0.438, 0, 28.782)" fill="#8191fb"/>
      </g>
      <g id="Grupo_1788" data-name="Grupo 1788" transform="translate(3215.598 819.205)" opacity="0.31">
        <path id="Trazado_6428" data-name="Trazado 6428" d="M3349.562,885.785a4.974,4.974,0,1,1-4.043-5.756A4.974,4.974,0,0,1,3349.562,885.785Z" transform="translate(-3339.688 -879.954)" fill="#8191fb"/>
      </g>
      <g id="Grupo_1789" data-name="Grupo 1789" transform="translate(3205.371 679.589)" opacity="0.31">
        <path id="Trazado_6429" data-name="Trazado 6429" d="M3335.354,691.82a4.974,4.974,0,1,1-4.043-5.756A4.975,4.975,0,0,1,3335.354,691.82Z" transform="translate(-3325.48 -685.989)" fill="#8191fb"/>
      </g>
      <g id="Grupo_1790" data-name="Grupo 1790" transform="translate(2917.245 779.676)" opacity="0.31">
        <path id="Trazado_6430" data-name="Trazado 6430" d="M2931.066,828.5a2.959,2.959,0,1,1-2.4-3.424A2.958,2.958,0,0,1,2931.066,828.5Z" transform="translate(-2925.193 -825.036)" fill="#8191fb"/>
      </g>
    </g>
    <path id="Trazado_6296" data-name="Trazado 6296" d="M6.051,33.69s93.07-25.7,116.438-30.722,73.125-2.636,82.445-.384S173.984,72.9,161.96,84.638,129.1,107.105,97.841,97.212s-82.686,6.661-82.686,6.661S-11.663,65.818,6.051,33.69Z" transform="translate(41.069 422.445) rotate(-34)" fill="#f8b583"/>
    <path id="Trazado_6297" data-name="Trazado 6297" d="M50.739,0,41.751.961S27.417,23.747,6.924,29.114C-4.847,32.2.473,44.88,7.55,55.553c16.936-3.424,39.954-6.237,57.487-1.494L76.588,37.02,72.171,12.855Z" transform="translate(90.22 440.587) rotate(-34)" fill="#f8b583" opacity="0.5" style="mix-blend-mode: multiply;isolation: isolate"/>
    <path id="Trazado_6436" data-name="Trazado 6436" d="M50.739,0,41.751.961S27.417,23.747,6.924,29.114C-4.847,32.2.473,44.88,7.55,55.553c16.936-3.424,39.954-6.237,57.487-1.494L76.588,37.02,72.171,12.855Z" transform="translate(93.22 455.587) rotate(-34)" fill="#f8b583" opacity="0.5" style="mix-blend-mode: multiply;isolation: isolate"/>
    <path id="Trazado_6298" data-name="Trazado 6298" d="M199.93,89.493a14.9,14.9,0,0,1-7.2,14.721C183.859,109.737,7.328,149.4,7.328,149.4s-28.9-55.947,4.57-120.445c0,0,145.479-27.387,154.248-28.8s15.2,6.978,15.2,6.978S187.908,71.467,199.93,89.493Z" transform="translate(-90.618 536.239) rotate(-34)" fill="#ffae32"/>
    <path id="Trazado_6299" data-name="Trazado 6299" d="M159.215,19.19C148.477,24.387,25.922,49.519,0,54.628a134.477,134.477,0,0,1,2.837,50.481s178.032-40.1,186.905-45.622a14.9,14.9,0,0,0,7.2-14.721c-3.479-5.216-6.5-14.316-9.036-24.6L172.226,0S171.309,13.336,159.215,19.19Z" transform="translate(-63.128 571.647) rotate(-34)" fill="#ffae32" opacity="0.5" style="mix-blend-mode: multiply;isolation: isolate"/>
    <path id="Trazado_6434" data-name="Trazado 6434" d="M159.215,19.19C148.477,24.387,25.922,49.519,0,54.628a134.477,134.477,0,0,1,2.837,50.481s178.032-40.1,186.905-45.622a14.9,14.9,0,0,0,7.2-14.721c-3.479-5.216-6.5-14.316-9.036-24.6L172.226,0S171.309,13.336,159.215,19.19Z" transform="translate(-60.128 586.647) rotate(-34)" fill="#ffae32" opacity="0.5" style="mix-blend-mode: multiply;isolation: isolate"/>
    <path id="Trazado_6300" data-name="Trazado 6300" d="M214.355,57,133.79,2.383a13.824,13.824,0,0,0-19.2,3.685L2.383,171.571a13.825,13.825,0,0,0,3.685,19.2l80.565,54.622a13.824,13.824,0,0,0,19.2-3.686L218.04,76.205A13.824,13.824,0,0,0,214.355,57Z" transform="translate(32.29 310.203) rotate(-34)" fill="url(#linear-gradient)"/>
    <path id="Trazado_6437" data-name="Trazado 6437" d="M214.355,57,133.79,2.383a13.824,13.824,0,0,0-19.2,3.685L2.383,171.571a13.825,13.825,0,0,0,3.685,19.2l80.565,54.622a13.824,13.824,0,0,0,19.2-3.686L218.04,76.205A13.824,13.824,0,0,0,214.355,57Z" transform="translate(32.29 342.203) rotate(-34)" opacity="0.33" fill="url(#linear-gradient)"/>
    <path id="Trazado_6301" data-name="Trazado 6301" d="M187.271,52.421l-17.7-12a3.627,3.627,0,0,0-5.038.967h0a3.627,3.627,0,0,1-5.038.967l-27.16-18.414a3.628,3.628,0,0,1-.967-5.038h0a3.628,3.628,0,0,0-.967-5.038l-17.7-12a10.952,10.952,0,0,0-15.167,2.91L1.87,145.9a10.953,10.953,0,0,0,2.911,15.166l74.56,50.55A10.952,10.952,0,0,0,94.508,208.7L190.181,67.587A10.952,10.952,0,0,0,187.271,52.421Z" transform="translate(53.665 305.381) rotate(-34)" fill="#fffdfa"/>
    <path id="Trazado_6302" data-name="Trazado 6302" d="M20.213,12.255,2.552.282A1.634,1.634,0,1,0,.718,2.987L18.378,14.961a1.634,1.634,0,0,0,1.834-2.705Z" transform="translate(180.249 245.911) rotate(-34)" fill="#fffdfa"/>
    <path id="Trazado_6303" data-name="Trazado 6303" d="M15.348,13.11A8.4,8.4,0,1,1,13.11,1.448,8.4,8.4,0,0,1,15.348,13.11Z" transform="translate(181.042 448.356) rotate(-34)" fill="#fffdfa" opacity="0.14"/>
    <path id="Trazado_6304" data-name="Trazado 6304" d="M18.042,8.641,6.327.7A4.052,4.052,0,1,0,1.778,7.407L13.494,15.35a4.052,4.052,0,1,0,4.548-6.708Z" transform="translate(142.998 265.132) rotate(-34)" fill="#f1f1f3"/>
    <path id="Trazado_6305" data-name="Trazado 6305" d="M33.133,18.872,6.327.7A4.052,4.052,0,0,0,1.779,7.407L28.585,25.581a4.052,4.052,0,0,0,4.548-6.708Z" transform="translate(202.027 265.273) rotate(-34)" fill="#f1f1f3"/>
    <rect id="Rectángulo_2102" data-name="Rectángulo 2102" width="93.828" height="57.515" rx="9.874" transform="translate(146.137 282.341) rotate(0.136)" fill="url(#linear-gradient-3)"/>
    <path id="Trazado_6306" data-name="Trazado 6306" d="M12.215,10.434a6.683,6.683,0,1,1-1.781-9.282A6.682,6.682,0,0,1,12.215,10.434Z" transform="translate(208.143 293.474) rotate(-34)" fill="#fff" opacity="0.26"/>
    <path id="Trazado_6307" data-name="Trazado 6307" d="M12.215,10.434a6.683,6.683,0,1,1-1.781-9.282A6.682,6.682,0,0,1,12.215,10.434Z" transform="translate(216.531 293.474) rotate(-34)" fill="#fff" opacity="0.26"/>
    <path id="Trazado_6308" data-name="Trazado 6308" d="M28.357,0S35.731,9.474,34.9,16.745,21.939,32.567,11.222,34.624.6,34.884.1,33.425.721,23.147,8.546,18.756c4.3-1.935,11.588-7.177,11.588-7.177Z" transform="translate(232.079 295.767) rotate(-34)" fill="#f8b583"/>
    <path id="Trazado_6309" data-name="Trazado 6309" d="M23.515,0s6.115,7.856,5.429,13.885S18.193,27.006,9.305,28.711s-8.8.216-9.221-.994.513-8.523,7-12.164A77.868,77.868,0,0,0,16.7,9.6Z" transform="translate(236.56 393.117) rotate(-34)" fill="#f8b583"/>
    <path id="Trazado_6310" data-name="Trazado 6310" d="M11.565,5.207A43.506,43.506,0,0,0,8.223,0L0,11.579l3.559-.542S4.074,4.225,11.565,5.207Z" transform="translate(248.771 284.508) rotate(-34)" fill="#f8b583" opacity="0.5" style="mix-blend-mode: multiply;isolation: isolate"/>
    <path id="Trazado_6311" data-name="Trazado 6311" d="M13.835,0,7.016,9.6S3.317,12.258,0,14.185a31.7,31.7,0,0,0,19.283-.736C19.645,7.484,13.835,0,13.835,0Z" transform="translate(244.585 387.704) rotate(-34)" fill="#f8b583" opacity="0.5" style="mix-blend-mode: multiply;isolation: isolate"/>
    <path id="Trazado_6312" data-name="Trazado 6312" d="M28.357,0S35.731,9.474,34.9,16.745,21.939,32.567,11.222,34.624.6,34.884.1,33.424.721,23.147,8.546,18.756c4.3-1.935,11.588-7.177,11.588-7.177Z" transform="translate(231.907 367.946) rotate(-34)" fill="#f8b583"/>
    <path id="Trazado_6313" data-name="Trazado 6313" d="M13.972,0c-.33.113-.659.23-.988.348L5.37,11.069S2.905,12.839,0,14.7c0,0,13.407,3.491,20.15,1.307C20.715,9.764,15.439,2.016,13.972,0Z" transform="translate(244.432 360.113) rotate(-34)" fill="#f8b583" opacity="0.5" style="mix-blend-mode: multiply;isolation: isolate"/>
    <path id="Trazado_6314" data-name="Trazado 6314" d="M28.357,0S35.731,9.474,34.9,16.745,21.94,32.567,11.222,34.624.6,34.884.1,33.425.721,23.147,8.546,18.756c4.3-1.935,11.588-7.177,11.588-7.177Z" transform="translate(231.973 340.069) rotate(-34)" fill="#f8b583"/>
    <path id="Trazado_6315" data-name="Trazado 6315" d="M11.317,4.76A43,43,0,0,0,8.223,0L0,11.579l3.918-.264S4.2,5.05,11.317,4.76Z" transform="translate(248.665 328.811) rotate(-34)" fill="#f8b583" opacity="0.5" style="mix-blend-mode: multiply;isolation: isolate"/>
    <path id="Trazado_6316" data-name="Trazado 6316" d="M44.791,2.668a59.006,59.006,0,0,0-6.554,38.615C42.4,66.113,55.692,74.7,55.692,74.7s1.32,5.284-8.243,8.476-22.216,6.7-22.216,6.7S-12.629,63.66,4.4,9.12C11.214,2.641,42.757-3.763,44.791,2.668Z" transform="translate(53.996 438.231) rotate(-34)" fill="#ff9b40"/>
    <path id="Trazado_6317" data-name="Trazado 6317" d="M55.173,29.588S44.983,23.006,39.655,4.709C39.56,4.788,21.871,19.561,0,0,3.591,30.134,24.714,44.766,24.714,44.766s12.652-3.509,22.216-6.7S55.173,29.588,55.173,29.588Z" transform="translate(79.653 475.34) rotate(-34)" fill="#ff921e" opacity="0.5" style="mix-blend-mode: multiply;isolation: isolate"/>
    <path id="Trazado_6435" data-name="Trazado 6435" d="M55.173,29.588S44.983,23.006,39.655,4.709C39.56,4.788,21.871,19.561,0,0,3.591,30.134,24.714,44.766,24.714,44.766s12.652-3.509,22.216-6.7S55.173,29.588,55.173,29.588Z" transform="translate(82.653 490.34) rotate(-34)" fill="#ff921e" opacity="0.5" style="mix-blend-mode: multiply;isolation: isolate"/>
    <path id="Trazado_6318" data-name="Trazado 6318" d="M23.768,13.538,4.539.5A2.907,2.907,0,0,0,1.276,5.313L20.505,18.351a2.907,2.907,0,0,0,3.263-4.812Z" transform="translate(154.38 327.907) rotate(-34)" fill="#fff" opacity="0.26"/>
    <g id="Grupo_1793" data-name="Grupo 1793" transform="translate(4.148 22.457)">
      <rect id="Rectángulo_2103" data-name="Rectángulo 2103" width="13.364" height="4.974" rx="2.487" transform="translate(152.852 290.422) rotate(-0.193)" fill="#fff" opacity="0.26"/>
      <rect id="Rectángulo_2116" data-name="Rectángulo 2116" width="13.364" height="4.974" rx="2.487" transform="translate(172.852 290.422) rotate(-0.193)" fill="#fff" opacity="0.26"/>
      <rect id="Rectángulo_2117" data-name="Rectángulo 2117" width="13.364" height="4.974" rx="2.487" transform="translate(212.852 290.422) rotate(-0.193)" fill="#fff" opacity="0.26"/>
      <rect id="Rectángulo_2118" data-name="Rectángulo 2118" width="13.364" height="4.974" rx="2.487" transform="translate(192.852 290.422) rotate(-0.193)" fill="#fff" opacity="0.26"/>
    </g>
    <ellipse id="Elipse_164" data-name="Elipse 164" cx="6.299" cy="6.299" rx="6.299" ry="6.299" transform="translate(143.234 419.142) rotate(-34)" fill="#f1f1f3"/>
    <ellipse id="Elipse_165" data-name="Elipse 165" cx="6.299" cy="6.299" rx="6.299" ry="6.299" transform="translate(162.761 419.164) rotate(-34)" fill="#f1f1f3"/>
    <ellipse id="Elipse_166" data-name="Elipse 166" cx="6.299" cy="6.299" rx="6.299" ry="6.299" transform="translate(182.289 419.185) rotate(-34)" fill="#f1f1f3"/>
    <ellipse id="Elipse_167" data-name="Elipse 167" cx="6.299" cy="6.299" rx="6.299" ry="6.299" transform="translate(201.817 419.207) rotate(-34)" fill="#f1f1f3"/>
    <ellipse id="Elipse_168" data-name="Elipse 168" cx="6.299" cy="6.299" rx="6.299" ry="6.299" transform="translate(220.505 421.748) rotate(-34)" fill="#59cfef"/>
    <path id="Trazado_6321" data-name="Trazado 6321" d="M97.666,11.187C93.365,1.337,85.815,0,85.815,0L8.838,1.278A19.9,19.9,0,0,0,.281,13.9c-1.8,8.721,5.6,189.907,5.6,189.907,50.378,29.637,106.836-11.922,106.836-11.922S101.968,21.039,97.666,11.187Z" transform="translate(297.233 564.199) rotate(-34)" fill="#ffae32"/>
    <path id="Trazado_6322" data-name="Trazado 6322" d="M41.25,213.539c-4.177-13.88-17.132-110.3-18.524-144-2-48.382,20.648-57.652,20.648-57.652C43.289,9.391,40.918,5.179,37.116,0L8.838.469A19.9,19.9,0,0,0,.281,13.091C-1.515,21.811,5.883,203,5.883,203A76.786,76.786,0,0,0,41.25,213.539Z" transform="translate(297.685 564.87) rotate(-34)" fill="#ffae32" opacity="0.5" style="mix-blend-mode: multiply;isolation: isolate"/>
    <path id="Trazado_6432" data-name="Trazado 6432" d="M41.25,213.539c-4.177-13.88-17.132-110.3-18.524-144-2-48.382,20.648-57.652,20.648-57.652C43.289,9.391,40.918,5.179,37.116,0L8.838.469A19.9,19.9,0,0,0,.281,13.091C-1.515,21.811,5.883,203,5.883,203A76.786,76.786,0,0,0,41.25,213.539Z" transform="translate(293.685 577.87) rotate(-34)" fill="#ffae32" opacity="0.5" style="mix-blend-mode: multiply;isolation: isolate"/>
    <path id="Trazado_6433" data-name="Trazado 6433" d="M65.458,91.518C59.016,84.207,53.145,74.893,52.125,63.64s-4.691-14.4-21.972-23.478C13.178,30.633.656,0,.656,0h0C.205,4.95,0,8.454,0,8.454c-.269,16.971,19.01,43.08,35.4,54.068,2.872,7.38,4.761,38.356,5.4,50.451C52.968,114.618,71.46,98.331,65.458,91.518Z" transform="translate(204.267 488.554) rotate(-34)" fill="#f8b583" opacity="0.5" style="mix-blend-mode: multiply;isolation: isolate"/>
    <path id="Trazado_6431" data-name="Trazado 6431" d="M24.316,5.513l-.024-.01C11.872,3.578,6.146.02,6.146.02S2.214-.8.615,8.179s.424,27.335.424,27.335A81.154,81.154,0,0,0,28.445,45.985C10.435,28.2,24.316,5.513,24.316,5.513Z" transform="translate(280.553 554.455) rotate(-34)" fill="#ff7a24" opacity="0.5" style="mix-blend-mode: multiply;isolation: isolate"/>
    <path id="Trazado_6440" data-name="Trazado 6440" d="M4805.847,694.535l.735.165a1.719,1.719,0,0,1,0,3.354l-.735.167a15.586,15.586,0,0,0-11.784,11.784l-.167.735a1.719,1.719,0,0,1-3.354,0l-.165-.735a15.587,15.587,0,0,0-11.785-11.784l-.735-.167a1.719,1.719,0,0,1,0-3.354l.735-.165a15.59,15.59,0,0,0,11.785-11.784l.165-.735a1.719,1.719,0,0,1,3.354,0l.167.735A15.589,15.589,0,0,0,4805.847,694.535Z" transform="translate(-4514.479 -471.202)" fill="url(#linear-gradient-4)"/>
    <path id="Trazado_6439" data-name="Trazado 6439" d="M4805.847,694.535l.735.165a1.719,1.719,0,0,1,0,3.354l-.735.167a15.586,15.586,0,0,0-11.784,11.784l-.167.735a1.719,1.719,0,0,1-3.354,0l-.165-.735a15.587,15.587,0,0,0-11.785-11.784l-.735-.167a1.719,1.719,0,0,1,0-3.354l.735-.165a15.59,15.59,0,0,0,11.785-11.784l.165-.735a1.719,1.719,0,0,1,3.354,0l.167.735A15.589,15.589,0,0,0,4805.847,694.535Z" transform="translate(-4712.479 -387.202)" fill="url(#linear-gradient-4)"/>
    <rect id="Rectángulo_2119" data-name="Rectángulo 2119" width="10" height="10" rx="3" transform="translate(154 291)" fill="#fff" opacity="0.33"/>
    <path id="Trazado_6319" data-name="Trazado 6319" d="M3.07,61.977S20.279,32.039,35.138,26.964,73.609,13.373,93.761,2.54s3.628,16.091-5.233,22.814S65.582,36.36,62.268,48.386c-5.521,20.034-28.106,43.411-50.517,40C-2.3,86.242-1.727,72.744,3.07,61.977Z" transform="translate(66.205 351.335) rotate(-34)" fill="#f8b583"/>
    <path id="Trazado_6320" data-name="Trazado 6320" d="M61.5,0c-1.322.7-9.642,6.185-11.915,10.307C45.543,17.638,28.974,49.059,0,48.145A17.273,17.273,0,0,0,4.882,49.59c22.411,3.413,45-19.964,50.517-40C56.859,4.3,57.515,2.265,61.5,0Z" transform="translate(93.592 379.654) rotate(-34)" fill="#f8b583" opacity="0.5" style="mix-blend-mode: multiply;isolation: isolate"/>
    <path id="Trazado_6415" data-name="Trazado 6415" d="M4805.847,694.535l.735.165a1.719,1.719,0,0,1,0,3.354l-.735.167a15.586,15.586,0,0,0-11.784,11.784l-.167.735a1.719,1.719,0,0,1-3.354,0l-.165-.735a15.587,15.587,0,0,0-11.785-11.784l-.735-.167a1.719,1.719,0,0,1,0-3.354l.735-.165a15.59,15.59,0,0,0,11.785-11.784l.165-.735a1.719,1.719,0,0,1,3.354,0l.167.735A15.589,15.589,0,0,0,4805.847,694.535Z" transform="translate(-4518.479 -478.202)" fill="url(#linear-gradient-6)"/>
    <path id="Trazado_6438" data-name="Trazado 6438" d="M4805.847,694.535l.735.165a1.719,1.719,0,0,1,0,3.354l-.735.167a15.586,15.586,0,0,0-11.784,11.784l-.167.735a1.719,1.719,0,0,1-3.354,0l-.165-.735a15.587,15.587,0,0,0-11.785-11.784l-.735-.167a1.719,1.719,0,0,1,0-3.354l.735-.165a15.59,15.59,0,0,0,11.785-11.784l.165-.735a1.719,1.719,0,0,1,3.354,0l.167.735A15.589,15.589,0,0,0,4805.847,694.535Z" transform="translate(-4716.479 -394.202)" fill="url(#linear-gradient-7)"/>
    <rect id="Rectángulo_2120" data-name="Rectángulo 2120" width="89" height="17" rx="6" transform="translate(151 352)" fill="#e3e5ed" opacity="0.5"/>
    <rect id="Rectángulo_2121" data-name="Rectángulo 2121" width="89" height="17" rx="6" transform="translate(151 381)" fill="#e3e5ed" opacity="0.5"/>
    <path id="Trazado_6323" data-name="Trazado 6323" d="M105.4,201.6c5.453-14.242,22.024-57.233,21.353-66.343,0,0,1.787-15-4.867-20.68s-13.112-2.789-13.112-2.789,2.46-13.367-7.2-17.209-11.349-.307-11.349-.307.431-10.748-9.655-15.4-16.08,3.147-16.08,3.147h0c.252-6.209.394-12.637.238-17.788-.453-14.9.945-62.09-2.612-63.615C56.233-1.911,51.957,3.344,47.9,17.348S34.84,108.459,32.754,113.027C9.687,99.149,5.16,115.268,5.16,115.268,1.422,126.191,0,150.834,0,150.834c-.269,16.971,19.01,43.08,35.4,54.068,3.589,9.224,5.647,55.334,5.647,55.334s34.043,24.237,63.211.458C101.755,238.993,99.945,215.837,105.4,201.6Z" transform="translate(129.649 361.515) rotate(-34)" fill="#f8b583"/>
    <path id="Trazado_6324" data-name="Trazado 6324" d="M3.083.149A74.1,74.1,0,0,1,4.481,7.5c.156,1.243.315,2.494.36,3.771a35.232,35.232,0,0,1-.051,3.854,27.194,27.194,0,0,1-.969,7.4,26.229,26.229,0,0,1-3.014,6.97.211.211,0,0,1-.291.064.215.215,0,0,1-.092-.139A29.51,29.51,0,0,1,.1,21.864,24.407,24.407,0,0,1,.589,18.23c.257-1.193.609-2.37.873-3.55a33.018,33.018,0,0,0,.6-3.5c.128-1.183.244-2.395.318-3.611.183-2.437.243-4.9.312-7.377A.2.2,0,0,1,2.894,0,.2.2,0,0,1,3.083.149Z" transform="translate(226.479 394.918) rotate(-34)" fill="#e99a66"/>
    <path id="Trazado_6325" data-name="Trazado 6325" d="M4.83.164a71.585,71.585,0,0,1,.756,7.129,49.925,49.925,0,0,1-.113,7.255A26.723,26.723,0,0,1,4.2,21.689a23.184,23.184,0,0,1-1.516,3.287A15.121,15.121,0,0,1,.523,28.043a.217.217,0,0,1-.373-.122,25.928,25.928,0,0,1,.265-7.243,18.834,18.834,0,0,1,.892-3.388,27.66,27.66,0,0,0,1.073-3.25c.533-2.211.91-4.514,1.249-6.83.36-2.319.585-4.668.81-7.026A.2.2,0,0,1,4.65,0,.2.2,0,0,1,4.83.164Z" transform="translate(253.221 391.663) rotate(-34)" fill="#e99a66"/>
    <path id="Trazado_6326" data-name="Trazado 6326" d="M3.518.151a43.185,43.185,0,0,1,.931,6.078,49.448,49.448,0,0,1,.13,6.173c-.084,2.054.1,4.2-.626,6.172A13.77,13.77,0,0,1,.7,24.062a.22.22,0,0,1-.37-.106l0-.013a15.384,15.384,0,0,1-.317-3.192,27.249,27.249,0,0,1,.11-2.993c.134-1.957.942-3.791,1.346-5.729S2.2,8.146,2.489,6.173C2.809,4.2,3,2.2,3.129.194V.185A.2.2,0,0,1,3.518.151Z" transform="translate(279.483 395.08) rotate(-34)" fill="#e99a66"/>
    <path id="Trazado_6327" data-name="Trazado 6327" d="M9.785,29.134a5.253,5.253,0,0,0,.941-2.007,4.823,4.823,0,0,0-.182-1.75c-1.886-6.991.849-15.26-.863-22.049C8.807-.131,8.373-1.3,5.385,1.8,3.07,4.2,1.825,11.15.6,14.35A6.728,6.728,0,0,0,0,16.834a7.183,7.183,0,0,0,1.062,3c3.967,7.841,3.677,19.49,2.982,28.5C4.7,42.3,6.486,34.265,9.785,29.134Z" transform="translate(212.83 441.457) rotate(-34)" fill="#e99a66"/>
    <path id="Trazado_6328" data-name="Trazado 6328" d="M65.458,91.518C59.016,84.207,53.145,74.893,52.125,63.64s-4.691-14.4-21.972-23.478C13.178,30.633.656,0,.656,0h0C.205,4.95,0,8.454,0,8.454c-.269,16.971,19.01,43.08,35.4,54.068,2.872,7.38,4.761,38.356,5.4,50.451C52.968,114.618,71.46,98.331,65.458,91.518Z" transform="translate(209.267 479.554) rotate(-34)" fill="#f8b583" opacity="0.5" style="mix-blend-mode: multiply;isolation: isolate"/>
    <path id="Trazado_6329" data-name="Trazado 6329" d="M68.187,1S59.659,16.127,37.8,15.592,6.146,8.94,6.146,8.94,2.214,8.117.615,17.1s.424,27.335.424,27.335,40.8,27.032,76.977-1.278C78.688,31.031,75.319-6.591,68.187,1Z" transform="translate(279.565 524.06) rotate(-34)" fill="#ff9b40"/>
    <path id="Trazado_6330" data-name="Trazado 6330" d="M24.316,5.513l-.024-.01C11.872,3.578,6.146.02,6.146.02S2.214-.8.615,8.179s.424,27.335.424,27.335A81.154,81.154,0,0,0,28.445,45.985C10.435,28.2,24.316,5.513,24.316,5.513Z" transform="translate(284.553 531.455) rotate(-34)" fill="#ff7a24" opacity="0.5" style="mix-blend-mode: multiply;isolation: isolate"/>
  </g>
</svg>
