<svg xmlns="http://www.w3.org/2000/svg" xmlns:xlink="http://www.w3.org/1999/xlink" width="414.212" height="428.333" viewBox="0 0 414.212 428.333">
  <defs>
    <linearGradient id="linear-gradient" x1="3.172" y1="3.814" x2="2.248" y2="2.38" gradientUnits="objectBoundingBox">
      <stop offset="0" stop-color="#9aa7fc"/>
      <stop offset="1" stop-color="#dbdeff"/>
    </linearGradient>
    <linearGradient id="linear-gradient-2" x1="2.009" y1="3.818" x2="-0.413" y2="0.253" gradientUnits="objectBoundingBox">
      <stop offset="0" stop-color="#f0d"/>
      <stop offset="1" stop-color="#ffda48"/>
    </linearGradient>
    <linearGradient id="linear-gradient-3" x1="1.4" y1="2.85" x2="0" y2="0.144" xlink:href="#linear-gradient-2"/>
  </defs>
  <g id="Grupo_2036" data-name="Grupo 2036" transform="translate(20.198 -195.922)">
    <g id="Grupo_1792" data-name="Grupo 1792" transform="translate(-2981.719 489.409) rotate(-17)" opacity="0.2">
      <g id="Grupo_1776" data-name="Grupo 1776" transform="translate(2896.827 690.728)" opacity="0.18">
        <g id="Grupo_1775" data-name="Grupo 1775" transform="translate(0 0)">
          <g id="Grupo_1774" data-name="Grupo 1774">
            <g id="Grupo_1773" data-name="Grupo 1773">
              <path id="Trazado_6423" data-name="Trazado 6423" d="M3192.373,957.241c14-16.784,23.685-40.035,23.4-62.161-.292-22.953-8.555-44.214-4.615-67.76,2.252-13.463,7.488-26.424,8.267-40.052,3.684-64.394-98.578-120.27-140.093-60.042-2.845,4.129-5.208,8.7-8.961,12.024A20.482,20.482,0,0,1,3052.9,743.9c-9.863-2.052-18.138-9.785-27.7-13.143a92.838,92.838,0,0,0-26.9-5.114,104.174,104.174,0,0,0-52.66,12.152c-32.108,17-52.959,50.516-48.111,87.339,2.87,21.791,14.921,41.3,28.583,58.514,26.129,32.932,59.137,60.184,95.644,81.029,29.5,16.842,62.469,29.794,96.419,28.683A100.579,100.579,0,0,0,3192.373,957.241Z" transform="translate(-2896.827 -701.463)" fill="#8191fb"/>
            </g>
          </g>
        </g>
      </g>
      <g id="Grupo_1780" data-name="Grupo 1780" transform="translate(2899.69 693.405)" opacity="0.47">
        <g id="Grupo_1779" data-name="Grupo 1779" transform="translate(0 0)">
          <g id="Grupo_1778" data-name="Grupo 1778">
            <g id="Grupo_1777" data-name="Grupo 1777">
              <path id="Trazado_6424" data-name="Trazado 6424" d="M3215.638,893.736c3.684-20.025.911-43.328-9.439-61.157-10.736-18.5-27.168-31.972-34.741-52.884-4.33-11.957-6.01-24.871-11.61-36.289-26.465-53.948-135.022-52.521-141.166,15.351-.421,4.653-.249,9.443-1.774,13.858a19.082,19.082,0,0,1-12.053,11.762c-8.944,2.846-19.2.355-28.5,2a86.483,86.483,0,0,0-24.175,8.156A97.049,97.049,0,0,0,2915,828.49c-18.283,28.486-19.876,65.224.9,92.892,12.3,16.374,31,26.691,49.964,34.417,36.271,14.777,75.526,21.8,114.691,22.015,31.645.176,64.33-4.393,91.375-20.825A93.7,93.7,0,0,0,3215.638,893.736Z" transform="translate(-2900.804 -705.183)" fill="#8191fb"/>
            </g>
          </g>
        </g>
      </g>
      <g id="Grupo_1781" data-name="Grupo 1781" transform="translate(2902.648 944.467)" opacity="0.22">
        <path id="Trazado_6425" data-name="Trazado 6425" d="M2905.023,1072.775c-1.28,11.844,8.909,22.659,22.76,24.156s35.739-5.85,37.019-17.694-20.349-14.828-31.858-21.86C2916.893,1047.569,2906.3,1060.931,2905.023,1072.775Z" transform="translate(-2904.915 -1053.977)" fill="#8191fb"/>
      </g>
      <g id="Grupo_1785" data-name="Grupo 1785" transform="translate(2972.05 747.112)" opacity="0.47">
        <g id="Grupo_1784" data-name="Grupo 1784">
          <g id="Grupo_1783" data-name="Grupo 1783">
            <g id="Grupo_1782" data-name="Grupo 1782">
              <path id="Trazado_6426" data-name="Trazado 6426" d="M3207.853,903.481c2.417-13.136.6-28.422-6.191-40.117-7.043-12.133-17.822-20.973-22.789-34.69-2.841-7.844-3.943-16.315-7.616-23.8-17.361-35.388-88.571-34.453-92.6,10.069-.276,3.052-.163,6.194-1.164,9.091a12.517,12.517,0,0,1-7.907,7.716c-5.867,1.866-12.592.232-18.692,1.314a56.765,56.765,0,0,0-15.859,5.35,63.668,63.668,0,0,0-24.389,22.271c-11.993,18.686-13.037,42.785.593,60.935,8.066,10.74,20.335,17.508,32.775,22.576,23.792,9.693,49.542,14.3,75.233,14.441,20.758.116,42.2-2.882,59.939-13.66A61.465,61.465,0,0,0,3207.853,903.481Z" transform="translate(-3001.332 -779.795)" fill="#8191fb"/>
            </g>
          </g>
        </g>
      </g>
      <g id="Grupo_1786" data-name="Grupo 1786" transform="translate(3192.717 755.692)" opacity="0.31">
        <path id="Trazado_6427" data-name="Trazado 6427" d="M3316.8,797.442a4.529,4.529,0,1,1-3.171-5.564A4.529,4.529,0,0,1,3316.8,797.442Z" transform="translate(-3307.901 -791.716)" fill="#8191fb"/>
      </g>
      <g id="Grupo_1787" data-name="Grupo 1787" transform="translate(2992.761 663.152)" opacity="0.31">
        <circle id="Elipse_169" data-name="Elipse 169" cx="16.013" cy="16.013" r="16.013" transform="matrix(0.438, -0.899, 0.899, 0.438, 0, 28.782)" fill="#8191fb"/>
      </g>
      <g id="Grupo_1788" data-name="Grupo 1788" transform="translate(3215.598 819.205)" opacity="0.31">
        <path id="Trazado_6428" data-name="Trazado 6428" d="M3349.562,885.785a4.974,4.974,0,1,1-4.043-5.756A4.974,4.974,0,0,1,3349.562,885.785Z" transform="translate(-3339.688 -879.954)" fill="#8191fb"/>
      </g>
      <g id="Grupo_1789" data-name="Grupo 1789" transform="translate(3205.371 679.589)" opacity="0.31">
        <path id="Trazado_6429" data-name="Trazado 6429" d="M3335.354,691.82a4.974,4.974,0,1,1-4.043-5.756A4.975,4.975,0,0,1,3335.354,691.82Z" transform="translate(-3325.48 -685.989)" fill="#8191fb"/>
      </g>
      <g id="Grupo_1790" data-name="Grupo 1790" transform="translate(2917.245 779.676)" opacity="0.31">
        <path id="Trazado_6430" data-name="Trazado 6430" d="M2931.066,828.5a2.959,2.959,0,1,1-2.4-3.424A2.958,2.958,0,0,1,2931.066,828.5Z" transform="translate(-2925.193 -825.036)" fill="#8191fb"/>
      </g>
    </g>
    <path id="Trazado_6409" data-name="Trazado 6409" d="M181.707,41.853c.328,2.423.657,5.521.938,9.159q.322,4.4.42,9.834c.012.827.025,1.654.019,2.439.012.827,0,1.719.011,2.546-.027,4.177-.177,8.711-.586,13.506-.185,2.051-.378,4.209-.637,6.342-.114,1.034-.228,2.068-.39,3.119-.114,1.036-.231,2.07-.434,3.139-.276,2.087-.686,4.226-1.077,6.411-.8,4.323-1.771,8.763-3.025,13.265-.618,2.273-1.3,4.517-2.027,6.781-.395,1.249-.791,2.5-1.275,3.781q-.5,1.522-1.129,3.1-1.208,3.286-2.69,6.678c-.522,1.193-1.072,2.452-1.639,3.662-1.279,2.846-2.755,5.715-4.323,8.621-.812,1.514-1.712,3.065-2.614,4.616-2.3,3.819-4.822,7.619-7.62,11.372-1.435,1.917-2.888,3.787-4.431,5.7a10.568,10.568,0,0,0-.734.911c-.726.806-1.432,1.657-2.158,2.462q-.954,1.153-1.958,2.174c-.844.9-1.687,1.807-2.576,2.727s-1.749,1.779-2.682,2.718a133.573,133.573,0,0,1-11.878,10.334q-1.547,1.231-3.231,2.516c-.84.642-1.744,1.258-2.678,1.937-.814.58-1.627,1.159-2.457,1.693-1.349.944-2.715,1.844-4.143,2.716-.993.65-2.05,1.273-3.063,1.878-1.889,1.159-3.8,2.271-5.764,3.354l-.045.019c-4.214-1.316-8.281-2.794-12.185-4.386a145.253,145.253,0,0,1-30.33-16.531C10.016,142.511,1.394,79.772.022,59.952a9.408,9.408,0,0,1,4.923-8.959c7.433-4.009,21.755-11.968,36.571-21.58A289,289,0,0,0,66.823,11.367q3.689-2.934,6.923-5.84A21.086,21.086,0,0,1,85.835.11,20.8,20.8,0,0,1,98.7,3.031c2.518,1.512,5.19,3.014,8.043,4.446,1.12.6,2.288,1.185,3.453,1.771,1.23.612,2.395,1.193,3.606,1.76q2.411,1.166,4.955,2.275,4.388,2.029,8.856,3.867c2.5,1.053,5.036,2.088,7.541,3.031,3.151,1.265,6.329,2.464,9.444,3.636q.633.223,1.267.442c1.283.485,2.613.954,3.879,1.394,8.917,3.22,16.846,5.784,22.414,7.505,1.374.45,2.559.819,3.621,1.131A9.365,9.365,0,0,1,181.707,41.853Z" transform="matrix(0.996, 0.087, -0.087, 0.996, 104.603, 278.351)" fill="#7c49ff"/>
    <path id="Trazado_6443" data-name="Trazado 6443" d="M181.707,41.286c.328,2.391.657,5.446.938,9.035q.322,4.345.42,9.7c.012.816.025,1.632.019,2.406.012.816,0,1.7.011,2.512-.027,4.12-.177,8.593-.586,13.323-.185,2.023-.378,4.152-.637,6.256-.114,1.02-.228,2.04-.39,3.077-.114,1.022-.231,2.042-.434,3.1-.276,2.059-.686,4.169-1.077,6.324-.8,4.265-1.771,8.644-3.025,13.086-.618,2.242-1.3,4.456-2.027,6.689-.395,1.233-.791,2.463-1.275,3.729q-.5,1.5-1.129,3.056-1.208,3.242-2.69,6.587c-.522,1.177-1.072,2.418-1.639,3.613-1.279,2.807-2.755,5.637-4.323,8.5-.812,1.494-1.712,3.024-2.614,4.554-2.3,3.767-4.822,7.516-7.62,11.218-1.435,1.891-2.888,3.736-4.431,5.618a10.449,10.449,0,0,0-.734.9c-.726.795-1.432,1.634-2.158,2.429q-.954,1.138-1.958,2.144c-.844.89-1.687,1.783-2.576,2.69s-1.749,1.755-2.682,2.682a133.055,133.055,0,0,1-11.878,10.194q-1.547,1.214-3.231,2.482c-.84.633-1.744,1.241-2.678,1.91-.814.572-1.627,1.143-2.457,1.67-1.349.931-2.715,1.819-4.143,2.68-.993.642-2.05,1.256-3.063,1.853-1.889,1.143-3.8,2.24-5.764,3.309l-.045.019c-4.214-1.3-8.281-2.756-12.185-4.326a145.875,145.875,0,0,1-30.33-16.307C10.016,140.581,1.394,78.691.022,59.14A9.254,9.254,0,0,1,4.946,50.3C12.379,46.348,26.7,38.5,41.516,29.014a288.982,288.982,0,0,0,25.307-17.8q3.689-2.894,6.923-5.761A21.085,21.085,0,0,1,98.7,2.99c2.518,1.492,5.19,2.973,8.043,4.386,1.12.593,2.288,1.169,3.453,1.747,1.23.6,2.395,1.177,3.606,1.736q2.411,1.151,4.955,2.244,4.388,2,8.856,3.814c2.5,1.039,5.036,2.059,7.541,2.99,3.151,1.247,6.329,2.431,9.444,3.587q.633.22,1.267.436c1.283.478,2.613.941,3.879,1.375,8.917,3.177,16.846,5.706,22.414,7.4,1.374.444,2.559.808,3.621,1.116A9.261,9.261,0,0,1,181.707,41.286Z" transform="matrix(0.996, 0.087, -0.087, 0.996, 104.365, 303.173)" fill="#7c49ff" opacity="0.44"/>
    <path id="Trazado_6442" data-name="Trazado 6442" d="M181.707,41.853c.328,2.423.657,5.521.938,9.159.215,2.936,1.282,11.767,1.346,15.389.012.827-.9-3.9-.907-3.116.012.827,0,1.719.011,2.546-.027,4.177-.177,8.711-.586,13.506-.185,2.051-.378,4.209-.637,6.342-.114,1.034-.228,2.068-.39,3.119-.114,1.036-.231,2.07-.434,3.139-.276,2.087-.686,4.226-1.077,6.411-.8,4.323-1.771,8.763-3.025,13.265-.618,2.273-1.3,4.517-2.027,6.781-.395,1.249-.791,2.5-1.275,3.781q-.5,1.522-1.129,3.1-1.208,3.286-2.69,6.678c-.522,1.193-1.072,2.452-1.639,3.662-1.279,2.846-2.755,5.715-4.323,8.621-.812,1.514-1.712,3.065-2.614,4.616-2.3,3.819-4.822,7.619-7.62,11.372-1.435,1.917-2.888,3.787-4.431,5.7a10.568,10.568,0,0,0-.734.911c-.726.806-1.432,1.657-2.158,2.462q-.954,1.153-1.958,2.174c-.844.9-1.687,1.807-2.576,2.727s-1.749,1.779-2.682,2.718a133.573,133.573,0,0,1-11.878,10.334q-1.547,1.231-3.231,2.516c-.84.642-1.744,1.258-2.678,1.937-.814.58-1.627,1.159-2.457,1.693-1.349.944-2.715,1.844-4.143,2.716-.993.65-2.05,1.273-3.063,1.878-1.889,1.159-3.8,2.271-5.764,3.354l-.045.019c-4.214-1.316-8.281-2.794-12.185-4.386a145.253,145.253,0,0,1-30.33-16.531C20.836,150.211,6.634,109.391,1.923,81.681.776,74.936.3,63.975.022,59.952a9.408,9.408,0,0,1,4.923-8.959c7.433-4.009,21.755-11.968,36.571-21.58A289,289,0,0,0,66.823,11.367q3.689-2.934,6.923-5.84A21.086,21.086,0,0,1,85.835.11,20.8,20.8,0,0,1,98.7,3.031c2.518,1.512,5.19,3.014,8.043,4.446,1.12.6,2.288,1.185,3.453,1.771,1.23.612,2.395,1.193,3.606,1.76q2.411,1.166,4.955,2.275,4.388,2.029,8.856,3.867c2.5,1.053,5.036,2.088,7.541,3.031,3.151,1.265,6.329,2.464,9.444,3.636q.633.223,1.267.442c1.283.485,2.613.954,3.879,1.394,8.917,3.22,16.846,5.784,22.414,7.505,1.374.45,2.559.819,3.621,1.131A9.365,9.365,0,0,1,181.707,41.853Z" transform="matrix(0.996, 0.087, -0.087, 0.996, 104.603, 256.245)" fill="#7c49ff" opacity="0.83"/>
    <path id="Trazado_6410" data-name="Trazado 6410" d="M84.433,160.31C-.369,133.577,0,42.8,0,42.8S38.267,23.122,58.9,4.411A16.478,16.478,0,0,1,78.744,2.434c23.933,14.277,65.333,26.026,65.333,26.026S162.3,117.387,84.433,160.31Z" transform="matrix(0.996, 0.087, -0.087, 0.996, 122.084, 300.485)" fill="url(#linear-gradient)"/>
    <path id="Trazado_6411" data-name="Trazado 6411" d="M80.1,152.084C-.352,126.723,0,40.6,0,40.6S36.3,21.938,55.877,4.185A15.633,15.633,0,0,1,74.7,2.309C97.408,15.854,136.684,27,136.684,27S153.975,111.366,80.1,152.084Z" transform="matrix(0.996, 0.087, -0.087, 0.996, 125.633, 304.926)" fill="#ffa830"/>
    <path id="Trazado_6412" data-name="Trazado 6412" d="M20.029,201.365,0,.1A20.881,20.881,0,0,1,12.86,3.058C37.667,17.847,90.582,34.494,90.582,34.494a11.607,11.607,0,0,1,3.34,2.8A14.077,14.077,0,0,1,95.8,41.237s8.619,47.374-13.429,93.672C71.379,160.009,50.183,184.728,20.029,201.365Z" transform="matrix(0.996, 0.087, -0.087, 0.996, 190.103, 285.825)" opacity="0.25" style="mix-blend-mode: overlay;isolation: isolate"/>
    <g id="Grupo_1794" data-name="Grupo 1794" transform="translate(159.69 354.182)">
      <path id="Trazado_6441" data-name="Trazado 6441" d="M3765.778,347.791a4.574,4.574,0,0,1-3.786-2l-18.553-27.26a4.58,4.58,0,1,1,7.572-5.155l14.4,21.162,33.191-41.2a4.579,4.579,0,0,1,7.978,4.5l-36.816,47.626a4.578,4.578,0,0,1-3.8,2.326C3765.907,347.79,3765.842,347.791,3765.778,347.791Z" transform="translate(-3742.645 -291.005)" fill="#f8f8f8"/>
    </g>
    <path id="Trazado_6446" data-name="Trazado 6446" d="M4796.947,690.33l.512.115a1.2,1.2,0,0,1,0,2.336l-.512.116a10.857,10.857,0,0,0-8.208,8.208l-.117.512a1.2,1.2,0,0,1-2.336,0l-.115-.512a10.857,10.857,0,0,0-8.209-8.208l-.512-.116a1.2,1.2,0,0,1,0-2.336l.512-.115a10.859,10.859,0,0,0,8.209-8.209l.115-.512a1.2,1.2,0,0,1,2.336,0l.117.512A10.858,10.858,0,0,0,4796.947,690.33Z" transform="translate(-4482.479 -248.202)" fill="url(#linear-gradient-2)"/>
    <path id="Trazado_6445" data-name="Trazado 6445" d="M4805.847,694.535l.735.165a1.719,1.719,0,0,1,0,3.354l-.735.167a15.586,15.586,0,0,0-11.784,11.784l-.167.735a1.719,1.719,0,0,1-3.354,0l-.165-.735a15.587,15.587,0,0,0-11.785-11.784l-.735-.167a1.719,1.719,0,0,1,0-3.354l.735-.165a15.59,15.59,0,0,0,11.785-11.784l.165-.735a1.719,1.719,0,0,1,3.354,0l.167.735A15.589,15.589,0,0,0,4805.847,694.535Z" transform="translate(-4713.479 -426.202)" fill="url(#linear-gradient-3)"/>
    <path id="Trazado_6415" data-name="Trazado 6415" d="M4796.947,690.33l.512.115a1.2,1.2,0,0,1,0,2.336l-.512.116a10.857,10.857,0,0,0-8.208,8.208l-.117.512a1.2,1.2,0,0,1-2.336,0l-.115-.512a10.857,10.857,0,0,0-8.209-8.208l-.512-.116a1.2,1.2,0,0,1,0-2.336l.512-.115a10.859,10.859,0,0,0,8.209-8.209l.115-.512a1.2,1.2,0,0,1,2.336,0l.117.512A10.858,10.858,0,0,0,4796.947,690.33Z" transform="translate(-4482.479 -256.202)" fill="url(#linear-gradient-2)"/>
    <path id="Trazado_6444" data-name="Trazado 6444" d="M4805.847,694.535l.735.165a1.719,1.719,0,0,1,0,3.354l-.735.167a15.586,15.586,0,0,0-11.784,11.784l-.167.735a1.719,1.719,0,0,1-3.354,0l-.165-.735a15.587,15.587,0,0,0-11.785-11.784l-.735-.167a1.719,1.719,0,0,1,0-3.354l.735-.165a15.59,15.59,0,0,0,11.785-11.784l.165-.735a1.719,1.719,0,0,1,3.354,0l.167.735A15.589,15.589,0,0,0,4805.847,694.535Z" transform="translate(-4713.479 -434.202)" fill="url(#linear-gradient-3)"/>
  </g>
</svg>
