<svg xmlns="http://www.w3.org/2000/svg" xmlns:xlink="http://www.w3.org/1999/xlink" width="804.97" height="511" viewBox="0 0 804.97 511">
  <defs>
    <clipPath id="clip-path">
      <rect id="CARD_" data-name="CARD " width="804.97" height="511" rx="35" transform="translate(6465.16 4879)" fill="#272244"/>
    </clipPath>
  </defs>
  <g id="_70_-_DESIGN_CARD_" data-name="70 - DESIGN CARD " transform="translate(-6465.16 -4879)">
    <g id="CARD_2" data-name="CARD ">
      <rect id="CARD_3" data-name="CARD " width="804.97" height="511" rx="35" transform="translate(6465.16 4879)" fill="#272244"/>
      <g id="Clip" clip-path="url(#clip-path)">
        <path id="SHAPE" d="M-696.152,12406.583a75.067,75.067,0,0,1,30.107-82.308,74.536,74.536,0,0,1,21.713-10.089,74.924,74.924,0,0,1,92.365,51.754,15.811,15.811,0,0,1-10.925,19.487,15.788,15.788,0,0,1-19.487-10.916,43.318,43.318,0,0,0-53.4-29.92,43.37,43.37,0,0,0-29.957,53.422,15.8,15.8,0,0,1-10.934,19.487,15.793,15.793,0,0,1-4.294.6A15.79,15.79,0,0,1-696.152,12406.583Zm-1066.645-136.29a58.659,58.659,0,0,1-15.719-42.388,58.739,58.739,0,0,1,18.858-41.113,59.985,59.985,0,0,1,7.069-5.626,58.723,58.723,0,0,1,76.456,8.7,58.679,58.679,0,0,1,15.731,42.4,58.743,58.743,0,0,1-18.87,41.132,59.406,59.406,0,0,1-7.051,5.616,58.653,58.653,0,0,1-33.009,10.071A59.237,59.237,0,0,1-1762.8,12270.293Zm24.624-60.354a27.349,27.349,0,0,0-8.774,19.133,27.324,27.324,0,0,0,7.316,19.727,27.67,27.67,0,0,0,35.577,4.08,27.906,27.906,0,0,0,3.3-2.634,27.347,27.347,0,0,0,8.781-19.141,27.32,27.32,0,0,0-7.325-19.737,27.514,27.514,0,0,0-20.2-8.661A27.351,27.351,0,0,0-1738.173,12209.938Zm612.474,45.212a15.771,15.771,0,0,1-9.077-7.979l-37.606-76.475a15.782,15.782,0,0,1-.773-12.062,15.794,15.794,0,0,1,6.084-7.979,15.8,15.8,0,0,1,1.9-1.1l76.5-37.65a15.784,15.784,0,0,1,21.142,7.191l37.609,76.472a15.792,15.792,0,0,1,.776,12.065,15.823,15.823,0,0,1-7.983,9.083l-76.5,37.65a15.816,15.816,0,0,1-6.989,1.629A15.749,15.749,0,0,1-1125.7,12255.15Zm-11.358-84.236,23.661,48.136,48.151-23.7-23.667-48.133Zm216.789-26.264a15.8,15.8,0,0,1,6.443-16.953,15.768,15.768,0,0,1,4.99-2.241l220.863-56.043a15.781,15.781,0,0,1,19.188,11.424,15.809,15.809,0,0,1-11.433,19.2l-220.863,56.043a15.848,15.848,0,0,1-3.9.49A15.782,15.782,0,0,1-920.269,12144.65Zm-988.556-244.5a15.812,15.812,0,0,1,5.657-19.25,15.979,15.979,0,0,1,2.706-1.472l88.123-37.507a15.79,15.79,0,0,1,20.719,8.345,15.806,15.806,0,0,1-8.36,20.719l-88.126,37.509a15.757,15.757,0,0,1-6.182,1.267A15.792,15.792,0,0,1-1908.824,11900.146Zm1648.6-125.249a15.8,15.8,0,0,1-.976-15.766l48.129-96.708a15.783,15.783,0,0,1,5.274-6.034,15.806,15.806,0,0,1,7.892-2.7,15.784,15.784,0,0,1,14.139,7.031l59.668,89.969a15.8,15.8,0,0,1,.976,15.766,15.811,15.811,0,0,1-13.166,8.737l-107.794,6.738q-.492.031-.981.03A15.791,15.791,0,0,1-260.224,11774.9Zm39.5-26.208,53.176-3.322-29.434-44.386Zm315.572-26.962-69.764-19.618a15.784,15.784,0,0,1-11.5-14.575l-2.846-72.429a15.8,15.8,0,0,1,10.314-15.448l68.006-25.135a15.8,15.8,0,0,1,17.876,5.03l44.869,56.888a15.8,15.8,0,0,1,.729,18.556l-40.268,60.289a15.8,15.8,0,0,1-17.418,6.442Zm-52.091-96.417L44.7,11674.8l47.671,13.4,27.517-41.2-30.659-38.875Zm486.336,89.164-62.682-36.369a15.784,15.784,0,0,1-7.506-16.979l15.264-70.867a15.8,15.8,0,0,1,13.836-12.4l72.111-7.431a15.778,15.778,0,0,1,16.056,9.319l29.3,66.283a15.8,15.8,0,0,1-3.909,18.153l-54,48.382a15.779,15.779,0,0,1-18.471,1.9Zm-26.457-106.36-10.429,48.422,42.83,24.854,36.9-33.064-20.023-45.293Zm-1637.94,74.879-91.832-27.04a15.781,15.781,0,0,1-10.679-19.608,15.742,15.742,0,0,1,6.274-8.6,15.764,15.764,0,0,1,13.347-2.091l91.832,27.039a15.787,15.787,0,0,1,10.682,19.609,15.813,15.813,0,0,1-15.152,11.343A15.787,15.787,0,0,1-1135.3,11682.992Zm1531.776-94.741-88.824-209.734a15.8,15.8,0,0,1,29.094-12.337l88.828,209.734a15.8,15.8,0,0,1-29.1,12.337Zm-1461.834-111.092-105-25.2a15.788,15.788,0,0,1-11.455-10.872,15.81,15.81,0,0,1,3.7-15.36l74.39-78.342a15.983,15.983,0,0,1,2.587-2.194,15.8,15.8,0,0,1,12.565-2.294,15.784,15.784,0,0,1,11.452,10.872l30.609,103.546a15.813,15.813,0,0,1-3.7,15.36,15.826,15.826,0,0,1-11.464,4.926A15.749,15.749,0,0,1-1065.361,11477.159Zm-71-49.535,51.8,12.428-15.1-51.078Zm-1338.679-75.655a30.54,30.54,0,0,1-19.356-13.359,30.524,30.524,0,0,1-4.236-23.146,30.61,30.61,0,0,1,12.8-19,30.894,30.894,0,0,1,23.714-4.635,30.772,30.772,0,0,1,23.62,36.513,30.652,30.652,0,0,1-12.8,18.994,30.935,30.935,0,0,1-17.337,5.309A30.515,30.515,0,0,1-2475.045,11351.969Zm1793.58-184.924-19.618-10.314a15.8,15.8,0,0,1-7.727-9.294,15.808,15.808,0,0,1,1.11-12.041l10.323-19.606a15.745,15.745,0,0,1,5.1-5.713,15.8,15.8,0,0,1,16.236-.923l19.612,10.3a15.789,15.789,0,0,1,6.624,21.332l-10.317,19.622a15.85,15.85,0,0,1-9.3,7.736,15.809,15.809,0,0,1-4.692.712A15.785,15.785,0,0,1-681.465,11167.045Zm-1140.209-154.724-5.305-21.51a15.79,15.79,0,0,1,1.817-11.957,15.724,15.724,0,0,1,4.654-4.9,15.792,15.792,0,0,1,5.084-2.269l21.526-5.318a15.831,15.831,0,0,1,11.96,1.814,15.769,15.769,0,0,1,7.156,9.74l5.293,21.508a15.785,15.785,0,0,1-11.555,19.116l-21.513,5.32a15.836,15.836,0,0,1-3.8.464A15.791,15.791,0,0,1-1821.674,11012.321Zm-723.292-13.577a30.789,30.789,0,0,1-5.436-43.161,30.7,30.7,0,0,1,7.032-6.6,30.666,30.666,0,0,1,36.113,1.141,30.788,30.788,0,0,1,5.433,43.148,30.685,30.685,0,0,1-7.032,6.6,30.712,30.712,0,0,1-17.28,5.328A30.726,30.726,0,0,1-2544.965,10998.744Zm854.934-74.072a74.922,74.922,0,0,1-44.417-96.112,74.4,74.4,0,0,1,28.1-36.063,76.1,76.1,0,0,1,10.763-6.084,74.4,74.4,0,0,1,57.275-2.335,15.784,15.784,0,0,1,9.366,20.273,15.8,15.8,0,0,1-20.282,9.379,43,43,0,0,0-33.105,1.353,43.019,43.019,0,0,0-22.467,24.368,42.947,42.947,0,0,0,1.328,33.105,42.975,42.975,0,0,0,24.356,22.465,15.781,15.781,0,0,1,9.363,20.272,15.811,15.811,0,0,1-14.832,10.354A15.723,15.723,0,0,1-1690.031,10924.672Zm691.847-390.912-83.978-14.591a15.782,15.782,0,0,1-12.848-18.263l14.647-83.986a15.811,15.811,0,0,1,6.474-10.215c.075-.05.146-.1.218-.149a15.838,15.838,0,0,1,11.583-2.5l83.975,14.594a15.778,15.778,0,0,1,12.845,18.263l-14.64,83.983a15.8,15.8,0,0,1-6.477,10.215,16.619,16.619,0,0,1-9.2,2.87A15.146,15.146,0,0,1-998.184,10533.76Zm-62.991-43.015,52.858,9.188,9.217-52.86-52.858-9.186Zm-780.619-141.976a59.051,59.051,0,0,1,25.949-49.473,58.788,58.788,0,0,1,32.632-10.177,58.676,58.676,0,0,1,41.939,16.906,58.666,58.666,0,0,1,17.679,41.631,59.038,59.038,0,0,1-25.958,49.46,58.9,58.9,0,0,1-32.635,10.189l-.546,0A59.132,59.132,0,0,1-1841.794,10348.77Zm58.852-28.062a27.365,27.365,0,0,0-15.17,4.719,27.512,27.512,0,0,0-12.091,23.041,27.535,27.535,0,0,0,27.744,27.251,27.394,27.394,0,0,0,15.173-4.731,27.484,27.484,0,0,0,12.1-23.031,27.308,27.308,0,0,0-8.226-19.381,27.337,27.337,0,0,0-19.264-7.869ZM-389.756,9936.3a30.761,30.761,0,0,1-23.6-36.515,30.626,30.626,0,0,1,12.8-18.989,30.9,30.9,0,0,1,23.714-4.635,30.776,30.776,0,0,1,23.617,36.513,30.658,30.658,0,0,1-12.8,18.994,30.959,30.959,0,0,1-17.343,5.306A30.6,30.6,0,0,1-389.756,9936.3Zm-495.49-306.09-62.686-36.372a15.787,15.787,0,0,1-7.506-16.979l15.264-70.87a15.822,15.822,0,0,1,6.583-9.75,15.775,15.775,0,0,1,7.25-2.646l72.114-7.428a15.789,15.789,0,0,1,16.059,9.319l29.3,66.286a15.8,15.8,0,0,1-3.912,18.153l-54,48.385a15.839,15.839,0,0,1-10.556,4.034A15.741,15.741,0,0,1-885.246,9630.21ZM-911.7,9523.847l-10.433,48.425,42.833,24.854,36.9-33.059-20.023-45.3Z" fill="#ff5112"/>
        <path id="SHAPE-2" data-name="SHAPE" d="M5910.693,6626.68a58.731,58.731,0,1,1,24.353,5.278A59.141,59.141,0,0,1,5910.693,6626.68Zm8.827-76.6a27.358,27.358,0,1,0,15.462-4.794A27.444,27.444,0,0,0,5919.521,6550.078Zm939.889-122.484a75.009,75.009,0,0,1,22.53-99.788q2.065-1.4,4.251-2.683a15.791,15.791,0,1,1,15.958,27.254,43.285,43.285,0,1,0,43.761,74.7,15.791,15.791,0,1,1,15.956,27.254,74.923,74.923,0,0,1-102.455-26.733Zm223.045-94.084a30.738,30.738,0,1,1,28.806,19.931A30.662,30.662,0,0,1,7082.455,6333.51ZM5827.405,6124.116l-84.965-6.481a15.79,15.79,0,0,1-14.541-16.951l6.524-84.987a15.795,15.795,0,0,1,16.955-14.546l84.966,6.486a15.785,15.785,0,0,1,14.541,16.951l-6.525,84.984a15.794,15.794,0,0,1-15.743,14.592Q5828.015,6124.162,5827.405,6124.116Zm-66.8-36.777,53.471,4.079,4.105-53.486-53.471-4.081Zm320.239,29.028a30.806,30.806,0,1,1,2.763.125Q6082.226,6116.492,6080.844,6116.367Zm-1030.561-327.5a59.4,59.4,0,0,1,18.189-78.042q1.968-1.336,4.063-2.53a59.076,59.076,0,1,1-22.252,80.573Zm37.842-53.1a27.5,27.5,0,1,0,27.144,47.842c.646-.37,1.284-.765,1.894-1.178a27.5,27.5,0,0,0-15.509-50.245A27.315,27.315,0,0,0,5088.125,5735.762Zm1574.063,51.782-21.043-226.827a15.793,15.793,0,1,1,31.45-2.931l21.043,226.829a15.8,15.8,0,0,1-14.266,17.191q-.746.07-1.482.069A15.787,15.787,0,0,1,6662.188,5787.544Zm458.5-62.348a15.786,15.786,0,0,1-12.529-9.613l-41.3-99.759a15.8,15.8,0,0,1,16.655-21.709l107.055,14.079a15.792,15.792,0,0,1,10.463,25.273l-65.751,85.682a15.8,15.8,0,0,1-14.592,6.047Zm6.192-46.978,32.438-42.27L7106.507,5629Zm-236.989,3.072a15.8,15.8,0,0,1-8-9.062l-7.189-20.954a15.776,15.776,0,0,1,9.812-20.067l20.952-7.2a15.787,15.787,0,0,1,20.065,9.8l7.2,20.952a15.8,15.8,0,0,1-9.81,20.07l-20.958,7.2a15.784,15.784,0,0,1-12.065-.744Zm-974.211-48.809a15.784,15.784,0,0,1-12.457-18.534l43.833-223.564a15.792,15.792,0,1,1,31,6.07l-43.835,223.562a15.768,15.768,0,0,1-18.538,12.466Zm-666.718-80.643-25.99-92.135a15.8,15.8,0,0,1,30.4-8.583l25.988,92.135a15.8,15.8,0,1,1-30.4,8.583Zm1459.006-331.86-68.2-24.512a15.784,15.784,0,0,1-10.439-15.351l2.266-72.439a15.8,15.8,0,0,1,6.92-12.579,15.634,15.634,0,0,1,4.457-2.1l69.581-20.259a15.776,15.776,0,0,1,17.468,6.278l40.753,59.911a15.8,15.8,0,0,1-.576,18.559l-44.4,57.3a15.79,15.79,0,0,1-17.828,5.191Zm-45.159-99.856-1.55,49.5,46.6,16.751,30.342-39.156-27.849-40.938Zm581.638,74.993-83.973-14.527a15.783,15.783,0,0,1-12.864-18.257l14.562-83.984a15.8,15.8,0,0,1,18.257-12.87L7264.4,5080a15.784,15.784,0,0,1,12.86,18.257l-14.558,83.984a15.785,15.785,0,0,1-18.257,12.872Zm-63.018-42.961,52.852,9.14,9.161-52.857-52.85-9.142Zm303.8,10.763a74.977,74.977,0,0,1,16.635-104.587c.135-.1.272-.2.414-.3a15.792,15.792,0,0,1,18.133,25.854,43.284,43.284,0,1,0,50.851,70.058,15.592,15.592,0,0,1,22.056,3.5,15.793,15.793,0,0,1-3.513,22.058,74.068,74.068,0,0,1-43.824,14.275A74.924,74.924,0,0,1,7485.232,5162.916ZM6478.669,4937.193a15.784,15.784,0,0,1-9.308-7.712l-10.351-19.6a15.838,15.838,0,0,1,6.594-21.349l19.6-10.349a15.787,15.787,0,0,1,21.337,6.587l10.347,19.588a15.839,15.839,0,0,1-6.59,21.345l-19.588,10.357a15.787,15.787,0,0,1-12.037,1.131ZM7061,4854.374l-72.455-1.335a15.794,15.794,0,0,1-14.817-11.192l-21.1-69.316a15.8,15.8,0,0,1,6.066-17.55l59.411-41.528c.057-.04.118-.082.179-.122a15.785,15.785,0,0,1,18.383.461l57.826,43.669a15.786,15.786,0,0,1,5.408,17.759l-23.681,68.515a15.812,15.812,0,0,1-14.928,10.64Zm-74.81-80.075,14.419,47.367,49.512.911,16.184-46.815-39.516-29.842Zm-433.417-268.017-76.919-73.125a15.811,15.811,0,0,1,.6-25.717.36.36,0,0,0,.091-.062,15.806,15.806,0,0,1,4.394-2.079l103.562-30.6a15.788,15.788,0,0,1,19.825,18.842l-25.321,104.984a15.794,15.794,0,0,1-26.234,7.754Zm-36.656-78.441,38.6,36.7,12.489-51.791Zm-1071.089-84.562a75.015,75.015,0,0,1,22.525-99.793q2.068-1.4,4.251-2.683a15.794,15.794,0,1,1,15.961,27.26,43.282,43.282,0,1,0,43.757,74.69,15.794,15.794,0,0,1,15.959,27.26,74.924,74.924,0,0,1-102.454-26.733Zm223.042-94.087a30.749,30.749,0,1,1,46.057,14.621,31.065,31.065,0,0,1-6.468,3.349,30.736,30.736,0,0,1-39.588-17.969Zm1046.666-163.5a15.8,15.8,0,0,1-11.991-18.847l20.778-93.464a15.793,15.793,0,1,1,30.833,6.85l-20.776,93.464a15.789,15.789,0,0,1-18.845,12Z" fill="#ff1245"/>
        <path id="SHAPE-3" data-name="SHAPE" d="M-1426.191,12893a15.787,15.787,0,0,1-11.1-4.8l-15.422-15.906a15.8,15.8,0,0,1,.346-22.327l15.907-15.435a15.825,15.825,0,0,1,2.132-1.734,15.761,15.761,0,0,1,9.109-2.728,15.8,15.8,0,0,1,11.1,4.792l15.425,15.9a15.794,15.794,0,0,1-.353,22.333l-15.907,15.435a15.845,15.845,0,0,1-11,4.464Zm385.952-128.679-94.286-49.048a15.692,15.692,0,0,1-7.361-5.856,15.8,15.8,0,0,1,4.21-21.944c.029-.02.055-.036.084-.059.126-.084.252-.168.382-.252l91.092-58.072a15.806,15.806,0,0,1,15.784-.7,15.8,15.8,0,0,1,8.484,13.321l4.689,107.9a15.85,15.85,0,0,1-7.29,14.014,15.81,15.81,0,0,1-8.5,2.479A15.788,15.788,0,0,1-1040.239,12764.317Zm-56.926-65.232,47.258,24.578-2.313-53.228ZM-1539.28,12591.5a15.785,15.785,0,0,1-15.26-16.3l7.614-227.7a15.8,15.8,0,0,1,6.931-12.558,15.733,15.733,0,0,1,9.384-2.712,15.786,15.786,0,0,1,15.26,16.3l-7.614,227.7a15.8,15.8,0,0,1-15.783,15.278C-1538.926,12591.512-1539.1,12591.509-1539.28,12591.5Zm-125.216-60.029a30.515,30.515,0,0,1-18.47-14.586,30.561,30.561,0,0,1,9.568-40.431c.734-.5,1.495-.968,2.288-1.411a30.537,30.537,0,0,1,23.362-2.757,30.512,30.512,0,0,1,18.469,14.574,30.629,30.629,0,0,1-11.852,41.854,30.565,30.565,0,0,1-14.963,3.927A30.939,30.939,0,0,1-1664.5,12531.474Zm93.2-291.627a15.787,15.787,0,0,1-2.246-22.223l60.563-74.2a15.888,15.888,0,0,1,3.372-3.09,15.79,15.79,0,0,1,18.855.835,15.79,15.79,0,0,1,2.249,22.223l-60.566,74.2a15.774,15.774,0,0,1-12.251,5.814A15.718,15.718,0,0,1-1571.3,12239.847Zm-493.517-79.152a15.829,15.829,0,0,1-4.824-11.085l-1.537-85.22a15.792,15.792,0,0,1,6.94-13.373,15.746,15.746,0,0,1,8.565-2.715l85.226-1.6a15.819,15.819,0,0,1,11.257,4.414,15.833,15.833,0,0,1,4.824,11.085l1.534,85.229a15.8,15.8,0,0,1-15.506,16.085l-85.223,1.585c-.106,0-.211,0-.317,0A15.769,15.769,0,0,1-2064.815,12160.694Zm25.51-81.1.971,53.633,53.632-1-.964-53.642Zm1468.4,84.281a30.49,30.49,0,0,1-21.469-9.629,30.478,30.478,0,0,1-8.361-22,30.848,30.848,0,0,1,13.483-24.55,30.567,30.567,0,0,1,18.156-5.29,30.555,30.555,0,0,1,21.459,9.613,30.519,30.519,0,0,1,8.377,22,30.875,30.875,0,0,1-13.487,24.566,30.563,30.563,0,0,1-17.252,5.307C-570.295,12163.889-570.6,12163.884-570.9,12163.875Zm618.51-176.422-85.3-63.239a15.671,15.671,0,0,1-5.18-4.814,15.8,15.8,0,0,1,4.2-21.941h0a.848.848,0,0,1,.084-.062,15.838,15.838,0,0,1,2.589-1.424l99.091-42.993a15.785,15.785,0,0,1,21.971,16.289l-12.36,107.293a15.8,15.8,0,0,1-25.1,10.892Zm-45.934-73.393,42.786,31.723,6.1-52.933Zm-460.93,42.365-84.754-9.089a15.774,15.774,0,0,1-10.607-5.792,15.786,15.786,0,0,1-3.4-11.6l9.144-84.75a15.784,15.784,0,0,1,6.847-11.39,15.738,15.738,0,0,1,10.552-2.631l84.747,9.09a15.782,15.782,0,0,1,14.011,17.389l-9.141,84.753a15.8,15.8,0,0,1-15.693,14.112A15.91,15.91,0,0,1-459.254,11956.426Zm-65.656-38.815,53.338,5.721,5.753-53.341-53.338-5.721Zm-1701.536-46.974a15.794,15.794,0,0,1,1.793-22.268,15.808,15.808,0,0,1,22.265,1.782,43.382,43.382,0,0,0,61.032,4.9,43.063,43.063,0,0,0,15.1-29.506,43,43,0,0,0-10.179-31.532,15.794,15.794,0,0,1,1.8-22.266,15.286,15.286,0,0,1,1.385-1.055,15.793,15.793,0,0,1,20.88,2.835,74.374,74.374,0,0,1,17.609,54.538,74.445,74.445,0,0,1-26.122,51.034,74.339,74.339,0,0,1-48.461,17.873A74.8,74.8,0,0,1-2226.446,11870.637ZM202.482,11810.5a15.8,15.8,0,0,1,1.385-22.3l71.769-63.423a16.71,16.71,0,0,1,1.6-1.246,15.793,15.793,0,0,1,19.308,24.915l-71.769,63.424a15.835,15.835,0,0,1-22.3-1.369Zm-1667.227-131.6-47.559-54.671a15.8,15.8,0,0,1-1.618-18.5l37.321-62.155a15.8,15.8,0,0,1,4.669-4.937,15.8,15.8,0,0,1,12.422-2.329l70.623,16.249a15.776,15.776,0,0,1,12.179,14.008l6.332,72.2a15.792,15.792,0,0,1-9.558,15.926l-66.718,28.374a15.764,15.764,0,0,1-6.18,1.262A15.775,15.775,0,0,1-1464.745,11678.9Zm-16.192-66.756,32.5,37.356,45.588-19.393-4.326-49.335-48.258-11.1ZM659,11477.389a15.793,15.793,0,0,1-11.1-4.795l-15.418-15.907a15.791,15.791,0,0,1,.349-22.326l15.907-15.438a15.8,15.8,0,0,1,22.339.33l15.425,15.907a15.8,15.8,0,0,1-.349,22.333l-15.913,15.438a15.829,15.829,0,0,1-11.009,4.461ZM-934.463,11320.6a15.79,15.79,0,0,1-12.506-18.5l43.313-223.689a15.776,15.776,0,0,1,6.643-10.069,15.754,15.754,0,0,1,11.872-2.443,15.778,15.778,0,0,1,12.5,18.5l-43.314,223.687a15.817,15.817,0,0,1-15.5,12.808A15.826,15.826,0,0,1-934.463,11320.6Zm1336.688-219.3a30.578,30.578,0,0,1,9.565-40.443c.735-.5,1.495-.968,2.288-1.407a30.734,30.734,0,1,1-11.853,41.851ZM-1496.507,10866.1a15.786,15.786,0,0,1-7.7-13.787l1.563-107.989a15.79,15.79,0,0,1,6.924-12.84c.382-.259.77-.5,1.171-.728a15.793,15.793,0,0,1,15.794.224l92.733,55.279a15.782,15.782,0,0,1,7.7,13.784,15.694,15.694,0,0,1-8.093,13.573l-94.3,52.707a15.8,15.8,0,0,1-7.707,2.006A15.776,15.776,0,0,1-1496.507,10866.1Zm24.284-40.705,46.52-26-45.747-27.277Zm1492.6-80.314A15.776,15.776,0,0,1,15.551,10734l-1.54-85.22a15.81,15.81,0,0,1,15.506-16.088l85.226-1.595a15.789,15.789,0,0,1,16.082,15.5l1.54,85.223a15.813,15.813,0,0,1-15.509,16.088l-85.226,1.589-.293,0A15.788,15.788,0,0,1,20.379,10745.084Zm25.507-81.1.964,53.632,53.642-1-.971-53.639Zm-2500.509,16-94.289-49.045a15.721,15.721,0,0,1-7.358-5.859,15.8,15.8,0,0,1,4.207-21.944.292.292,0,0,0,.087-.059l.382-.253,91.092-58.071a15.8,15.8,0,0,1,15.787-.7,15.794,15.794,0,0,1,8.481,13.321l4.692,107.9a15.672,15.672,0,0,1-7.293,14.011,15.8,15.8,0,0,1-8.5,2.477A15.806,15.806,0,0,1-2454.623,10679.988Zm-56.926-65.232,47.258,24.578-2.313-53.228Zm1687.15-132.97a59.45,59.45,0,0,1,25.271-57.835,58.6,58.6,0,0,1,24.265-9.5,58.693,58.693,0,0,1,43.925,10.8,58.619,58.619,0,0,1,23.388,38.689,59.448,59.448,0,0,1-25.271,57.846,58.567,58.567,0,0,1-24.271,9.506,59.341,59.341,0,0,1-8.944.681A59.157,59.157,0,0,1-824.4,10481.786Zm54.286-36.107a27.21,27.21,0,0,0-11.277,4.407,27.689,27.689,0,0,0-11.778,26.931,27.532,27.532,0,0,0,31.328,23.052,27.264,27.264,0,0,0,11.286-4.41,27.694,27.694,0,0,0,11.772-26.947,27.285,27.285,0,0,0-10.885-18,27.3,27.3,0,0,0-16.236-5.353A27.883,27.883,0,0,0-770.114,10445.679Zm679.879,35.447a74.367,74.367,0,0,1-51.024-26.1,15.8,15.8,0,0,1,1.8-22.265,15.736,15.736,0,0,1,22.265,1.783,43,43,0,0,0,29.5,15.088,43.1,43.1,0,0,0,31.535-10.192,43.359,43.359,0,0,0,4.918-61.039,15.8,15.8,0,0,1,1.8-22.269,15.063,15.063,0,0,1,1.378-1.052,15.8,15.8,0,0,1,20.883,2.835,74.991,74.991,0,0,1-8.513,105.572,74.391,74.391,0,0,1-48.452,17.881Q-87.179,10481.371-90.235,10481.126Zm-1288.423-174.7a58.66,58.66,0,0,1-19.822-40.641,59.442,59.442,0,0,1,25.844-52.562,59.1,59.1,0,0,1,29.552-10.066,58.649,58.649,0,0,1,42.757,14.707,58.711,58.711,0,0,1,19.825,40.65,59.441,59.441,0,0,1-25.85,52.552,59.058,59.058,0,0,1-29.539,10.063q-1.868.116-3.726.115A58.608,58.608,0,0,1-1378.658,10306.429Zm37.5-71.736a27.473,27.473,0,0,0-13.745,4.67,27.692,27.692,0,0,0-12.043,24.484,27.316,27.316,0,0,0,9.225,18.913,27.316,27.316,0,0,0,19.909,6.84,27.451,27.451,0,0,0,13.729-4.666,27.668,27.668,0,0,0,12.047-24.472,27.328,27.328,0,0,0-9.228-18.926,27.263,27.263,0,0,0-18.154-6.9Q-1340.287,10234.639-1341.159,10234.692Zm1103.99,38.784a15.808,15.808,0,0,1-7.439-9.526l-5.908-21.35a15.8,15.8,0,0,1,6.352-17.291,15.669,15.669,0,0,1,4.656-2.152l21.359-5.928a15.8,15.8,0,0,1,12,1.469,15.787,15.787,0,0,1,7.439,9.533l5.908,21.349a15.779,15.779,0,0,1-11.011,19.438l-21.356,5.928a15.814,15.814,0,0,1-4.225.575A15.792,15.792,0,0,1-237.169,10273.477ZM-1318.2,10032.249a74.359,74.359,0,0,1-5.051-57.085,74.409,74.409,0,0,1,29.274-39.459,76.524,76.524,0,0,1,7.536-4.5,15.781,15.781,0,0,1,21.307,6.688,15.791,15.791,0,0,1-6.7,21.314,43.169,43.169,0,0,0-21.278,25.413,43,43,0,0,0,2.922,33,43.327,43.327,0,0,0,58.408,18.323,15.785,15.785,0,0,1,21.31,6.686,15.759,15.759,0,0,1-6.7,21.313,74.464,74.464,0,0,1-34.557,8.5A74.9,74.9,0,0,1-1318.2,10032.249Zm-48.578-129.122-85.3-63.239a15.733,15.733,0,0,1-5.177-4.817,15.8,15.8,0,0,1,4.207-21.938v0c.026-.02.058-.039.084-.059a16.416,16.416,0,0,1,2.585-1.427l99.094-42.993a15.794,15.794,0,0,1,15.693,1.8,15.783,15.783,0,0,1,6.277,14.486l-12.364,107.294a15.827,15.827,0,0,1-9.406,12.7,15.816,15.816,0,0,1-6.284,1.3A15.808,15.808,0,0,1-1366.777,9903.127Zm-45.931-73.393,42.786,31.724,6.1-52.934Zm642.054-56.272-44.572-52.681a15.8,15.8,0,0,1-1.851-17.684L-783,9639.729a15.811,15.811,0,0,1,5.044-5.588,15.8,15.8,0,0,1,12.063-2.407l65.63,13.5a15.78,15.78,0,0,1,12.538,14.04l6.488,71.727a15.819,15.819,0,0,1-8.672,15.561l-61.628,30.816a15.793,15.793,0,0,1-7.062,1.669A15.781,15.781,0,0,1-770.654,9773.462Zm-13.506-64.887,29.613,35,40.88-20.44-4.462-49.318-42.621-8.77Z" fill="#ffb412"/>
        <path id="SHAPE-4" data-name="SHAPE" d="M-1863.026,12049.04a15.8,15.8,0,0,1,6.56-16.447,15.723,15.723,0,0,1,5.5-2.355l222.566-48.593a15.788,15.788,0,0,1,18.8,12.067,15.808,15.808,0,0,1-12.061,18.8l-222.566,48.59a15.861,15.861,0,0,1-3.386.367A15.788,15.788,0,0,1-1863.026,12049.04Zm-168.569-245.625a15.8,15.8,0,0,1-8.274-8.816l-30.092-79.754a15.8,15.8,0,0,1,5.9-18.646,15.753,15.753,0,0,1,3.3-1.707l79.742-30.117a15.784,15.784,0,0,1,20.353,9.194l30.1,79.754a15.768,15.768,0,0,1-.385,12.086,15.746,15.746,0,0,1-8.816,8.276l-79.745,30.113a15.835,15.835,0,0,1-5.581,1.018A15.773,15.773,0,0,1-2031.6,11803.415Zm-3.239-84.949,18.948,50.2,50.185-18.954-18.939-50.2Zm1096.881-82.951a74.37,74.37,0,0,1-37.425-43.4,74.405,74.405,0,0,1,4.232-57.167,15.743,15.743,0,0,1,5.219-5.958,15.782,15.782,0,0,1,15.991-1.044,15.8,15.8,0,0,1,7,21.216,43,43,0,0,0-2.443,33.044,43.01,43.01,0,0,0,21.634,25.092,43.347,43.347,0,0,0,58.147-19.206,15.792,15.792,0,0,1,21.207-7,15.8,15.8,0,0,1,7,21.217,74.989,74.989,0,0,1-67.009,41.205A74.382,74.382,0,0,1-937.954,11635.515Zm-880.9-301.356a30.788,30.788,0,0,1,3.494-43.335,30.994,30.994,0,0,1,2.676-2.04,30.688,30.688,0,0,1,40.673,5.531,30.788,30.788,0,0,1-3.491,43.34,30.778,30.778,0,0,1-19.936,7.329A30.644,30.644,0,0,1-1818.85,11334.158Zm2179.648-72.7a59.47,59.47,0,0,1,24.368-62.377,59.1,59.1,0,0,1,90.716,35.454,59.474,59.474,0,0,1-24.359,62.383,59.1,59.1,0,0,1-90.725-35.46Zm51.287-40.25a27.412,27.412,0,0,0-9.185,4.015,27.515,27.515,0,0,0,21.713,49.562,27.35,27.35,0,0,0,9.173-4.008,27.513,27.513,0,0,0-21.7-49.568Zm-2881.994-43.171-20.665-8a15.775,15.775,0,0,1-8.743-8.353,15.784,15.784,0,0,1-.279-12.083l8.008-20.668a15.8,15.8,0,0,1,5.861-7.365,15.928,15.928,0,0,1,2.491-1.381,15.79,15.79,0,0,1,12.085-.275l20.659,8.008a15.791,15.791,0,0,1,9.015,20.429l-8,20.659a15.765,15.765,0,0,1-8.347,8.749,15.781,15.781,0,0,1-6.384,1.347A15.85,15.85,0,0,1-2469.909,11178.04Zm2167.723-18.957-56.676-45.16a15.8,15.8,0,0,1-4.95-17.9l25.436-67.884a15.793,15.793,0,0,1,5.922-7.529,15.771,15.771,0,0,1,9.57-2.713l72.41,3.209a15.8,15.8,0,0,1,14.522,11.571l19.315,69.872a15.808,15.808,0,0,1-6.358,17.281l-.163.108-60.479,39.962a15.783,15.783,0,0,1-8.711,2.618A15.764,15.764,0,0,1-302.187,11159.083Zm-28.016-62.725,38.73,30.858,41.324-27.308-13.193-47.745-49.48-2.192Zm-814.43-82.125-32.363-64.85a15.8,15.8,0,0,1,3.058-18.319l51.672-50.839a15.786,15.786,0,0,1,2.213-1.813,15.789,15.789,0,0,1,16.151-.941l64.305,33.432a15.792,15.792,0,0,1,8.289,16.614l-11.931,71.507a15.793,15.793,0,0,1-13.239,13.024l-71.683,10.75a15.835,15.835,0,0,1-2.342.175A15.8,15.8,0,0,1-1144.632,11014.233Zm1.029-68.694,22.112,44.314,48.983-7.351,8.153-48.862-43.943-22.848Zm-1282.745-23.463a15.787,15.787,0,0,1-10.1-6.648l-47.836-70.557a15.8,15.8,0,0,1,4.205-21.937l0,0,70.544-47.848a15.783,15.783,0,0,1,21.934,4.205l47.836,70.551a15.794,15.794,0,0,1-4.2,21.937l0,0-70.548,47.854a15.786,15.786,0,0,1-8.866,2.727A15.745,15.745,0,0,1-2426.348,10922.076Zm-22.921-81.864,30.108,44.406,44.4-30.116-30.108-44.406Zm349.19,61.212-71.081-14.187a15.793,15.793,0,0,1-12.594-13.645l-8.468-71.986a15.8,15.8,0,0,1,6.812-14.913,15.772,15.772,0,0,1,2.268-1.28l65.837-30.325a15.79,15.79,0,0,1,18.213,3.633l49.168,53.267a15.8,15.8,0,0,1,2.168,18.443l-35.454,63.225a15.8,15.8,0,0,1-13.768,8.076A15.811,15.811,0,0,1-2100.078,10901.424Zm-59.431-92.112,5.785,49.189,48.578,9.69,24.228-43.2-33.6-36.4Zm948.5-55.825-90.828-30.259a15.8,15.8,0,0,1-9.993-19.981,15.777,15.777,0,0,1,6.106-8.071,15.762,15.762,0,0,1,13.872-1.922l90.828,30.256a15.8,15.8,0,0,1,9.994,19.983,15.8,15.8,0,0,1-14.982,10.809A15.761,15.761,0,0,1-1211,10753.486Zm-716.6-8.156a15.807,15.807,0,0,1-10.723-5.592l-14.232-16.992a15.8,15.8,0,0,1-3.624-11.535,15.809,15.809,0,0,1,5.595-10.72l16.993-14.231a15.834,15.834,0,0,1,1.29-.969,15.784,15.784,0,0,1,20.959,2.937l14.223,16.983a15.8,15.8,0,0,1-1.965,22.252l-16.984,14.237a15.856,15.856,0,0,1-10.153,3.69Q-1926.91,10745.391-1927.6,10745.33Zm591.222-153.054-58.49-90.779a15.794,15.794,0,0,1-.769-15.776,15.741,15.741,0,0,1,5.18-5.852,15.746,15.746,0,0,1,8.1-2.706l107.86-5.28a15.784,15.784,0,0,1,14.047,7.218,15.79,15.79,0,0,1,.769,15.778l-49.371,96.06a15.794,15.794,0,0,1-13.278,8.556q-.388.019-.774.019A15.793,15.793,0,0,1-1336.379,10592.276Zm-17.114-84.895,28.854,44.782,24.355-47.389Zm-260.308-311.9a15.8,15.8,0,0,1,4.232-21.894.445.445,0,0,1,.048-.03l79.415-53.491a15.789,15.789,0,0,1,21.921,4.277,15.8,15.8,0,0,1-4.232,21.895c-.015.009-.03.021-.048.03l-79.415,53.491a15.726,15.726,0,0,1-8.811,2.7A15.76,15.76,0,0,1-1613.8,10195.48Zm1083.939-1.147a15.8,15.8,0,0,1,3.073-22.127l181.708-137.45c.218-.167.442-.324.669-.479a15.8,15.8,0,0,1,21.458,3.548,15.8,15.8,0,0,1-3.076,22.128l-181.7,137.45a15.756,15.756,0,0,1-9.522,3.2A15.763,15.763,0,0,1-529.863,10194.333Zm-256.921-128.214a15.793,15.793,0,0,1-15.485-16.093,15.785,15.785,0,0,1,16.1-15.491,43.367,43.367,0,0,0,44.118-42.457,43.346,43.346,0,0,0-42.45-44.13,15.792,15.792,0,0,1-15.485-16.1,15.778,15.778,0,0,1,6.936-12.77,15.689,15.689,0,0,1,9.164-2.718,74.974,74.974,0,0,1,73.421,76.32,75,75,0,0,1-74.867,73.453C-785.814,10066.134-786.3,10066.129-786.784,10066.119Zm-248.8-50.055a30.8,30.8,0,0,1-14.289-41.085,30.786,30.786,0,0,1,10.4-12.046,30.849,30.849,0,0,1,30.668-2.249,30.8,30.8,0,0,1,14.292,41.078,30.777,30.777,0,0,1-10.405,12.046,30.818,30.818,0,0,1-17.308,5.3A30.7,30.7,0,0,1-1035.582,10016.064Zm-21.056-172.435a59.185,59.185,0,0,1-17.229-81.8,58.718,58.718,0,0,1,16.291-16.614,58.978,58.978,0,0,1,65.5-.608,58.684,58.684,0,0,1,25.536,37.321,58.72,58.72,0,0,1-8.328,44.461,58.8,58.8,0,0,1-16.3,16.626,59.038,59.038,0,0,1-33.2,10.234A59,59,0,0,1-1056.637,9843.63Zm16.8-72.276a27.333,27.333,0,0,0-7.565,7.729,27.548,27.548,0,0,0,8.02,38.076,27.442,27.442,0,0,0,30.486-.282,27.333,27.333,0,0,0,7.575-7.744,27.338,27.338,0,0,0,3.878-20.692,27.316,27.316,0,0,0-11.886-17.365,27.509,27.509,0,0,0-15.047-4.489A27.479,27.479,0,0,0-1039.838,9771.354Z" fill="#9f00ee"/>
        <path id="SHAPE-5" data-name="SHAPE" d="M6000.371,7093.938a30.752,30.752,0,0,1-15.392-56.147,30.746,30.746,0,1,1,17.2,56.2Q6001.275,7093.991,6000.371,7093.938Zm-133.337-178.422-5.389-21.49a15.795,15.795,0,0,1,11.479-19.169l21.5-5.4a15.782,15.782,0,0,1,19.162,11.481l5.381,21.5a15.786,15.786,0,0,1-11.481,19.158l-21.49,5.394a15.768,15.768,0,0,1-19.162-11.47Zm558.238-98.955a74.889,74.889,0,0,1,11.5-105.284q2.41-1.936,4.942-3.658a74.875,74.875,0,0,1,100.326,15.124,15.8,15.8,0,0,1-24.642,19.783,43.3,43.3,0,0,0-67.5,54.25,15.8,15.8,0,0,1-24.627,19.785Zm-163.032-153.6a59.1,59.1,0,0,1-8.041-102.342,59.043,59.043,0,1,1,8.041,102.342Zm9.695-76.207a27.314,27.314,0,1,0,15.459-4.8A27.5,27.5,0,0,0,6271.934,6586.752Zm805.319-382.6-107.879-4.681a15.79,15.79,0,0,1-12.63-24.266l58.035-91.092a15.794,15.794,0,0,1,27.331,1.187l49.845,95.773a15.8,15.8,0,0,1-14.028,23.092Q7077.591,6204.164,7077.253,6204.15Zm-79.166-35.058,53.217,2.311-24.589-47.248ZM6535.5,6058.232l-69.3-80.374a15.816,15.816,0,0,1,1.805-24.727c.025-.019.059-.042.086-.061a15.765,15.765,0,0,1,5.919-2.446l106.085-20.2a15.788,15.788,0,0,1,17.859,20.714l-35.585,101.973a15.794,15.794,0,0,1-26.874,5.116Zm-28.715-81.691,34.78,40.343,17.557-50.308Zm-1027.99-154.453a59.059,59.059,0,1,1,58.691,52.638A59.048,59.048,0,0,1,5478.794,5822.088Zm55.75-33.811a27.2,27.2,0,0,0-12.417,4.558,27.511,27.511,0,0,0,18.412,50.135,27.173,27.173,0,0,0,12.415-4.558,27.508,27.508,0,0,0-18.41-50.135ZM5310,5726.387,5297.626,5708a15.8,15.8,0,0,1,4.234-21.891.509.509,0,0,0,.057-.039l18.393-12.373a15.788,15.788,0,0,1,21.918,4.288l12.362,18.386a15.8,15.8,0,0,1-4.242,21.882.44.44,0,0,1-.051.037l-18.38,12.371a15.78,15.78,0,0,1-21.917-4.276Zm1128.681-24.078a15.788,15.788,0,0,1-12.117-18.761l47.934-222.737a15.793,15.793,0,1,1,30.882,6.637l-47.934,222.735a15.78,15.78,0,0,1-18.765,12.126Zm-1433.9-59.5-71.127-46.934a15.783,15.783,0,0,1-4.477-21.88l46.961-71.146a15.771,15.771,0,0,1,21.88-4.486l71.124,46.936a15.785,15.785,0,0,1,4.477,21.88l-46.958,71.144a15.773,15.773,0,0,1-21.88,4.486Zm-40.542-64.6,44.763,29.538,29.553-44.772-44.762-29.54Zm720.189,38.856a30.781,30.781,0,1,1,7.549.942A30.781,30.781,0,0,1,5684.434,5617.064ZM7298,5497.741l-203.3-102.694a15.8,15.8,0,0,1,14.251-28.2l203.3,102.7A15.8,15.8,0,1,1,7298,5497.741ZM5049.571,5357.168l-72.062-7.76a15.772,15.772,0,0,1-13.762-12.455l-14.865-70.935a15.8,15.8,0,0,1,6.587-16.307c.329-.224.667-.434,1.011-.636l62.862-36.084a15.805,15.805,0,0,1,18.463,1.985l53.725,48.626a15.79,15.79,0,0,1,3.808,18.171l-29.663,66.146a15.79,15.79,0,0,1-16.1,9.249Zm-67.417-86.408,10.156,48.47,49.242,5.3,20.27-45.2-36.713-33.225Zm1446.094-102.055-14.144-94.684a15.793,15.793,0,1,1,31.238-4.683l14.143,94.683a15.814,15.814,0,0,1-13.284,17.963,15.977,15.977,0,0,1-2.357.176A15.784,15.784,0,0,1,6428.249,5168.706ZM6931.4,5051.431a74.864,74.864,0,0,1-22.881-103.393,15.792,15.792,0,1,1,26.632,16.978,43.283,43.283,0,1,0,73.009,46.513,15.791,15.791,0,1,1,26.633,16.973,74.942,74.942,0,0,1-103.393,22.93Zm-2345.461-41.889a30.75,30.75,0,0,1-15.387-56.143,30.864,30.864,0,0,1,19.123-5.245,30.747,30.747,0,0,1,15.387,56.138,30.941,30.941,0,0,1-17.306,5.305Q4586.844,5009.6,4585.936,5009.542Zm1628.48-30.6-32.683-64.669a15.8,15.8,0,0,1,2.964-18.327l51.411-51.111a15.812,15.812,0,0,1,18.351-2.854l64.469,33.1a15.79,15.79,0,0,1,8.374,16.57l-11.579,71.558a15.832,15.832,0,0,1-13.172,13.093l-71.618,11.119a15.783,15.783,0,0,1-16.517-8.48Zm.686-68.685,22.334,44.188,48.938-7.6,7.912-48.9-44.054-22.619Zm-634.763-71.267-86.623-40.736a15.8,15.8,0,0,1,13.452-28.59l86.622,40.736a15.8,15.8,0,1,1-13.451,28.59Zm-569.5-106.826a74.9,74.9,0,0,1,11.5-105.286c1.608-1.287,3.259-2.509,4.944-3.652a74.882,74.882,0,0,1,100.326,15.122,15.8,15.8,0,0,1-24.637,19.789,43.3,43.3,0,0,0-67.5,54.247,15.79,15.79,0,0,1-2.43,22.2,15.62,15.62,0,0,1-9.866,3.5A15.8,15.8,0,0,1,5010.836,4732.166Zm1265.549-273.135-85.148-3.621a15.79,15.79,0,0,1-15.105-16.455l3.658-85.16a15.809,15.809,0,0,1,16.46-15.107l85.15,3.624a15.793,15.793,0,0,1,15.107,16.455l-3.661,85.156a15.808,15.808,0,0,1-15.767,15.122Q6276.733,4459.045,6276.385,4459.031Zm-68.014-34.51,53.59,2.279,2.3-53.6-53.592-2.283Z" fill="#ff00ce"/>
        <path id="SHAPE-6" data-name="SHAPE" d="M6018.227,6785.775a15.794,15.794,0,0,1-3.094-22.12l57.684-76.473a15.789,15.789,0,1,1,25.216,19.009l-57.682,76.473a15.792,15.792,0,0,1-22.124,3.111Zm-104.036-445.226-65.664-83.335a15.789,15.789,0,0,1,2.31-24.242.617.617,0,0,0,.088-.059,15.759,15.759,0,0,1,6.606-2.566l106.9-15.527a15.781,15.781,0,0,1,16.925,21.482l-40.08,100.314a15.8,15.8,0,0,1-27.081,3.933Zm-25.062-82.872,32.959,41.827,19.774-49.488Zm443.683-60-62.185-219.117a15.8,15.8,0,0,1,30.4-8.651l62.183,219.119a15.8,15.8,0,0,1-30.4,8.65Zm501.316-330.255-8.573-20.42a15.788,15.788,0,0,1,8.455-20.685l20.433-8.592a15.788,15.788,0,0,1,20.681,8.436l8.573,20.426a15.81,15.81,0,0,1-8.455,20.685l-20.435,8.588a15.78,15.78,0,0,1-20.679-8.438Zm523.241-205.632a15.8,15.8,0,0,1,17.578-26.265,43.312,43.312,0,0,0,48.15-72.008,15.8,15.8,0,0,1,17.57-26.267,74.912,74.912,0,0,1-27.081,135.714,75.694,75.694,0,0,1-14.783,1.465A74.3,74.3,0,0,1,7357.368,5661.793Zm-602.421-145.012a15.778,15.778,0,0,1-6.312-10.307l-13.292-84.187a15.812,15.812,0,0,1,13.142-18.073l84.2-13.359a15.781,15.781,0,0,1,18.065,13.125l13.29,84.183a15.814,15.814,0,0,1-13.142,18.075l-84.2,13.361a15.791,15.791,0,0,1-11.755-2.818Zm14.069-83.843,8.362,52.985,53-8.41-8.363-52.982Zm-580.634,13.78-92.914-51.556a15.793,15.793,0,0,1-2.766-27.647c.021-.015.057-.038.086-.058.244-.165.488-.327.745-.48l92.643-55.593a15.79,15.79,0,0,1,23.917,13.275l1.752,107.98a15.8,15.8,0,0,1-23.465,14.08Zm-55.138-66.739,46.572,25.843-.869-53.269Zm-515.953,5.985a15.8,15.8,0,0,1,14.039-17.386l95.22-10.2a15.793,15.793,0,1,1,3.338,31.41l-95.22,10.2a16,16,0,0,1-1.7.091A15.784,15.784,0,0,1,5617.291,5385.964Zm1752.889-21.883a30.719,30.719,0,0,1-20.581-38.292,30.762,30.762,0,1,1,20.581,38.292Zm-2084.139-52.413a74.859,74.859,0,0,1-13.47-105.039,15.79,15.79,0,1,1,25,19.3A43.28,43.28,0,1,0,5366.1,5278.8a15.789,15.789,0,1,1,24.994,19.3,74.986,74.986,0,0,1-105.053,13.564Zm440.416-77.961a15.814,15.814,0,0,1,11.973-18.876l222.338-49.9a15.794,15.794,0,1,1,6.894,30.828l-222.338,49.9a15.773,15.773,0,0,1-18.867-11.954Zm-1153.828-28.068a15.776,15.776,0,0,1-9.934-6.888l-11.982-18.626a15.8,15.8,0,0,1,4.417-21.613c.109-.073.216-.148.329-.216l18.643-12a15.794,15.794,0,0,1,21.829,4.727l11.979,18.624a15.8,15.8,0,0,1-4.417,21.613c-.1.07-.212.143-.323.214l-18.641,12a15.8,15.8,0,0,1-11.9,2.164ZM6698.074,4970.46l-54.941-47.233a15.789,15.789,0,0,1-4.267-18.065l27.979-66.882a15.82,15.82,0,0,1,15.866-9.661l72.246,5.89a15.782,15.782,0,0,1,14.078,12.1l16.666,70.529a15.818,15.818,0,0,1-7.171,17.132l-61.949,37.7a15.788,15.788,0,0,1-18.508-1.508Zm-25.631-63.714,37.542,32.274,42.328-25.762-11.386-48.191-49.368-4.027Zm-1697.613-69.61a30.734,30.734,0,1,1,33.435,27.791q-1.434.132-2.849.131A30.769,30.769,0,0,1,4974.83,4837.136Zm218.256-126.841a59.409,59.409,0,0,1,25.227-58.177,59.105,59.105,0,0,1,91.542,39.647,59.423,59.423,0,0,1-25.237,58.177,58.691,58.691,0,0,1-23.934,9.455,59.034,59.034,0,0,1-67.6-49.1Zm54.089-36.435a27.279,27.279,0,0,0-11.13,4.387,27.506,27.506,0,0,0,19.711,49.948,27.223,27.223,0,0,0,11.13-4.389,27.5,27.5,0,0,0-19.711-49.946Zm423.162,30.609-16.792-83.555a15.818,15.818,0,0,1,12.378-18.611l83.577-16.853a15.783,15.783,0,0,1,18.6,12.359l16.8,83.553a15.814,15.814,0,0,1-12.376,18.609l-83.583,16.857a15.774,15.774,0,0,1-18.6-12.359Zm17.294-74.321,10.571,52.589,52.6-10.607-10.571-52.591ZM6756.8,4672.855a59.122,59.122,0,1,1,44.477,20.114A59.168,59.168,0,0,1,6756.8,4672.855Zm26.323-59.648a27.5,27.5,0,0,0,33.526,43.465,28.19,28.19,0,0,0,2.727-2.111,27.5,27.5,0,0,0-36.252-41.354Zm-124.993-823.383a15.8,15.8,0,0,1-9.937-6.886l-11.984-18.626a15.807,15.807,0,0,1,4.422-21.619c.107-.071.216-.145.325-.212l18.647-12a15.793,15.793,0,0,1,21.833,4.728l11.977,18.624a15.757,15.757,0,0,1-4.747,21.827l-18.64,12a15.814,15.814,0,0,1-11.9,2.163Z" fill="#5421ff"/>
      </g>
    </g>
  </g>
</svg>
