<svg xmlns="http://www.w3.org/2000/svg" xmlns:xlink="http://www.w3.org/1999/xlink" width="805" height="511" viewBox="0 0 805 511">
  <defs>
    <clipPath id="clip-path">
      <rect id="CARD" width="805" height="511" rx="35" transform="translate(3559 9519)" fill="#0063ff"/>
    </clipPath>
  </defs>
  <g id="_38_-_DESIGN_CARD" data-name="38 - DESIGN CARD" transform="translate(-3559 -9519)">
    <g id="CARD-2" data-name="CARD">
      <rect id="CARD-3" data-name="CARD" width="805" height="511" rx="35" transform="translate(3559 9519)" fill="#0063ff"/>
      <g id="Clip" clip-path="url(#clip-path)">
        <path id="SHAPE" d="M3458.84,9934.621c150.14-141.679,640.951,75.076,552.758-15.885s-310.754-146.143-240.751-274.116c128.59-235.073,459.493,267.685,467.619,172.025,4-47.049-181.191-162.345-94.473-247,143.087-139.674,337.556,336.449,419.37,229.761,34.977-45.607-90.734-121.025-13.285-196.3,34.2-33.243,115.127,23,132.92,119.19V10037H3409C3409.215,10002.5,3424.6,9966.927,3458.84,9934.621Z" fill="#151f61"/>
        <path id="SHAPE-2" data-name="SHAPE" d="M4153,10025c163.151-3.5,234.255-70.576,234.255-70.576S4233.176,10005.214,4092,9976a339.821,339.821,0,0,1-14.4-101.4,140.636,140.636,0,0,0,24.029,7.294c121.52,24.671,264.656-12.28,284.375-17.9a1.515,1.515,0,0,0,1-2s-176.154,10.457-305-41c7.16-47.1,23.353-96.129,50.241-147.822a351.793,351.793,0,0,1,31.085-49.331c124.246,126,301.322,179.644,301.322,179.644S4451.527,9791.858,4427,9774c-57.181-41.636-163.635-121.812-227-192,37.479-36.54,77.526-62.964,128.124-82.112,102.707,52.3,197.543,140.431,197.543,140.431s-12.592-57.549-107.06-165.685a484.559,484.559,0,0,1,134.249-3.6c32.069,100.785,62.631,240.576,62.631,240.576s19.782-95.02,3.532-228.832a523.443,523.443,0,0,1,62.4,19.585V10037H4115.345c-2.424-5.222-4.139-9.062-6.346-14A323.729,323.729,0,0,0,4153,10025Z" fill="#faddd7"/>
        <path id="SHAPE-3" data-name="SHAPE" d="M4152.278,10024.118c163.472-3.507,234.991-69.907,234.991-69.907s-154.613,52.091-296.067,22.8a348.674,348.674,0,0,1-14.2-102.826,140.856,140.856,0,0,0,24.075,7.313c131.167,26.645,285.847-18.507,285.847-18.507s-176.471,9.569-305.572-42.019a442.71,442.71,0,0,1,24.969-92.541c73.265,68.164,128.508,126.346,131.767,87.871,2.559-30.188-72.418-88.426-103.872-148.679a352.381,352.381,0,0,1,28.684-44.84c124.491,126.319,301.916,180.1,301.916,180.1s-175.4-120.4-266.126-220.955A372.032,372.032,0,0,1,4235.9,9550c125.064,48.834,261.552,334.166,326.64,249.041,34.93-45.679-90.609-121.214-13.266-196.608,9.964-9.713,23.9-11.786,39.082-7.476,16.189,63.638,27.591,115.822,27.591,115.822s7.426-35.707,9.453-94.176c25.281,22.357,48.13,59.219,56.612,105.205V10037h-567.19c-2.427-5.236-4.75-9.843-6.961-14.794A330.088,330.088,0,0,0,4152.278,10024.118Z" fill="#f47c6a"/>
      </g>
    </g>
  </g>
</svg>
