<svg xmlns="http://www.w3.org/2000/svg" xmlns:xlink="http://www.w3.org/1999/xlink" width="158.415" height="143.174" viewBox="0 0 158.415 143.174">
  <defs>
    <linearGradient id="linear-gradient" x1="0.5" x2="0.5" y2="1" gradientUnits="objectBoundingBox">
      <stop offset="0" stop-color="#3f94ff"/>
      <stop offset="1" stop-color="#3f94ff"/>
    </linearGradient>
    <linearGradient id="linear-gradient-2" x1="0.207" y1="0.174" x2="0.207" y2="0.057" gradientUnits="objectBoundingBox">
      <stop offset="0" stop-color="#4988fd"/>
      <stop offset="1" stop-color="#3973f4"/>
    </linearGradient>
  </defs>
  <g id="Grupo_1786" data-name="Grupo 1786" transform="translate(-15689.24 -4758.947)">
    <path id="Shape" d="M14.853,89.813a20.029,20.029,0,0,1-4.3-10.457L8.765,78.5c-5.372,1.289-5.014-4.441-6.374-15.471-.573-4.656.143-5.515,2.149-6.231L6.259,54.5C-4.127,31.01,1.1,16.256,11.344,11.1,7.906,3.65,7.763,1,7.763,1S29.608,4.653,37.128,3.149c9.526-1.862,24.209.358,29.652,13.035C75.8,19.765,79.386,25.5,80.174,31.655c1.289,9.884-4.3,20.7-5.372,24.925a3.114,3.114,0,0,0,.286.5c1.432.716,1.862,1.934,1.432,5.945C75.232,73.554,75.518,80,70.147,78.5,63.2,90.959,67.21,86.088,48.015,104.209a10.476,10.476,0,0,1-13.322-.215c-13.25-9.239-18.622-12.248-19.84-14.181" transform="translate(15767.237 4795.627)" fill="#f7ddb8"/>
    <path id="Shape-2" data-name="Shape" d="M74.83,56.48c.43-2.578-.716-5.945-1.719-8.237-.143-.358-.358-.788-.5-1.146-4.154-8.38-13.537-11.889-22.346-12.319-22.7-1.218-24.853,3.151-31.872-3.366,2.149,3.295,2.435,8.523-1,15.041-2.364,4.584-6.947,6.589-11.03,7.95C-4.027,30.91,1.2,16.156,11.444,11,8.006,3.55,7.863.9,7.863.9S29.708,4.553,37.228,3.049c9.526-1.862,24.209.358,29.652,13.035C75.9,19.665,79.486,25.4,80.274,31.555,81.491,41.367,75.9,52.182,74.83,56.48Z" transform="translate(15767.209 4795.656)" fill="url(#linear-gradient)"/>
    <path id="Trazado_526" data-name="Trazado 526" d="M35.166,76.129l-.333-.333A15.628,15.628,0,0,0,33.1,74.331l-2.8-1.8c-.333-.2-.666-.4-.932-.6-2.931-1.8-5.728-3.73-5.795-5.728-.067-1.265.866-2.731,2.864-4.329a26.249,26.249,0,0,0,2.931,3.33A21.461,21.461,0,0,0,32.3,67.537c.666.466,1.332.932,1.932,1.4.133.133.266.2.4.333l.6.4m-.067,0-.6-.4C40.028,72,46.888,73.532,56.613,67.737h0c6.594-5.462,12.055-11.856,13.654-20.181a8.244,8.244,0,0,0,6.394-8.925c-.2-1.932-1.332-3.53-1.4-5.462,0-.932,0-1.865-.067-2.8,0-.6-.067-1.265-.067-1.865a18.982,18.982,0,0,0-.2-1.932,29,29,0,0,0-3.264-10.191A30.828,30.828,0,0,0,25.974,6.128l-2,1.6c-.133.133-.333.266-.466.4a30.247,30.247,0,0,0-8.126,12.588,34.09,34.09,0,0,0-1.332,14.853.6.6,0,0,0,.067.333.845.845,0,0,0,.067.4c.133.866.4.733-.2,1.532a9.744,9.744,0,0,0-.6.866,6.812,6.812,0,0,0-.6,5.728c1.532,4.4,4.729,3.863,7.593,6.327a2.82,2.82,0,0,0-.466.333l-.133.067-3.264,1C-1.267,57.746-4.664,75.463,9.923,81.524L29.238,72c.333.2.666.4.932.6.932.6,1.932,1.2,2.8,1.8A10.669,10.669,0,0,1,34.7,75.863c.133.067.2.2.333.333" transform="translate(15688.447 4758.947)" fill="#f7ddb8"/>
    <path id="Trazado_527" data-name="Trazado 527" d="M84.5,101.7l-.2.2h0Q84.5,101.8,84.5,101.7Z" transform="translate(15660.56 4724.984)" fill="url(#linear-gradient-2)"/>
    <path id="Shape-3" data-name="Shape" d="M81.67,28.54A44.384,44.384,0,0,1,63.953,30.8,44.587,44.587,0,0,1,38.177,19.948c-2.331,6.86-8.326,11.989-14.919,14.919-.866.4-1.8.733-2.731,1.132a.6.6,0,0,0-.067-.333,34,34,0,0,1,1.332-14.853A29.832,29.832,0,0,1,29.918,8.226c.133-.133.333-.266.466-.4.666-.533,1.332-1.132,2-1.6A31.656,31.656,0,0,1,43.839.9,30.863,30.863,0,0,1,78.073,16.485a29,29,0,0,1,3.264,10.191A5.468,5.468,0,0,1,81.67,28.54Z" transform="translate(15681.972 4758.914)" fill="url(#linear-gradient)"/>
    <path id="Shape-4" data-name="Shape" d="M39.7,93.8a34.018,34.018,0,0,0,2.531,2.731V96.6C41.3,95.6,40.433,94.666,39.7,93.8Z" transform="translate(15675.454 4727.623)" fill="#3973f4"/>
    <path id="Shape-5" data-name="Shape" d="M39.147,121.159c-2.531,3.13-7.127,3.264-11.19,3.2,4.2-4.063,1.8-17.384-12.788-15.719h-.133C-5.079,104.841-2.881,83.927,16.7,77.8l3.264-1c.2.133.4.333.6.466a36.118,36.118,0,0,0,5.928,10.257c-7.993,6.727,3.13,8.792,8.525,13.854C39.613,104.108,43.476,115.7,39.147,121.159Z" transform="translate(15688.396 4733.3)" fill="url(#linear-gradient)"/>
    <path id="Shape-6" data-name="Shape" d="M39.433,93.4c-.133-.133-.2-.266-.333-.4C39.233,93.133,39.3,93.266,39.433,93.4Z" transform="translate(15675.654 4727.89)" fill="#3973f4"/>
  </g>
</svg>
