<svg xmlns="http://www.w3.org/2000/svg" xmlns:xlink="http://www.w3.org/1999/xlink" width="143.312" height="123.855" viewBox="0 0 143.312 123.855">
  <defs>
    <linearGradient id="linear-gradient" x1="0.5" x2="0.5" y2="1" gradientUnits="objectBoundingBox">
      <stop offset="0" stop-color="#3f94ff"/>
      <stop offset="1" stop-color="#3f94ff"/>
    </linearGradient>
    <linearGradient id="linear-gradient-2" x1="0.5" x2="0.5" y2="1" gradientUnits="objectBoundingBox">
      <stop offset="0" stop-color="#b79aff"/>
      <stop offset="1" stop-color="#a388ff"/>
    </linearGradient>
  </defs>
  <g id="Grupo_1785" data-name="Grupo 1785" transform="translate(-15975.143 -4766.03)">
    <path id="Shape" d="M115.056,75.642a6.6,6.6,0,0,1-11.156,4.64v-.855a6.458,6.458,0,0,1,6.466-6.227,6.877,6.877,0,0,1,4.691,1.709Z" transform="translate(15978.464 4742.765)" fill="#7439ff"/>
    <path id="Shape-2" data-name="Shape" d="M142.761,84.961a13.878,13.878,0,0,0-.1-2.171c-.93-6.823-6.72-1.964-12.2-5.169a11.719,11.719,0,0,1-3-2.688c-6.1-8.064-13.957-13.854-7.34-27.087.31-.517.62-1.137.93-1.654h0a1.927,1.927,0,0,0-1.861-2.791h-.207c-11.786,1.758-10.855,6.72-18.3,6.617-9.408-.1-29.361,0-45.8,0a35.426,35.426,0,0,0-30.7,54.38c8.064,12.923,14.887,26.466,19.023,41.147.517,1.861,1.344,2.274,3.515,2.274,1.551,0,3.722-.1,6.823,0a3.047,3.047,0,0,0,3.2-2.378c.93-3,1.964-6,2.895-8.994a3.8,3.8,0,0,1,4.239-3.1c6.41.207,12.923.31,19.333.517a6.6,6.6,0,0,1,6.2,4.342,5.04,5.04,0,0,1,.31.724l2.171,6.513a3.315,3.315,0,0,0,3.618,2.688h.1c9.2-.207,9.718.724,10.959-3.515,1.861-6.513,3.722-12.923,5.583-19.436,3.1-10.959,11.889-7.34,29.258-24.089C143.278,99.124,142.864,96.333,142.761,84.961Zm-32.256-3.2a5.188,5.188,0,0,1-1.241-.207,5.523,5.523,0,0,1-4.135-5.273,5.342,5.342,0,0,1,10.545-1.137,4.635,4.635,0,0,1,.1,1.137A5.215,5.215,0,0,1,110.505,81.756Z" transform="translate(15975.581 4741.756)" fill="url(#linear-gradient)"/>
    <path id="Shape-3" data-name="Shape" d="M89.51,58.73a49.5,49.5,0,0,1,4.962.827,3.712,3.712,0,0,1-1.654,7.237c-8.788-1.964-28.637-2.585-38.459.93a5.189,5.189,0,0,1-1.241.207,3.575,3.575,0,0,1-3.412-2.378A3.756,3.756,0,0,1,51.879,60.8c5.686-2.068,14.164-2.895,22.331-3" transform="translate(15976.623 4742.243)" fill="#7439ff"/>
    <path id="Shape-4" data-name="Shape" d="M8.264,80.937A8.766,8.766,0,0,1,3.3,79.49a6.708,6.708,0,0,1-3-6.72,2.017,2.017,0,0,1,2.378-1.654,2.017,2.017,0,0,1,1.654,2.378,2.765,2.765,0,0,0,1.241,2.585,5.553,5.553,0,0,0,3.515.724,5.285,5.285,0,0,1-2.274-4.859,4.578,4.578,0,0,1,1.758-3.2A5.49,5.49,0,0,1,12.3,67.6a5.708,5.708,0,0,1,4.756,4.652,7.255,7.255,0,0,1-.1,2.585c1.137.207,2.274.414,3.308.62a2.091,2.091,0,0,1-.62,4.135c-1.654-.31-3.308-.517-5.066-.93A10.073,10.073,0,0,1,9.918,80.73,4.285,4.285,0,0,1,8.264,80.937Zm3.515-9.2a1.469,1.469,0,0,0-.62.207.784.784,0,0,0-.207.414,1.618,1.618,0,0,0,.827,1.137,4.476,4.476,0,0,0,1.241.517,3.517,3.517,0,0,0,.1-1.034,1.824,1.824,0,0,0-1.344-1.241Z" transform="translate(15974.955 4742.574)" fill="url(#linear-gradient-2)"/>
    <path id="Unión_1" data-name="Unión 1" d="M0,23.365a23.313,23.313,0,1,1,46.625,0A23.09,23.09,0,0,1,36.747,42.17a106.338,106.338,0,0,0-26.843.3A23.243,23.243,0,0,1,0,23.365Z" transform="translate(16027 4766.03)" fill="#ffc439"/>
    <g id="Grupo_1774" data-name="Grupo 1774" transform="translate(16037.256 4766.823)">
      <path id="Trazado_760" data-name="Trazado 760" d="M6.262,0,0,14" transform="translate(14.671 15.02)" fill="none" stroke="#fff" stroke-linecap="round" stroke-width="2.8"/>
      <ellipse id="Elipse_159" data-name="Elipse 159" cx="1.771" cy="1.771" rx="1.771" ry="1.771" transform="translate(21.677 25.704)" fill="#fff"/>
      <path id="Trazado_762" data-name="Trazado 762" d="M10.144-9.72a.761.761,0,0,1-.237.258.607.607,0,0,1-.321.077,1.026,1.026,0,0,1-.5-.153q-.272-.153-.655-.335a6.353,6.353,0,0,0-.9-.335,4.336,4.336,0,0,0-1.227-.153,3.654,3.654,0,0,0-1.067.146,2.528,2.528,0,0,0-.816.4A1.805,1.805,0,0,0,3.91-9.2a1.65,1.65,0,0,0-.181.76,1.264,1.264,0,0,0,.314.879,2.691,2.691,0,0,0,.823.6,8.019,8.019,0,0,0,1.158.453q.648.2,1.325.425t1.325.509A4.833,4.833,0,0,1,9.83-4.86a3.337,3.337,0,0,1,.823,1.025,3.128,3.128,0,0,1,.314,1.464,4.673,4.673,0,0,1-.356,1.834A4.013,4.013,0,0,1,9.565.92a4.949,4.949,0,0,1-1.708.962,7.174,7.174,0,0,1-2.329.349,7.329,7.329,0,0,1-2.706-.488A6.777,6.777,0,0,1,.744.5L1.386-.544a.829.829,0,0,1,.279-.3.834.834,0,0,1,.446-.1.951.951,0,0,1,.544.2q.279.2.669.425a5.067,5.067,0,0,0,.948.418A4.416,4.416,0,0,0,5.667.279,3.8,3.8,0,0,0,6.88.1,2.492,2.492,0,0,0,7.738-.37a1.919,1.919,0,0,0,.509-.69,2.067,2.067,0,0,0,.167-.823A1.383,1.383,0,0,0,8.1-2.81a2.692,2.692,0,0,0-.823-.635A6.608,6.608,0,0,0,6.113-3.9q-.655-.2-1.339-.418a13.716,13.716,0,0,1-1.339-.516,4.6,4.6,0,0,1-1.164-.739,3.434,3.434,0,0,1-.823-1.088,3.53,3.53,0,0,1-.314-1.562A3.772,3.772,0,0,1,1.476-9.8a3.9,3.9,0,0,1,.99-1.325,4.877,4.877,0,0,1,1.6-.913,6.46,6.46,0,0,1,2.183-.342,6.913,6.913,0,0,1,2.545.446,5.831,5.831,0,0,1,1.945,1.227Z" transform="translate(0 25.961)" fill="#fff"/>
    </g>
  </g>
</svg>
