<svg xmlns="http://www.w3.org/2000/svg" xmlns:xlink="http://www.w3.org/1999/xlink" width="94.939" height="94.172" viewBox="0 0 94.939 94.172">
  <defs>
    <linearGradient id="linear-gradient" x1="0.5" x2="0.5" y2="1" gradientUnits="objectBoundingBox">
      <stop offset="0" stop-color="#aa87ff"/>
      <stop offset="1" stop-color="#cabbff"/>
    </linearGradient>
    <linearGradient id="linear-gradient-2" x1="0.5" x2="0.5" y2="1" gradientUnits="objectBoundingBox">
      <stop offset="0" stop-color="#824eff"/>
      <stop offset="1" stop-color="#3a00ff"/>
    </linearGradient>
    <linearGradient id="linear-gradient-3" x1="0.333" y1="-0.045" x2="0.855" y2="1.518" gradientUnits="objectBoundingBox">
      <stop offset="0" stop-color="#a078ff"/>
      <stop offset="1" stop-color="#4f1cff"/>
    </linearGradient>
  </defs>
  <g id="Grupo_1784" data-name="Grupo 1784" transform="translate(-15820.744 -5141.406)">
    <rect id="bound" width="94.173" height="94.173" transform="translate(15821.511 5141.406)" fill="none"/>
    <circle id="Elipse_161" data-name="Elipse 161" cx="17.5" cy="17.5" r="17.5" transform="translate(15848 5170)" opacity="0.74" fill="url(#linear-gradient)"/>
    <path id="Combined-Shape-Copy" d="M3.924,0H78.477A3.924,3.924,0,0,1,82.4,3.924V43.162a3.924,3.924,0,0,1-3.924,3.924H3.924A3.924,3.924,0,0,1,0,43.162V3.924A3.924,3.924,0,0,1,3.924,0ZM41.2,39.239a15.7,15.7,0,1,0-15.7-15.7A15.7,15.7,0,0,0,41.2,39.239Z" transform="translate(15832.931 5155.088) rotate(15)" fill-rule="evenodd" opacity="0.5" fill="url(#linear-gradient-2)"/>
    <path id="Combined-Shape-Copy-2" data-name="Combined-Shape-Copy" d="M3.924,0H78.477A3.924,3.924,0,0,1,82.4,3.924V43.162a3.924,3.924,0,0,1-3.924,3.924H3.924A3.924,3.924,0,0,1,0,43.162V3.924A3.924,3.924,0,0,1,3.924,0ZM41.2,39.239a15.7,15.7,0,1,0-15.7-15.7A15.7,15.7,0,0,0,41.2,39.239Z" transform="translate(15825.435 5164.95)" fill-rule="evenodd" fill="url(#linear-gradient-3)"/>
  </g>
</svg>
