<?xml version="1.0" encoding="iso-8859-1"?>
<!-- Generator: Adobe Illustrator 19.0.0, SVG Export Plug-In . SVG Version: 6.00 Build 0)  -->
<svg fill="#fff" version="1.1" id="Capa_1" xmlns="http://www.w3.org/2000/svg" xmlns:xlink="http://www.w3.org/1999/xlink" x="0px" y="0px"
	 viewBox="0 0 512 512" style="enable-background:new 0 0 512 512;" xml:space="preserve">
<g>
	<g>
		<path d="M112,16H16C7.168,16,0,23.168,0,32v96c0,8.832,7.168,16,16,16h96c8.832,0,16-7.168,16-16V32C128,23.168,120.832,16,112,16
			z M96,112H32V48h64V112z"/>
	</g>
</g>
<g>
	<g>
		<path d="M112,192H16c-8.832,0-16,7.168-16,16v96c0,8.832,7.168,16,16,16h96c8.832,0,16-7.168,16-16v-96
			C128,199.168,120.832,192,112,192z M96,288H32v-64h64V288z"/>
	</g>
</g>
<g>
	<g>
		<path d="M112,368H16c-8.832,0-16,7.168-16,16v96c0,8.832,7.168,16,16,16h96c8.832,0,16-7.168,16-16v-96
			C128,375.168,120.832,368,112,368z M96,464H32v-64h64V464z"/>
	</g>
</g>
<g>
	<g>
		<rect x="192" y="32" width="96" height="32"/>
	</g>
</g>
<g>
	<g>
		<rect x="192" y="96" width="320" height="32"/>
	</g>
</g>
<g>
	<g>
		<rect x="192" y="208" width="96" height="32"/>
	</g>
</g>
<g>
	<g>
		<rect x="192" y="272" width="320" height="32"/>
	</g>
</g>
<g>
	<g>
		<rect x="192" y="384" width="96" height="32"/>
	</g>
</g>
<g>
	<g>
		<rect x="192" y="448" width="320" height="32"/>
	</g>
</g>
<g>
</g>
<g>
</g>
<g>
</g>
<g>
</g>
<g>
</g>
<g>
</g>
<g>
</g>
<g>
</g>
<g>
</g>
<g>
</g>
<g>
</g>
<g>
</g>
<g>
</g>
<g>
</g>
<g>
</g>
</svg>
