<svg id="Capa_1" fill="#e9ecee" enable-background="new 0 0 512 512" height="512" viewBox="0 0 512 512" width="512" xmlns="http://www.w3.org/2000/svg"><g><g><path d="m82.618 276.148c0 4.151 3.365 7.515 7.515 7.515h44.379c4.15 0 7.515-3.364 7.515-7.515v-33.525c0-4.151-3.365-7.515-7.515-7.515h-44.38c-4.15 0-7.515 3.364-7.515 7.515v33.525zm15.029-26.011h29.35v18.496h-29.35z"/><path d="m220.053 242.622c0-4.151-3.365-7.515-7.515-7.515h-44.379c-4.15 0-7.515 3.364-7.515 7.515v33.525c0 4.151 3.365 7.515 7.515 7.515h44.379c4.15 0 7.515-3.364 7.515-7.515zm-15.029 26.011h-29.35v-18.496h29.35z"/><path d="m298.08 242.622c0-4.151-3.364-7.515-7.515-7.515h-44.379c-4.15 0-7.515 3.364-7.515 7.515v33.525c0 4.151 3.365 7.515 7.515 7.515h44.379c4.151 0 7.515-3.364 7.515-7.515zm-15.03 26.011h-29.35v-18.496h29.35z"/><path d="m82.618 333.25c0 4.151 3.365 7.515 7.515 7.515h44.379c4.15 0 7.515-3.364 7.515-7.515v-33.526c0-4.151-3.365-7.515-7.515-7.515h-44.38c-4.15 0-7.515 3.364-7.515 7.515v33.526zm15.029-26.012h29.35v18.497h-29.35z"/><path d="m220.053 299.723c0-4.151-3.365-7.515-7.515-7.515h-44.379c-4.15 0-7.515 3.364-7.515 7.515v33.526c0 4.151 3.365 7.515 7.515 7.515h44.379c4.15 0 7.515-3.364 7.515-7.515zm-15.029 26.012h-29.35v-18.497h29.35z"/><path d="m298.08 299.723c0-4.151-3.364-7.515-7.515-7.515h-44.379c-4.15 0-7.515 3.364-7.515 7.515v33.526c0 4.151 3.365 7.515 7.515 7.515h44.379c4.151 0 7.515-3.364 7.515-7.515zm-15.03 26.012h-29.35v-18.497h29.35z"/><path d="m82.618 390.351c0 4.151 3.365 7.515 7.515 7.515h44.379c4.15 0 7.515-3.364 7.515-7.515v-33.526c0-4.151-3.365-7.515-7.515-7.515h-44.38c-4.15 0-7.515 3.364-7.515 7.515v33.526zm15.029-26.011h29.35v18.497h-29.35z"/><path d="m220.053 356.825c0-4.151-3.365-7.515-7.515-7.515h-44.379c-4.15 0-7.515 3.364-7.515 7.515v33.526c0 4.151 3.365 7.515 7.515 7.515h44.379c4.15 0 7.515-3.364 7.515-7.515zm-15.029 26.012h-29.35v-18.497h29.35z"/><path d="m298.08 356.825c0-4.151-3.364-7.515-7.515-7.515h-44.379c-4.15 0-7.515 3.364-7.515 7.515v33.526c0 4.151 3.365 7.515 7.515 7.515h44.379c4.151 0 7.515-3.364 7.515-7.515zm-15.03 26.012h-29.35v-18.497h29.35z"/><path d="m82.618 447.155c0 4.151 3.365 7.515 7.515 7.515h44.379c4.15 0 7.515-3.364 7.515-7.515v-33.526c0-4.151-3.365-7.515-7.515-7.515h-44.38c-4.15 0-7.515 3.364-7.515 7.515v33.526zm15.029-26.012h29.35v18.497h-29.35z"/><path d="m212.538 406.113h-44.379c-4.15 0-7.515 3.364-7.515 7.515v33.526c0 4.151 3.365 7.515 7.515 7.515h44.379c4.15 0 7.515-3.364 7.515-7.515v-33.526c0-4.15-3.364-7.515-7.515-7.515zm-7.514 33.527h-29.35v-18.497h29.35z"/><path d="m290.565 406.113h-44.379c-4.15 0-7.515 3.364-7.515 7.515v33.526c0 4.151 3.365 7.515 7.515 7.515h44.379c4.151 0 7.515-3.364 7.515-7.515v-33.526c0-4.15-3.364-7.515-7.515-7.515zm-7.515 33.527h-29.35v-18.497h29.35z"/><path d="m409.681 322.049c18.723 0 33.956-15.233 33.956-33.956 0-5.344-1.245-10.401-3.454-14.904 2.209-4.502 3.454-9.56 3.454-14.904 0-18.723-15.233-33.955-33.956-33.955s-33.956 15.232-33.956 33.955c0 5.344 1.245 10.401 3.454 14.904-2.209 4.502-3.454 9.56-3.454 14.904 0 18.723 15.233 33.956 33.956 33.956zm0-82.689c10.436 0 18.927 8.49 18.927 18.926 0 .533-.037 1.056-.08 1.578-5.396-3.614-11.879-5.727-18.847-5.727s-13.451 2.113-18.847 5.727c-.043-.521-.08-1.045-.08-1.578.001-10.436 8.491-18.926 18.927-18.926zm11.626 33.829c-3.212 2.511-7.242 4.023-11.626 4.023s-8.413-1.512-11.626-4.023c3.212-2.511 7.242-4.023 11.626-4.023s8.414 1.512 11.626 4.023zm-30.472 13.326c5.396 3.614 11.879 5.727 18.847 5.727s13.451-2.112 18.847-5.727c.043.522.08 1.045.08 1.578 0 10.436-8.49 18.927-18.927 18.927s-18.927-8.49-18.927-18.927c0-.533.036-1.056.08-1.578z"/><path d="m421.147 168.856c10.973 0 19.899-8.926 19.899-19.899v-30.8c0-10.972-8.926-19.899-19.899-19.899h-22.932c-10.973 0-19.899 8.927-19.899 19.899v30.8c0 10.973 8.927 19.899 19.899 19.899zm-27.802-19.899v-30.8c0-2.685 2.185-4.87 4.87-4.87h22.932c2.685 0 4.87 2.185 4.87 4.87v30.8c0 2.685-2.185 4.87-4.87 4.87h-22.932c-2.685 0-4.87-2.185-4.87-4.87z"/><path d="m457.382 57.049h-106.964v-24.722c0-17.825-14.502-32.327-32.328-32.327h-255.465c-17.825 0-32.327 14.502-32.327 32.327v65.702c0 4.151 3.364 7.515 7.515 7.515s7.515-3.364 7.515-7.515v-65.702c0-9.538 7.76-17.298 17.298-17.298h255.464c9.538 0 17.298 7.759 17.298 17.298v248.849c0 4.151 3.364 7.515 7.515 7.515s7.515-3.364 7.515-7.515v-209.098h106.964c5.123 0 9.291 4.167 9.291 9.291v36.98c0 4.151 3.364 7.515 7.515 7.515s7.515-3.364 7.515-7.515v-36.98c-.001-13.41-10.911-24.32-24.321-24.32z"/><path d="m474.187 140.893c-4.151 0-7.515 3.364-7.515 7.515v193.592c0 5.123-4.167 9.292-9.291 9.292h-106.963v-40.057c0-4.151-3.364-7.515-7.515-7.515s-7.515 3.364-7.515 7.515v168.439c0 9.538-7.76 17.297-17.298 17.297h-255.465c-9.538 0-17.298-7.759-17.298-17.297v-351.586c0-4.151-3.364-7.515-7.515-7.515s-7.515 3.364-7.515 7.515v351.585c.001 17.825 14.503 32.327 32.328 32.327h255.465c17.826 0 32.328-14.502 32.328-32.327v-113.352h106.964c13.41 0 24.32-10.91 24.32-24.321v-193.592c0-4.151-3.364-7.515-7.515-7.515z"/><path d="m298.14 60.141c0-4.151-3.364-7.515-7.515-7.515h-200.493c-4.15 0-7.515 3.364-7.515 7.515v146.477c0 4.151 3.365 7.515 7.515 7.515h200.493c4.151 0 7.515-3.364 7.515-7.515zm-15.029 138.962h-185.464v-131.447h185.464z"/><path d="m182.874 176.246v7.208c0 4.15 3.364 7.514 7.514 7.514 4.151 0 7.514-3.364 7.514-7.514v-7.002c5.665-1.201 9.545-3.777 12.031-6.116 4.904-4.615 7.832-11.58 7.832-18.633 0-5.776-1.799-11.004-5.203-15.121-4.563-5.518-11.727-8.852-21.297-9.908-8.92-.984-10.252-5.582-10.252-8.234 0-1.566.452-9.375 9.374-9.375 5.746 0 8.232 3.426 8.847 4.449 1.598 3.885 6.244 5.736 10.073 3.997 3.945-1.791 5.32-6.344 3.651-10.179-1.789-3.887-6.714-9.875-15.056-12.256v-7.35c0-4.15-3.364-7.514-7.514-7.514s-7.514 3.364-7.514 7.514v7.33c-5.116 1.47-9.383 4.497-12.378 8.875-4.186 6.117-4.511 12.653-4.511 14.51 0 9.487 6.19 21.248 23.633 23.172 13.119 1.448 13.119 7.727 13.119 10.091 0 2.306-.815 5.536-3.103 7.688-2.177 2.048-5.551 2.951-10.025 2.676-9.482-.578-11.632-6.485-11.846-7.156-1.104-4.014-5.206-6.575-9.304-5.442-4.202 1.161-6.572 5.795-5.049 9.885.767 2.405 5.072 13.622 19.464 16.891z"/></g></g></svg>
