<svg xmlns="http://www.w3.org/2000/svg" xmlns:xlink="http://www.w3.org/1999/xlink" width="805" height="511" viewBox="0 0 805 511">
  <defs>
    <clipPath id="clip-path">
      <rect id="CARD" width="805" height="511" rx="35" transform="translate(5011.16 3719)" fill="#b2b2b2"/>
    </clipPath>
  </defs>
  <g id="_64_-_DESIGN_CARD" data-name="64 - DESIGN CARD" transform="translate(-5011.16 -3719)">
    <g id="CARD-2" data-name="CARD">
      <rect id="CARD-3" data-name="CARD" width="805" height="511" rx="35" transform="translate(5011.16 3719)" fill="#b2b2b2"/>
      <g id="Clip" clip-path="url(#clip-path)">
        <path id="SHAPE" d="M5431.857,4189.906l70.014-120.957,70.013,120.957Zm-69.015-120.957,70.016-120.957,70.013,120.957Zm69.015-120.957,70.014-120.957,70.013,120.957Zm-69.015-120.957,70.016-120.955,70.013,120.955Z" fill="#9c1830"/>
        <path id="SHAPE-2" data-name="SHAPE" d="M5291.83,3947.993l70.015-120.958,70.012,120.958Zm211.041-120.958,70.014-120.955,70.013,120.955Zm-280.054,0,70.013-120.955,70.013,120.955Z" fill="#ff9915"/>
        <path id="SHAPE-3" data-name="SHAPE" d="M5292.831,3947.993h140.027l-70.015,120.956Zm209.04-120.958H5641.9l-70.014,120.958Zm-279.055,0h140.027l-70.012,120.958Zm349.069-120.954h140.027L5641.9,3827.036Zm-279.054,0h140.027l-70.015,120.954Z" fill="#e51c2f"/>
        <path id="SHAPE-4" data-name="SHAPE" d="M5361.845,4068.95h140.027l-70.015,120.956Zm71.013-120.958h140.028l-70.015,120.958Zm-71.013-120.956h140.027l-70.015,120.956Zm71.013-120.956h140.028l-70.015,120.956Z" fill="#ff712d"/>
        <path id="SHAPE-5" data-name="SHAPE" d="M6387.485,3700.375c-65.542,63.417-178.159,67.123-228.125,149.6-127.945,211.329,185.1,359.276,199.518,554.241,14.647,198.2-151.9,282.421-299.32,297.117-119,11.862-231.924-40.822-311.616-126.442-148.786-159.84-288.043-369.035-257.239-598.66,26.087-194.565,186.746-275.824,362.051-316.643,67.887-15.81,143.724-14.649,213.259-12.038,65.543,2.5,136.292-23.3,201.358-31.205,36.281-4.4,164.038-37.161,149.655,32.882C6412.839,3669.584,6402.08,3686.264,6387.485,3700.375Z" fill="#282640"/>
        <path id="SHAPE-6" data-name="SHAPE" d="M5587.5,3614.028c-66.407,50.29-177.647,41.963-231.571,112.3-141.538,184.718,169.906,358.427,176.806,552.52,7.186,202.453-171.624,278.646-333.272,282.551-130.544,3.152-249.742-62.4-328.949-159.852-148.237-182.376-272.528-406.92-213.251-625.806,49.186-181.672,224.63-237.809,403.546-255.409,69.222-6.812,144.752,2.469,213.592,12.323,64.615,9.281,135.443-6.114,199.357-6.149,35.482-.015,160.075-15.235,144.068,45.04C5613.132,3589.193,5602.159,3602.939,5587.5,3614.028Z" fill="#cbd0db"/>
      </g>
    </g>
  </g>
</svg>
