<svg xmlns="http://www.w3.org/2000/svg" xmlns:xlink="http://www.w3.org/1999/xlink" width="805.06" height="511.09" viewBox="0 0 805.06 511.09">
  <defs>
    <clipPath id="clip-path">
      <rect id="CARD" width="805.06" height="511.09" rx="35" transform="translate(6466 4878.84)" fill="#f68b9c"/>
    </clipPath>
  </defs>
  <g id="_20_-_DESIGN_CARD" data-name="20 - DESIGN CARD" transform="translate(-6466 -4878.84)">
    <g id="CARD-2" data-name="CARD">
      <rect id="CARD-3" data-name="CARD" width="805.06" height="511.09" rx="35" transform="translate(6466 4878.84)" fill="#f68b9c"/>
      <g id="Clip" clip-path="url(#clip-path)">
        <path id="SHAPE" d="M7498.314,5060.947,5254.95,5540.981c-.047-70.235-58.129-198.762,24.168-264.993,136.068-108,365.794-133.043,552.981-203.77,114.847-42.1,215.383-89.907,269.712-162.886,38.806-52.128,37.551-104.45,98.845-150.432,1.512-1.2,3-2.352,4.531-3.512s3.02-2.312,4.548-3.471l.037-.008c2.358-1.775,4.761-3.538,7.171-5.281s4.838-3.446,7.266-5.148q7.293-5.078,14.806-9.917,11.26-7.274,22.95-13.982,4.193-2.375,8.394-4.732,7.6-4.189,15.391-8.179c7.907-4.058,15.991-7.979,24.141-11.739a3.31,3.31,0,0,0,.539-.247c5.505-2.493,11.026-4.944,16.589-7.3,2.832-1.2,5.673-2.375,8.513-3.552q4.274-1.736,8.563-3.431c2.865-1.118,5.766-2.242,8.648-3.319,2.874-1.1,5.762-2.153,8.644-3.229l.11-.024c2.89-1.056,5.824-2.1,8.767-3.125s5.885-2.048,8.844-3.032q13.346-4.5,26.992-8.558t27.528-7.731c3.106-.817,6.221-1.616,9.3-2.405l9.368-2.333c66.019-16.031,136.142-25.994,207.812-32.343,1.463-.138,2.935-.256,4.362-.386,18.926-1.639,37.987-3.044,57.056-4.231q24.809-1.529,49.691-2.677c4.125-.181,8.2-.375,12.3-.528,9.19-.41,18.368-.751,27.544-1.093q19.923-.713,39.8-1.241,9.958-.289,19.858-.524,21.142-.513,42.134-.906,8.559-.188,17.136-.335c3.253-.061,6.553-.109,9.806-.17,6.545-.129,13.061-.231,19.569-.352s13.023-.224,19.495-.336c9.725-.174,19.368-.354,29.011-.532q9.639-.189,19.2-.382,38.256-.755,75.294-1.953c193.559-6.2,427.147-47.628,573.251-140.659q7.575,4.92,15.159,9.86c2.5,1.634,5.051,3.28,7.6,4.926,12.693,8.219,25.55,16.446,38.82,24.607,2.294,1.416,4.588,2.832,6.963,4.251,3.3,2.032,6.638,4.036,10.015,6.052q3.256,1.966,6.625,3.908c2.065,1.246,4.159,2.463,6.3,3.693,2.3,1.327,4.6,2.674,6.939,3.993q14.832,8.462,30.6,16.769c76.466,40.613,143.937,78.768,229.8,112.987,6.011,2.4,11.914,4.924,17.557,7.595-3.6,2.172-7.041,4.42-10.3,6.739-19.761,13.76-34.17,29.574-43.453,46.2a102.172,102.172,0,0,0-6.039,12.6,86.106,86.106,0,0,0-2.984,8.5q-.624,2.007-1.114,4.051c-.379,1.527-.758,3.055-1.02,4.579-.31,1.4-.575,2.818-.766,4.218-.22,1.428-.4,2.848-.542,4.279-.175,1.44-.276,2.865-.341,4.28q-.121,2.063-.132,4.1a1.4,1.4,0,0,0,0,.395c-.052,1.348-.032,2.68.035,4.024,0,.088,0,.2,0,.306q.075,1.956.26,3.888a78.137,78.137,0,0,0,1.153,8.453c.193,1.164.422,2.32.7,3.488.11.568.258,1.128.414,1.708.229.959.5,1.91.771,2.882a2.332,2.332,0,0,0,.131.519c.353,1.262.749,2.536,1.184,3.8,2.456,6.049-6.124,14.458-12.663,18.048-114.432,52.969-251.776,69.207-377.256,104.818C7535.449,4924.722,7454.549,5022.093,7498.314,5060.947ZM6333.805,4918.227c-96.243,57.1-128.271,163.038-60.635,209.572,134.012,92.133,629.8-68.656,709.044-94.354,164.529-53.366,376.4-122.078,375.062-199.033-1.139-65.625-157.107-120.06-293.865-107.1-94.447,8.943-110.1,43.453-244.069,89.076C6580.331,4897.825,6449.61,4849.537,6333.805,4918.227Z" fill="#2b4c65"/>
        <path id="SHAPE-2" data-name="SHAPE" d="M6949.711,5134.577c435.6-80.923,809.019-37.341,834.045,97.343s-307.812,309.469-743.416,390.392-809.019,37.341-834.046-97.344S6514.106,5215.5,6949.711,5134.577Z" fill="#08db94"/>
        <path id="SHAPE-3" data-name="SHAPE" d="M6269.752,5132.558c-67.839-46.646-35.683-152.869,60.878-210.129,116.19-68.884,247.313-20.486,487.1-102.172,134.4-45.759,150.117-80.361,244.865-89.34,137.194-13.008,293.642,41.549,294.771,107.345,1.327,77.156-211.237,146.075-376.3,199.6C6901.564,5063.641,6404.167,5224.915,6269.752,5132.558Z" fill="#aed2da"/>
      </g>
    </g>
  </g>
</svg>
