<svg xmlns="http://www.w3.org/2000/svg" viewBox="0 0 438.47 301.16"><defs><style>.cls-1{fill:#8f999e;}.cls-2{fill:#dadce1;}.cls-3{fill:#f0f1f3;}.cls-4{fill:#e1e5e6;}.cls-5{fill:#caccd2;}.cls-6{fill:#fff;}</style></defs><title>Recurso 1</title><g id="Capa_2" data-name="Capa 2"><g id="page"><rect class="cls-1" x="424.19" y="268.98" width="14.28" height="2"/><polygon class="cls-1" points="94.12 238.24 96.29 269.98 130.82 269.98 128.49 235.89 94.12 238.24"/><path class="cls-1" d="M131.89,271H95.36l-2.31-33.67,36.37-2.49Zm-34.67-2h32.53l-2.19-32-32.38,2.22Z"/><polygon class="cls-1" points="65.54 269.98 105.43 172.88 73.55 163.34 29.5 269.98 65.54 269.98"/><path class="cls-1" d="M66.21,271H28L73,162.12l33.81,10.12ZM31,269H64.87l39.22-95.45-30-9Z"/><path class="cls-2" d="M146.94,270h37.55c-.14-1.52-.27-3.07-.38-4.66q-1.86-27.63,4.57-41.22t19.44-14.44q12.67-.91,20.66,11.71c5.36,8.42,8.61,21.8,9.9,40.23.2,2.91.32,5.7.38,8.38h38.06c0-3.58-.1-7.23-.36-11a141.74,141.74,0,0,0-6-33.35,77.33,77.33,0,0,0-13.49-25.85,56.7,56.7,0,0,0-21.36-16.21c-8.46-3.65-18.21-5.14-29.33-4.38q-17,1.16-28.85,8.35a56,56,0,0,0-19.08,18.94A80.43,80.43,0,0,0,148.46,234a134.81,134.81,0,0,0-1.69,33.92C146.82,268.58,146.88,269.28,146.94,270Z"/><path class="cls-2" d="M278.11,271h-40l0-1c-.06-2.72-.19-5.52-.38-8.33-1.27-18.23-4.55-31.61-9.74-39.77s-11.73-11.82-19.75-11.24c-8.33.56-14.42,5.1-18.61,13.87s-5.69,22.59-4.47,40.72c.11,1.59.24,3.13.38,4.63l.1,1.1H146l-.12-1.5-.12-1.54a137,137,0,0,1,1.7-34.17A82.22,82.22,0,0,1,157.77,206a57.35,57.35,0,0,1,19.41-19.27c8-4.85,17.91-7.71,29.31-8.49,11.14-.76,21.16.74,29.78,4.46A58,58,0,0,1,258,199.17a79.2,79.2,0,0,1,13.67,26.18,143.23,143.23,0,0,1,6.07,33.59c.25,3.6.37,7.31.36,11ZM240,269h36.08c0-3.35-.13-6.67-.36-9.9a140.78,140.78,0,0,0-6-33.12,77,77,0,0,0-13.31-25.52,56.16,56.16,0,0,0-21-15.93c-8.33-3.58-18-5-28.86-4.29-11.07.75-20.63,3.52-28.4,8.21A55,55,0,0,0,159.48,207a79.93,79.93,0,0,0-10,27.11,133.93,133.93,0,0,0-1.67,33.67l.09,1.17H183.4c-.11-1.18-.2-2.37-.29-3.59-1.24-18.48.33-32.52,4.67-41.72s11.29-14.4,20.27-15c.59,0,1.18-.06,1.76-.06,8,0,14.7,4.12,19.82,12.23,5.45,8.56,8.73,21.88,10.05,40.7C239.85,264,240,266.54,240,269Z"/><polygon class="cls-1" points="416.94 269.98 414.4 254.22 396.47 255.44 393.75 215.58 359.38 217.94 362.11 257.74 326.49 260.21 370.74 152.59 338.81 143.03 286.38 269.98 416.94 269.98"/><path class="cls-1" d="M418.12,271H284.88l53.35-129.17,33.86,10.13L328,259.1l33-2.28L358.31,217l36.37-2.49,2.72,39.85,17.84-1.21Zm-130.25-2h127.9l-2.21-13.7-18,1.22-2.72-39.85-32.37,2.22,2.72,39.8L325,261.32,369.4,153.23l-30-9Z"/><path class="cls-3" d="M222.76,188.78c.34,4.26-8.35,8.44-19.42,9.33S183,196.27,182.68,192s8.35-8.44,19.42-9.33S222.42,184.52,222.76,188.78Z"/><path class="cls-3" d="M242.25,191.17c-.62,1.72-4.36,2-8.36.52s-6.74-4-6.12-5.71,4.36-1.95,8.36-.52S242.86,189.45,242.25,191.17Z"/><rect class="cls-1" x="5.23" y="268.98" width="12" height="2"/><rect class="cls-1" x="55.73" y="285.29" width="11.73" height="2"/><rect class="cls-1" x="84.23" y="285.29" width="21.2" height="2"/><rect class="cls-1" x="330.78" y="285.29" width="9.45" height="2"/><rect class="cls-1" x="351.66" y="285.29" width="41.07" height="2"/><rect class="cls-1" x="38.38" y="299.16" width="10.35" height="2"/><rect class="cls-1" x="397.88" y="299.16" width="10.35" height="2"/><path class="cls-1" d="M191.89,189.9h0a2.49,2.49,0,0,1-2.5-2.5c.05-21.83-6.45-36.15-8.12-38.81a2.51,2.51,0,0,1-.7-1.25,2.58,2.58,0,0,1,.9-2.54,2.52,2.52,0,0,1,2.65-.28c2.35,1.14,5.87,12.21,5.9,12.32a102.39,102.39,0,0,1,4.37,30.57A2.49,2.49,0,0,1,191.89,189.9Z"/><path class="cls-1" d="M258.69,162a2.47,2.47,0,0,1-1.73-.7,2.5,2.5,0,0,1-.08-3.53c1.68-1.77,6.06-7.58,4.12-11-2-3.53-10.18-6.71-14.85-7.88a2.5,2.5,0,1,1,1.21-4.85c1.45.36,14.25,3.73,18,10.24,4.19,7.32-4.47,16.52-4.85,16.91A2.48,2.48,0,0,1,258.69,162Z"/><path class="cls-1" d="M253.9,79.12a2.44,2.44,0,0,1-.84-.85,2.51,2.51,0,0,1,.86-3.43l30.62-18.31a2.5,2.5,0,1,1,2.56,4.29L256.49,79.13A2.49,2.49,0,0,1,253.9,79.12Z"/><path class="cls-1" d="M173.06,84.56l-.25-.08-37.6-14.74A2.5,2.5,0,1,1,137,65.09l37.61,14.73a2.5,2.5,0,0,1-1.58,4.74Z"/><path class="cls-4" d="M286.42,16.21h-.08a4,4,0,0,0-3.95-4v-.08a4,4,0,0,0,3.95-3.95h.08a4,4,0,0,0,3.95,3.95v.08A4,4,0,0,0,286.42,16.21Z"/><path class="cls-4" d="M134.85,41.29h-.08a4,4,0,0,0-4-3.95v-.08a4,4,0,0,0,4-3.95h.08a4,4,0,0,0,4,3.95v.08A4,4,0,0,0,134.85,41.29Z"/><path class="cls-4" d="M282.6,127.5h-.09a4,4,0,0,0-3.95-4v-.08a4,4,0,0,0,3.95-4h.09a4,4,0,0,0,3.95,4v.08A4,4,0,0,0,282.6,127.5Z"/><path class="cls-4" d="M219.23,16.45h-.17a8.15,8.15,0,0,0-8.14-8.14V8.14A8.14,8.14,0,0,0,219.06,0h.17a8.13,8.13,0,0,0,8.14,8.14v.17A8.14,8.14,0,0,0,219.23,16.45Z"/><path class="cls-4" d="M308.82,55.69h-.13a5.92,5.92,0,0,0-5.93-5.93v-.12a5.93,5.93,0,0,0,5.93-5.93h.13a5.93,5.93,0,0,0,5.93,5.93v.12A5.92,5.92,0,0,0,308.82,55.69Z"/><path class="cls-4" d="M118.52,119.52h-.12a5.94,5.94,0,0,0-5.93-5.93v-.12a5.94,5.94,0,0,0,5.93-5.93h.12a5.93,5.93,0,0,0,5.93,5.93v.12A5.93,5.93,0,0,0,118.52,119.52Z"/><path id="Trazado_357" data-name="Trazado 357" class="cls-3" d="M160.59,138.86l23-113.21a7.62,7.62,0,0,1,9-6l.09,0,68.46,13.94a7.62,7.62,0,0,1,6,9l0,.08L244.07,155.86a7.62,7.62,0,0,1-8.95,6l-.09,0L166.58,147.9a7.63,7.63,0,0,1-6-9Z"/><circle id="Oval" class="cls-5" cx="182.42" cy="129.89" r="10.07"/><circle id="Oval-2" class="cls-2" cx="185.09" cy="116.8" r="10.07"/><path class="cls-1" d="M226.08,91.88c-1.16,8.28-7.81,15.29-14.85,15.65s-11.8-6.07-10.64-14.35,7.81-15.29,14.85-15.65S227.24,83.6,226.08,91.88Z"/><path class="cls-6" d="M215.46,77.15a14.19,14.19,0,0,0-8.85,4.15,9.74,9.74,0,0,0,9.63,6.13,14.15,14.15,0,0,0,8.85-4.16A9.74,9.74,0,0,0,215.46,77.15Z"/><path class="cls-1" d="M240,67.14A3.45,3.45,0,1,1,237.51,63,3.45,3.45,0,0,1,240,67.14Z"/><path class="cls-1" d="M203.9,67a3.45,3.45,0,1,1-2.51-4.18A3.44,3.44,0,0,1,203.9,67Z"/><path id="Shape-5" class="cls-2" d="M351.82,140.15a8.65,8.65,0,0,1-8.62,8.66H306.48a8.68,8.68,0,0,1-6.65-3.12,8.51,8.51,0,0,1-2-5.54,9.94,9.94,0,0,1,.3-2.3,8.68,8.68,0,0,1,8.33-6.36h0a10.94,10.94,0,0,1,16.5-6.65,12,12,0,0,1,22.23,6.36v.52a8.67,8.67,0,0,1,6.31,6.09A9.27,9.27,0,0,1,351.82,140.15Z"/><path id="Shape-6" class="cls-3" d="M351.52,137.85a8.72,8.72,0,0,1-5.2,5.76,8.52,8.52,0,0,1-3.12.59H306.48a8.65,8.65,0,0,1-6.65-3.12,8.24,8.24,0,0,1-1.67-3.23,8.67,8.67,0,0,1,8.32-6.36h0a10.94,10.94,0,0,1,16.5-6.65,12,12,0,0,1,22.22,6.36v.52A8.71,8.71,0,0,1,351.52,137.85Z"/><path id="Shape-5-2" data-name="Shape-5" class="cls-2" d="M87.11,163.71a14,14,0,0,1-13.91,14H14a14,14,0,0,1-10.73-5A13.71,13.71,0,0,1,0,163.71,15.55,15.55,0,0,1,.48,160a14,14,0,0,1,13.43-10.25H14A17.65,17.65,0,0,1,40.59,139a19.4,19.4,0,0,1,35.85,10.25v.84a14,14,0,0,1,10.19,9.83A16,16,0,0,1,87.11,163.71Z"/><path id="Shape-6-2" data-name="Shape-6" class="cls-3" d="M86.63,160a14.1,14.1,0,0,1-8.39,9.29,13.8,13.8,0,0,1-5,1H14a14,14,0,0,1-10.73-5A13.17,13.17,0,0,1,.54,160,14,14,0,0,1,14,149.74H14A17.65,17.65,0,0,1,40.65,139,19.4,19.4,0,0,1,76.5,149.26v.84A14.08,14.08,0,0,1,86.63,160Z"/><path id="Shape-5-3" data-name="Shape-5" class="cls-2" d="M427.34,216.54a14,14,0,0,1-13.9,14H354.2a14,14,0,0,1-10.73-5,13.73,13.73,0,0,1-3.24-8.93,15.49,15.49,0,0,1,.48-3.72,14,14,0,0,1,13.43-10.25h.06a17.63,17.63,0,0,1,26.62-10.73,19.4,19.4,0,0,1,35.85,10.25v.84a14,14,0,0,1,10.19,9.83A15,15,0,0,1,427.34,216.54Z"/><path id="Shape-6-3" data-name="Shape-6" class="cls-3" d="M426.86,212.82a14.1,14.1,0,0,1-8.39,9.29,13.75,13.75,0,0,1-5,1H354.2a14,14,0,0,1-10.73-5,13.3,13.3,0,0,1-2.7-5.22,14,14,0,0,1,13.43-10.25h.06a17.63,17.63,0,0,1,26.62-10.73,19.4,19.4,0,0,1,35.85,10.25v.84A14.06,14.06,0,0,1,426.86,212.82Z"/><rect class="cls-1" x="77.82" y="268.98" width="252.96" height="2"/></g></g></svg>