<svg xmlns="http://www.w3.org/2000/svg" width="62.667" height="51.012" viewBox="0 0 62.667 51.012">
  <g id="_009-tarjeta-de-credito-1" data-name="009-tarjeta-de-credito-1" transform="translate(0 -47.612)">
    <g id="Grupo_1888" data-name="Grupo 1888" transform="translate(0 60.657)">
      <g id="Grupo_1887" data-name="Grupo 1887" transform="translate(0 0)">
        <path id="Trazado_6408" data-name="Trazado 6408" d="M53.785,154.2H5.273A5.279,5.279,0,0,0,0,159.469v27.42a5.279,5.279,0,0,0,5.273,5.273H53.785a5.279,5.279,0,0,0,5.273-5.273v-27.42A5.279,5.279,0,0,0,53.785,154.2Zm3.164,32.694a3.168,3.168,0,0,1-3.164,3.164H5.273a3.168,3.168,0,0,1-3.164-3.164V159.47a3.168,3.168,0,0,1,3.164-3.164H53.785a3.168,3.168,0,0,1,3.164,3.164Z" transform="translate(0 -154.196)"/>
      </g>
    </g>
    <g id="Grupo_1890" data-name="Grupo 1890" transform="translate(5.273 65.93)">
      <g id="Grupo_1889" data-name="Grupo 1889" transform="translate(0 0)">
        <path id="Trazado_6409" data-name="Trazado 6409" d="M54.683,197.278H44.137a1.055,1.055,0,0,0-1.055,1.055v8.437a1.054,1.054,0,0,0,1.055,1.055H54.683a1.054,1.054,0,0,0,1.055-1.055v-8.437A1.055,1.055,0,0,0,54.683,197.278Zm-1.055,8.437H45.191v-6.328h8.437Z" transform="translate(-43.082 -197.278)"/>
      </g>
    </g>
    <g id="Grupo_1892" data-name="Grupo 1892" transform="translate(6.328 70.15)">
      <g id="Grupo_1891" data-name="Grupo 1891" transform="translate(0 0)">
        <rect id="Rectángulo_2106" data-name="Rectángulo 2106" width="3.164" height="2.109"/>
      </g>
    </g>
    <g id="Grupo_1894" data-name="Grupo 1894" transform="translate(13.71 70.15)">
      <g id="Grupo_1893" data-name="Grupo 1893" transform="translate(0 0)">
        <rect id="Rectángulo_2107" data-name="Rectángulo 2107" width="3.164" height="2.109"/>
      </g>
    </g>
    <g id="Grupo_1896" data-name="Grupo 1896" transform="translate(41.13 80.695)">
      <g id="Grupo_1895" data-name="Grupo 1895" transform="translate(0 0)">
        <path id="Trazado_6410" data-name="Trazado 6410" d="M342.365,317.906a6.328,6.328,0,1,0,6.328,6.328A6.334,6.334,0,0,0,342.365,317.906Zm0,10.546a4.218,4.218,0,1,1,4.218-4.218A4.223,4.223,0,0,1,342.365,328.452Z" transform="translate(-336.037 -317.906)"/>
      </g>
    </g>
    <g id="Grupo_1898" data-name="Grupo 1898" transform="translate(34.802 80.695)">
      <g id="Grupo_1897" data-name="Grupo 1897" transform="translate(0 0)">
        <path id="Trazado_6411" data-name="Trazado 6411" d="M290.667,317.906a6.328,6.328,0,1,0,6.328,6.328A6.334,6.334,0,0,0,290.667,317.906Zm0,10.546a4.218,4.218,0,1,1,4.218-4.218A4.223,4.223,0,0,1,290.667,328.452Z" transform="translate(-284.339 -317.906)"/>
      </g>
    </g>
    <g id="Grupo_1900" data-name="Grupo 1900" transform="translate(5.273 82.804)">
      <g id="Grupo_1899" data-name="Grupo 1899" transform="translate(0 0)">
        <rect id="Rectángulo_2108" data-name="Rectángulo 2108" width="6.328" height="2.109"/>
      </g>
    </g>
    <g id="Grupo_1902" data-name="Grupo 1902" transform="translate(15.819 82.804)">
      <g id="Grupo_1901" data-name="Grupo 1901" transform="translate(0 0)">
        <rect id="Rectángulo_2109" data-name="Rectángulo 2109" width="6.328" height="2.109"/>
      </g>
    </g>
    <g id="Grupo_1904" data-name="Grupo 1904" transform="translate(26.365 82.804)">
      <g id="Grupo_1903" data-name="Grupo 1903" transform="translate(0 0)">
        <rect id="Rectángulo_2110" data-name="Rectángulo 2110" width="6.328" height="2.109"/>
      </g>
    </g>
    <g id="Grupo_1906" data-name="Grupo 1906" transform="translate(5.273 89.131)">
      <g id="Grupo_1905" data-name="Grupo 1905">
        <rect id="Rectángulo_2111" data-name="Rectángulo 2111" width="27.42" height="2.109"/>
      </g>
    </g>
    <g id="Grupo_1908" data-name="Grupo 1908" transform="translate(2.586 47.612)">
      <g id="Grupo_1907" data-name="Grupo 1907" transform="translate(0 0)">
        <path id="Trazado_6412" data-name="Trazado 6412" d="M76.765,55.367l-47.9-7.688a5.276,5.276,0,0,0-6.038,4.375L21.128,62.6l2.083.335,1.7-10.547a3.169,3.169,0,0,1,3.622-2.627l47.9,7.689a3.168,3.168,0,0,1,2.629,3.615l0,.02L75.5,83.695l2.085.328,3.552-22.6,0-.019A5.278,5.278,0,0,0,76.765,55.367Z" transform="translate(-21.128 -47.612)"/>
      </g>
    </g>
    <g id="Grupo_1910" data-name="Grupo 1910" transform="translate(37.966 66.986)">
      <g id="Grupo_1909" data-name="Grupo 1909" transform="translate(0 0)">
        <rect id="Rectángulo_2112" data-name="Rectángulo 2112" width="2.109" height="4.218"/>
      </g>
    </g>
    <g id="Grupo_1912" data-name="Grupo 1912" transform="translate(42.184 66.986)">
      <g id="Grupo_1911" data-name="Grupo 1911" transform="translate(0 0)">
        <rect id="Rectángulo_2113" data-name="Rectángulo 2113" width="2.109" height="4.218"/>
      </g>
    </g>
    <g id="Grupo_1914" data-name="Grupo 1914" transform="translate(46.403 66.986)">
      <g id="Grupo_1913" data-name="Grupo 1913" transform="translate(0 0)">
        <rect id="Rectángulo_2114" data-name="Rectángulo 2114" width="2.109" height="4.218"/>
      </g>
    </g>
    <g id="Grupo_1916" data-name="Grupo 1916" transform="translate(50.621 66.986)">
      <g id="Grupo_1915" data-name="Grupo 1915" transform="translate(0 0)">
        <rect id="Rectángulo_2115" data-name="Rectángulo 2115" width="2.109" height="4.218"/>
      </g>
    </g>
    <g id="Grupo_1918" data-name="Grupo 1918" transform="translate(57.826 63.301)">
      <g id="Grupo_1917" data-name="Grupo 1917" transform="translate(0 0)">
        <rect id="Rectángulo_2116" data-name="Rectángulo 2116" width="2.109" height="3.209" transform="translate(0 2.079) rotate(-80.346)"/>
      </g>
    </g>
    <g id="Grupo_1920" data-name="Grupo 1920" transform="translate(5.096 54.346)">
      <g id="Grupo_1919" data-name="Grupo 1919" transform="translate(0 0)">
        <rect id="Rectángulo_2117" data-name="Rectángulo 2117" width="2.109" height="37.45" transform="matrix(0.169, -0.986, 0.986, 0.169, 0, 2.079)"/>
      </g>
    </g>
  </g>
</svg>
