<svg xmlns="http://www.w3.org/2000/svg" width="62.658" height="62.658" viewBox="0 0 62.658 62.658">
  <g id="outline" transform="translate(-16 -16)">
    <path id="Trazado_6374" data-name="Trazado 6374" d="M188.177,56a4.177,4.177,0,1,0,4.177,4.177A4.177,4.177,0,0,0,188.177,56Zm0,6.266a2.089,2.089,0,1,1,2.089-2.089A2.089,2.089,0,0,1,188.177,62.266Z" transform="translate(-146.07 -34.778)"/>
    <path id="Trazado_6375" data-name="Trazado 6375" d="M73.437,31.665H67.471L42.661,16.159a1.044,1.044,0,0,0-1.107,0L16.491,31.823a1.042,1.042,0,0,0-.488.886h0v4.177a1.044,1.044,0,0,0,1.044,1.044h3.133v3.133a1.044,1.044,0,0,0,1.044,1.044h1.044V55.684H21.222a1.044,1.044,0,0,0-1.044,1.044v3.133H19.133a1.044,1.044,0,0,0-1.044,1.044v3.133H17.044A1.044,1.044,0,0,0,16,65.082v4.177A1.044,1.044,0,0,0,17.044,70.3H49.418v3.133a5.227,5.227,0,0,0,5.222,5.222h18.8a5.227,5.227,0,0,0,5.222-5.222V36.886A5.227,5.227,0,0,0,73.437,31.665Zm-14.62,2.089H69.259V34.8a1.045,1.045,0,0,1-1.044,1.044H59.861A1.045,1.045,0,0,1,58.816,34.8ZM42.108,18.276,63.529,31.665H20.686ZM18.089,33.753H50.465a5.2,5.2,0,0,0-.942,2.089H18.089ZM30.62,59.861V56.728a1.044,1.044,0,0,0-1.044-1.044H28.532V42.108h1.044a1.044,1.044,0,0,0,1.044-1.044V37.93h6.266v3.133a1.044,1.044,0,0,0,1.044,1.044h1.044V55.684H37.93a1.044,1.044,0,0,0-1.044,1.044v3.133Zm12.532-4.177H41.063V42.108h2.089ZM38.975,40.019V37.93H45.24v2.089Zm0,17.753H45.24v2.089H38.975Zm7.31-2.089H45.24V42.108h1.044a1.044,1.044,0,0,0,1.044-1.044V37.93h2.089v21.93H47.329V56.728A1.044,1.044,0,0,0,46.285,55.684ZM28.532,37.93v2.089H22.266V37.93Zm-4.177,4.177h2.089V55.684H24.354ZM22.266,57.772h6.266v2.089H22.266Zm-2.089,4.177h29.24v2.089H20.177Zm-2.089,6.266V66.127H49.418v2.089ZM76.57,73.437a3.137,3.137,0,0,1-3.133,3.133h-18.8a3.137,3.137,0,0,1-3.133-3.133V36.886a3.137,3.137,0,0,1,3.133-3.133h2.089V34.8a3.136,3.136,0,0,0,3.133,3.133h8.354A3.136,3.136,0,0,0,71.348,34.8V33.753h2.089a3.137,3.137,0,0,1,3.133,3.133Z"/>
    <path id="Trazado_6376" data-name="Trazado 6376" d="M314.443,232a10.443,10.443,0,1,0,10.443,10.443A10.443,10.443,0,0,0,314.443,232Zm0,18.8a8.354,8.354,0,1,1,8.354-8.354A8.354,8.354,0,0,1,314.443,250.8Z" transform="translate(-250.405 -187.804)"/>
    <rect id="Rectángulo_2105" data-name="Rectángulo 2105" width="7" height="2" transform="translate(60.333 72.325)"/>
  </g>
</svg>
