<svg xmlns="http://www.w3.org/2000/svg" width="79.002" height="46.002" viewBox="0 0 79.002 46.002">
  <g id="Grupo_2070" data-name="Grupo 2070" transform="translate(-694.999 -285.999)">
    <path id="Trazado_6350" data-name="Trazado 6350" d="M68.668,8H34a3.988,3.988,0,0,0-4,3.952V31.715a3.988,3.988,0,0,0,4,3.952H68.668a3.988,3.988,0,0,0,4-3.953V11.952A3.988,3.988,0,0,0,68.668,8ZM70,31.715a1.326,1.326,0,0,1-1.333,1.317H34a1.326,1.326,0,0,1-1.333-1.317V19.857H70Zm0-14.492H32.667V15.9H70Zm0-3.952H32.667V11.952A1.326,1.326,0,0,1,34,10.635H68.668A1.326,1.326,0,0,1,70,11.952Z" transform="translate(701.333 277.999)" fill="#1d2733"/>
    <path id="Trazado_6351" data-name="Trazado 6351" d="M58.667,21H53.333a3.333,3.333,0,1,0,0,6.667h5.333a3.333,3.333,0,1,0,0-6.667Zm0,4H53.333a.667.667,0,1,1,0-1.333h5.333a.667.667,0,1,1,0,1.333Z" transform="translate(707.001 281.333)" fill="#1d2733"/>
    <path id="Trazado_6352" data-name="Trazado 6352" d="M40,43.214,40.158,34H3.333A1.333,1.333,0,0,0,2,35.333V62a1.333,1.333,0,0,0,1.333,1.333h48A1.333,1.333,0,0,0,52.668,62V43.214C52.668,42.477,40.738,43.214,40,43.214ZM4.667,36.667H8.48A5.356,5.356,0,0,1,4.667,40.48Zm0,24V56.854A5.356,5.356,0,0,1,8.48,60.667Zm45.335,0H46.188A5.356,5.356,0,0,1,50,56.854Zm0-6.547a7.99,7.99,0,0,0-6.547,6.547H11.214a7.99,7.99,0,0,0-6.547-6.547V43.214a7.99,7.99,0,0,0,6.547-6.547H39c.314,1.861-.127,5.233,2.733,6.547,1.782.822,6.775-.252,8.267,0Zm0-10.907c-.888-.234-6.278.717-8.267,0-1.583-.567-1.476-5.57-1.733-6.547v6.547Z" transform="translate(692.999 268.667)" fill="#1d2733"/>
    <path id="Trazado_6356" data-name="Trazado 6356" d="M23.667,37A10.667,10.667,0,1,0,34.334,47.667,10.667,10.667,0,0,0,23.667,37Zm0,18.667a8,8,0,1,1,8-8,8,8,0,0,1-8,8Z" transform="translate(696.666 269.667)" fill="#1d2733"/>
  </g>
</svg>
