<svg xmlns="http://www.w3.org/2000/svg" width="58.577" height="38.947" viewBox="0 0 58.577 38.947">
  <g id="Page-1" transform="translate(-0.85 -1.35)">
    <g id="Credit_Card" transform="translate(2 2.5)">
      <path id="Shape" d="M53.428,37.147H2.849A2.838,2.838,0,0,1,0,34.3V3.349A2.838,2.838,0,0,1,2.849.5H53.428a2.838,2.838,0,0,1,2.849,2.849V34.3A2.838,2.838,0,0,1,53.428,37.147Z" transform="translate(0 -0.5)" fill="none" stroke="#000" stroke-linecap="round" stroke-linejoin="round" stroke-width="2.3" fill-rule="evenodd"/>
      <path id="Shape-2" data-name="Shape" stroke="#000" d="M56.338,37.2H.1" fill="none" transform="translate(-0.06 -22.676)" stroke-linecap="round" stroke-linejoin="round" stroke-width="2.3" fill-rule="evenodd"/>
      <path id="Shape-3" data-name="Shape" stroke="#000" d="M.1,20.1H56.338" fill="none" transform="translate(-0.06 -12.343)" stroke-linecap="round" stroke-linejoin="round" stroke-width="2.3" fill-rule="evenodd"/>
      <g id="Group" transform="translate(38.943 25.645)">
        <circle id="Oval" cx="3.72" cy="3.72" r="3.72" stroke-width="2.3" transform="translate(5.382)" stroke="#000" stroke-linecap="round" stroke-linejoin="round" fill="none"/>
        <path id="Shape-4" data-name="Shape" stroke="#000" d="M6.495,6.732a3.579,3.579,0,0,1-2.454.95A3.641,3.641,0,1,1,4.041.4,3.486,3.486,0,0,1,5.347.637a3.022,3.022,0,0,1,1.266.989" fill="none" transform="translate(-0.4 -0.36)" stroke-linecap="round" stroke-linejoin="round" stroke-width="2.3" fill-rule="evenodd"/>
      </g>
      <path id="Shape-5" data-name="Shape" stroke="#000" d="M68.3,64.7h5.184" fill="none" transform="translate(-41.27 -39.292)" stroke-linecap="round" stroke-linejoin="round" stroke-width="2.3" fill-rule="evenodd"/>
      <path id="Shape-6" data-name="Shape" stroke="#000" d="M17.6,64.7H33.707" fill="none" transform="translate(-10.635 -39.292)" stroke-linecap="round" stroke-linejoin="round" stroke-width="2.3" fill-rule="evenodd"/>
      <path id="Shape-7" data-name="Shape" stroke="#000" d="M17.6,74.7h7.757" fill="none" transform="translate(-10.635 -45.335)" stroke-linecap="round" stroke-linejoin="round" stroke-width="2.3" fill-rule="evenodd"/>
    </g>
  </g>
</svg>
